<svg width="155" height="148" viewBox="0 0 155 148" fill="none" xmlns="http://www.w3.org/2000/svg">
<g opacity="0.32">
<path d="M1.97391 147.53C1.47641 147.53 1.05545 147.358 0.711031 147.013C0.366608 146.669 0.194397 146.248 0.194397 145.751C0.194397 145.253 0.366608 144.832 0.711031 144.488C1.05545 144.143 1.47641 143.971 1.97391 143.971C2.45228 143.971 2.85411 144.143 3.17939 144.488C3.52382 144.832 3.69603 145.253 3.69603 145.751C3.69603 146.248 3.52382 146.669 3.17939 147.013C2.85411 147.358 2.45228 147.53 1.97391 147.53Z" fill="#15C3D6"/>
<path d="M15.6522 147.53C15.1547 147.53 14.7337 147.358 14.3893 147.013C14.0449 146.669 13.8726 146.248 13.8726 145.751C13.8726 145.253 14.0449 144.832 14.3893 144.488C14.7337 144.143 15.1547 143.971 15.6522 143.971C16.1305 143.971 16.5324 144.143 16.8576 144.488C17.2021 144.832 17.3743 145.253 17.3743 145.751C17.3743 146.248 17.2021 146.669 16.8576 147.013C16.5324 147.358 16.1305 147.53 15.6522 147.53Z" fill="#15C3D6"/>
<path d="M29.3304 147.53C28.8329 147.53 28.4119 147.358 28.0675 147.013C27.7231 146.669 27.5509 146.248 27.5509 145.751C27.5509 145.253 27.7231 144.832 28.0675 144.488C28.4119 144.143 28.8329 143.971 29.3304 143.971C29.8088 143.971 30.2106 144.143 30.5359 144.488C30.8803 144.832 31.0525 145.253 31.0525 145.751C31.0525 146.248 30.8803 146.669 30.5359 147.013C30.2106 147.358 29.8088 147.53 29.3304 147.53Z" fill="#15C3D6"/>
<path d="M43.0087 147.53C42.5112 147.53 42.0902 147.358 41.7458 147.013C41.4013 146.669 41.2291 146.248 41.2291 145.751C41.2291 145.253 41.4013 144.832 41.7458 144.488C42.0902 144.143 42.5112 143.971 43.0087 143.971C43.487 143.971 43.8888 144.143 44.2141 144.488C44.5586 144.832 44.7308 145.253 44.7308 145.751C44.7308 146.248 44.5586 146.669 44.2141 147.013C43.8888 147.358 43.487 147.53 43.0087 147.53Z" fill="#15C3D6"/>
<path d="M56.6869 147.53C56.1894 147.53 55.7684 147.358 55.424 147.013C55.0796 146.669 54.9074 146.248 54.9074 145.751C54.9074 145.253 55.0796 144.832 55.424 144.488C55.7684 144.143 56.1894 143.971 56.6869 143.971C57.1653 143.971 57.5671 144.143 57.8924 144.488C58.2368 144.832 58.409 145.253 58.409 145.751C58.409 146.248 58.2368 146.669 57.8924 147.013C57.5671 147.358 57.1653 147.53 56.6869 147.53Z" fill="#15C3D6"/>
<path d="M70.3651 147.53C69.8676 147.53 69.4467 147.358 69.1023 147.013C68.7578 146.669 68.5856 146.248 68.5856 145.751C68.5856 145.253 68.7578 144.832 69.1023 144.488C69.4467 144.143 69.8676 143.971 70.3651 143.971C70.8435 143.971 71.2453 144.143 71.5706 144.488C71.915 144.832 72.0873 145.253 72.0873 145.751C72.0873 146.248 71.915 146.669 71.5706 147.013C71.2453 147.358 70.8435 147.53 70.3651 147.53Z" fill="#15C3D6"/>
<path d="M84.0434 147.53C83.5459 147.53 83.1249 147.358 82.7805 147.013C82.4361 146.669 82.2639 146.248 82.2639 145.751C82.2639 145.253 82.4361 144.832 82.7805 144.488C83.1249 144.143 83.5459 143.971 84.0434 143.971C84.5218 143.971 84.9236 144.143 85.2489 144.488C85.5933 144.832 85.7655 145.253 85.7655 145.751C85.7655 146.248 85.5933 146.669 85.2489 147.013C84.9236 147.358 84.5218 147.53 84.0434 147.53Z" fill="#15C3D6"/>
<path d="M97.7216 147.53C97.2241 147.53 96.8032 147.358 96.4587 147.013C96.1143 146.669 95.9421 146.248 95.9421 145.751C95.9421 145.253 96.1143 144.832 96.4587 144.488C96.8032 144.143 97.2241 143.971 97.7216 143.971C98.2 143.971 98.6018 144.143 98.9271 144.488C99.2715 144.832 99.4437 145.253 99.4437 145.751C99.4437 146.248 99.2715 146.669 98.9271 147.013C98.6018 147.358 98.2 147.53 97.7216 147.53Z" fill="#15C3D6"/>
<path d="M111.4 147.53C110.902 147.53 110.481 147.358 110.137 147.013C109.793 146.669 109.62 146.248 109.62 145.751C109.62 145.253 109.793 144.832 110.137 144.488C110.481 144.143 110.902 143.971 111.4 143.971C111.878 143.971 112.28 144.143 112.605 144.488C112.95 144.832 113.122 145.253 113.122 145.751C113.122 146.248 112.95 146.669 112.605 147.013C112.28 147.358 111.878 147.53 111.4 147.53Z" fill="#15C3D6"/>
<path d="M125.078 147.53C124.581 147.53 124.16 147.358 123.815 147.013C123.471 146.669 123.299 146.248 123.299 145.751C123.299 145.253 123.471 144.832 123.815 144.488C124.16 144.143 124.581 143.971 125.078 143.971C125.556 143.971 125.958 144.143 126.284 144.488C126.628 144.832 126.8 145.253 126.8 145.751C126.8 146.248 126.628 146.669 126.284 147.013C125.958 147.358 125.556 147.53 125.078 147.53Z" fill="#15C3D6"/>
<path d="M138.756 147.53C138.259 147.53 137.838 147.358 137.493 147.013C137.149 146.669 136.977 146.248 136.977 145.751C136.977 145.253 137.149 144.832 137.493 144.488C137.838 144.143 138.259 143.971 138.756 143.971C139.235 143.971 139.637 144.143 139.962 144.488C140.306 144.832 140.478 145.253 140.478 145.751C140.478 146.248 140.306 146.669 139.962 147.013C139.637 147.358 139.235 147.53 138.756 147.53Z" fill="#15C3D6"/>
<path d="M152.435 147.53C151.937 147.53 151.516 147.358 151.172 147.013C150.827 146.669 150.655 146.248 150.655 145.751C150.655 145.253 150.827 144.832 151.172 144.488C151.516 144.143 151.937 143.971 152.435 143.971C152.913 143.971 153.315 144.143 153.64 144.488C153.985 144.832 154.157 145.253 154.157 145.751C154.157 146.248 153.985 146.669 153.64 147.013C153.315 147.358 152.913 147.53 152.435 147.53Z" fill="#15C3D6"/>
<path d="M1.97391 133.179C1.47641 133.179 1.05545 133.007 0.711031 132.663C0.366608 132.318 0.194397 131.897 0.194397 131.4C0.194397 130.902 0.366608 130.481 0.711031 130.137C1.05545 129.792 1.47641 129.62 1.97391 129.62C2.45228 129.62 2.85411 129.792 3.17939 130.137C3.52382 130.481 3.69603 130.902 3.69603 131.4C3.69603 131.897 3.52382 132.318 3.17939 132.663C2.85411 133.007 2.45228 133.179 1.97391 133.179Z" fill="#15C3D6"/>
<path d="M15.6522 133.179C15.1547 133.179 14.7337 133.007 14.3893 132.663C14.0449 132.318 13.8726 131.897 13.8726 131.4C13.8726 130.902 14.0449 130.481 14.3893 130.137C14.7337 129.792 15.1547 129.62 15.6522 129.62C16.1305 129.62 16.5324 129.792 16.8576 130.137C17.2021 130.481 17.3743 130.902 17.3743 131.4C17.3743 131.897 17.2021 132.318 16.8576 132.663C16.5324 133.007 16.1305 133.179 15.6522 133.179Z" fill="#15C3D6"/>
<path d="M29.3304 133.179C28.8329 133.179 28.4119 133.007 28.0675 132.663C27.7231 132.318 27.5509 131.897 27.5509 131.4C27.5509 130.902 27.7231 130.481 28.0675 130.137C28.4119 129.792 28.8329 129.62 29.3304 129.62C29.8088 129.62 30.2106 129.792 30.5359 130.137C30.8803 130.481 31.0525 130.902 31.0525 131.4C31.0525 131.897 30.8803 132.318 30.5359 132.663C30.2106 133.007 29.8088 133.179 29.3304 133.179Z" fill="#15C3D6"/>
<path d="M43.0087 133.179C42.5112 133.179 42.0902 133.007 41.7458 132.663C41.4013 132.318 41.2291 131.897 41.2291 131.4C41.2291 130.902 41.4013 130.481 41.7458 130.137C42.0902 129.792 42.5112 129.62 43.0087 129.62C43.487 129.62 43.8888 129.792 44.2141 130.137C44.5586 130.481 44.7308 130.902 44.7308 131.4C44.7308 131.897 44.5586 132.318 44.2141 132.663C43.8888 133.007 43.487 133.179 43.0087 133.179Z" fill="#15C3D6"/>
<path d="M56.6869 133.179C56.1894 133.179 55.7684 133.007 55.424 132.663C55.0796 132.318 54.9074 131.897 54.9074 131.4C54.9074 130.902 55.0796 130.481 55.424 130.137C55.7684 129.792 56.1894 129.62 56.6869 129.62C57.1653 129.62 57.5671 129.792 57.8924 130.137C58.2368 130.481 58.409 130.902 58.409 131.4C58.409 131.897 58.2368 132.318 57.8924 132.663C57.5671 133.007 57.1653 133.179 56.6869 133.179Z" fill="#15C3D6"/>
<path d="M70.3651 133.179C69.8676 133.179 69.4467 133.007 69.1023 132.663C68.7578 132.318 68.5856 131.897 68.5856 131.4C68.5856 130.902 68.7578 130.481 69.1023 130.137C69.4467 129.792 69.8676 129.62 70.3651 129.62C70.8435 129.62 71.2453 129.792 71.5706 130.137C71.915 130.481 72.0873 130.902 72.0873 131.4C72.0873 131.897 71.915 132.318 71.5706 132.663C71.2453 133.007 70.8435 133.179 70.3651 133.179Z" fill="#15C3D6"/>
<path d="M84.0434 133.179C83.5459 133.179 83.1249 133.007 82.7805 132.663C82.4361 132.318 82.2639 131.897 82.2639 131.4C82.2639 130.902 82.4361 130.481 82.7805 130.137C83.1249 129.792 83.5459 129.62 84.0434 129.62C84.5218 129.62 84.9236 129.792 85.2489 130.137C85.5933 130.481 85.7655 130.902 85.7655 131.4C85.7655 131.897 85.5933 132.318 85.2489 132.663C84.9236 133.007 84.5218 133.179 84.0434 133.179Z" fill="#15C3D6"/>
<path d="M97.7216 133.179C97.2241 133.179 96.8032 133.007 96.4587 132.663C96.1143 132.318 95.9421 131.897 95.9421 131.4C95.9421 130.902 96.1143 130.481 96.4587 130.137C96.8032 129.792 97.2241 129.62 97.7216 129.62C98.2 129.62 98.6018 129.792 98.9271 130.137C99.2715 130.481 99.4437 130.902 99.4437 131.4C99.4437 131.897 99.2715 132.318 98.9271 132.663C98.6018 133.007 98.2 133.179 97.7216 133.179Z" fill="#15C3D6"/>
<path d="M111.4 133.179C110.902 133.179 110.481 133.007 110.137 132.663C109.793 132.318 109.62 131.897 109.62 131.4C109.62 130.902 109.793 130.481 110.137 130.137C110.481 129.792 110.902 129.62 111.4 129.62C111.878 129.62 112.28 129.792 112.605 130.137C112.95 130.481 113.122 130.902 113.122 131.4C113.122 131.897 112.95 132.318 112.605 132.663C112.28 133.007 111.878 133.179 111.4 133.179Z" fill="#15C3D6"/>
<path d="M125.078 133.179C124.581 133.179 124.16 133.007 123.815 132.663C123.471 132.318 123.299 131.897 123.299 131.4C123.299 130.902 123.471 130.481 123.815 130.137C124.16 129.792 124.581 129.62 125.078 129.62C125.556 129.62 125.958 129.792 126.284 130.137C126.628 130.481 126.8 130.902 126.8 131.4C126.8 131.897 126.628 132.318 126.284 132.663C125.958 133.007 125.556 133.179 125.078 133.179Z" fill="#15C3D6"/>
<path d="M138.756 133.179C138.259 133.179 137.838 133.007 137.493 132.663C137.149 132.318 136.977 131.897 136.977 131.4C136.977 130.902 137.149 130.481 137.493 130.137C137.838 129.792 138.259 129.62 138.756 129.62C139.235 129.62 139.637 129.792 139.962 130.137C140.306 130.481 140.478 130.902 140.478 131.4C140.478 131.897 140.306 132.318 139.962 132.663C139.637 133.007 139.235 133.179 138.756 133.179Z" fill="#15C3D6"/>
<path d="M152.435 133.179C151.937 133.179 151.516 133.007 151.172 132.663C150.827 132.318 150.655 131.897 150.655 131.4C150.655 130.902 150.827 130.481 151.172 130.137C151.516 129.792 151.937 129.62 152.435 129.62C152.913 129.62 153.315 129.792 153.64 130.137C153.985 130.481 154.157 130.902 154.157 131.4C154.157 131.897 153.985 132.318 153.64 132.663C153.315 133.007 152.913 133.179 152.435 133.179Z" fill="#15C3D6"/>
<path d="M1.97391 118.828C1.47641 118.828 1.05545 118.656 0.711031 118.312C0.366608 117.967 0.194397 117.546 0.194397 117.049C0.194397 116.551 0.366608 116.13 0.711031 115.786C1.05545 115.441 1.47641 115.269 1.97391 115.269C2.45228 115.269 2.85411 115.441 3.17939 115.786C3.52382 116.13 3.69603 116.551 3.69603 117.049C3.69603 117.546 3.52382 117.967 3.17939 118.312C2.85411 118.656 2.45228 118.828 1.97391 118.828Z" fill="#15C3D6"/>
<path d="M15.6522 118.828C15.1547 118.828 14.7337 118.656 14.3893 118.312C14.0449 117.967 13.8726 117.546 13.8726 117.049C13.8726 116.551 14.0449 116.13 14.3893 115.786C14.7337 115.441 15.1547 115.269 15.6522 115.269C16.1305 115.269 16.5324 115.441 16.8576 115.786C17.2021 116.13 17.3743 116.551 17.3743 117.049C17.3743 117.546 17.2021 117.967 16.8576 118.312C16.5324 118.656 16.1305 118.828 15.6522 118.828Z" fill="#15C3D6"/>
<path d="M29.3304 118.828C28.8329 118.828 28.4119 118.656 28.0675 118.312C27.7231 117.967 27.5509 117.546 27.5509 117.049C27.5509 116.551 27.7231 116.13 28.0675 115.786C28.4119 115.441 28.8329 115.269 29.3304 115.269C29.8088 115.269 30.2106 115.441 30.5359 115.786C30.8803 116.13 31.0525 116.551 31.0525 117.049C31.0525 117.546 30.8803 117.967 30.5359 118.312C30.2106 118.656 29.8088 118.828 29.3304 118.828Z" fill="#15C3D6"/>
<path d="M43.0087 118.828C42.5112 118.828 42.0902 118.656 41.7458 118.312C41.4013 117.967 41.2291 117.546 41.2291 117.049C41.2291 116.551 41.4013 116.13 41.7458 115.786C42.0902 115.441 42.5112 115.269 43.0087 115.269C43.487 115.269 43.8888 115.441 44.2141 115.786C44.5586 116.13 44.7308 116.551 44.7308 117.049C44.7308 117.546 44.5586 117.967 44.2141 118.312C43.8888 118.656 43.487 118.828 43.0087 118.828Z" fill="#15C3D6"/>
<path d="M56.6869 118.828C56.1894 118.828 55.7684 118.656 55.424 118.312C55.0796 117.967 54.9074 117.546 54.9074 117.049C54.9074 116.551 55.0796 116.13 55.424 115.786C55.7684 115.441 56.1894 115.269 56.6869 115.269C57.1653 115.269 57.5671 115.441 57.8924 115.786C58.2368 116.13 58.409 116.551 58.409 117.049C58.409 117.546 58.2368 117.967 57.8924 118.312C57.5671 118.656 57.1653 118.828 56.6869 118.828Z" fill="#15C3D6"/>
<path d="M70.3651 118.828C69.8676 118.828 69.4467 118.656 69.1023 118.312C68.7578 117.967 68.5856 117.546 68.5856 117.049C68.5856 116.551 68.7578 116.13 69.1023 115.786C69.4467 115.441 69.8676 115.269 70.3651 115.269C70.8435 115.269 71.2453 115.441 71.5706 115.786C71.915 116.13 72.0873 116.551 72.0873 117.049C72.0873 117.546 71.915 117.967 71.5706 118.312C71.2453 118.656 70.8435 118.828 70.3651 118.828Z" fill="#15C3D6"/>
<path d="M84.0434 118.828C83.5459 118.828 83.1249 118.656 82.7805 118.312C82.4361 117.967 82.2639 117.546 82.2639 117.049C82.2639 116.551 82.4361 116.13 82.7805 115.786C83.1249 115.441 83.5459 115.269 84.0434 115.269C84.5218 115.269 84.9236 115.441 85.2489 115.786C85.5933 116.13 85.7655 116.551 85.7655 117.049C85.7655 117.546 85.5933 117.967 85.2489 118.312C84.9236 118.656 84.5218 118.828 84.0434 118.828Z" fill="#15C3D6"/>
<path d="M97.7216 118.828C97.2241 118.828 96.8032 118.656 96.4587 118.312C96.1143 117.967 95.9421 117.546 95.9421 117.049C95.9421 116.551 96.1143 116.13 96.4587 115.786C96.8032 115.441 97.2241 115.269 97.7216 115.269C98.2 115.269 98.6018 115.441 98.9271 115.786C99.2715 116.13 99.4437 116.551 99.4437 117.049C99.4437 117.546 99.2715 117.967 98.9271 118.312C98.6018 118.656 98.2 118.828 97.7216 118.828Z" fill="#15C3D6"/>
<path d="M111.4 118.828C110.902 118.828 110.481 118.656 110.137 118.312C109.793 117.967 109.62 117.546 109.62 117.049C109.62 116.551 109.793 116.13 110.137 115.786C110.481 115.441 110.902 115.269 111.4 115.269C111.878 115.269 112.28 115.441 112.605 115.786C112.95 116.13 113.122 116.551 113.122 117.049C113.122 117.546 112.95 117.967 112.605 118.312C112.28 118.656 111.878 118.828 111.4 118.828Z" fill="#15C3D6"/>
<path d="M125.078 118.828C124.581 118.828 124.16 118.656 123.815 118.312C123.471 117.967 123.299 117.546 123.299 117.049C123.299 116.551 123.471 116.13 123.815 115.786C124.16 115.441 124.581 115.269 125.078 115.269C125.556 115.269 125.958 115.441 126.284 115.786C126.628 116.13 126.8 116.551 126.8 117.049C126.8 117.546 126.628 117.967 126.284 118.312C125.958 118.656 125.556 118.828 125.078 118.828Z" fill="#15C3D6"/>
<path d="M138.756 118.828C138.259 118.828 137.838 118.656 137.493 118.312C137.149 117.967 136.977 117.546 136.977 117.049C136.977 116.551 137.149 116.13 137.493 115.786C137.838 115.441 138.259 115.269 138.756 115.269C139.235 115.269 139.637 115.441 139.962 115.786C140.306 116.13 140.478 116.551 140.478 117.049C140.478 117.546 140.306 117.967 139.962 118.312C139.637 118.656 139.235 118.828 138.756 118.828Z" fill="#15C3D6"/>
<path d="M152.435 118.828C151.937 118.828 151.516 118.656 151.172 118.312C150.827 117.967 150.655 117.546 150.655 117.049C150.655 116.551 150.827 116.13 151.172 115.786C151.516 115.441 151.937 115.269 152.435 115.269C152.913 115.269 153.315 115.441 153.64 115.786C153.985 116.13 154.157 116.551 154.157 117.049C154.157 117.546 153.985 117.967 153.64 118.312C153.315 118.656 152.913 118.828 152.435 118.828Z" fill="#15C3D6"/>
<path d="M1.97391 104.477C1.47641 104.477 1.05545 104.305 0.711031 103.961C0.366608 103.616 0.194397 103.195 0.194397 102.698C0.194397 102.2 0.366608 101.779 0.711031 101.435C1.05545 101.091 1.47641 100.918 1.97391 100.918C2.45228 100.918 2.85411 101.091 3.17939 101.435C3.52382 101.779 3.69603 102.2 3.69603 102.698C3.69603 103.195 3.52382 103.616 3.17939 103.961C2.85411 104.305 2.45228 104.477 1.97391 104.477Z" fill="#15C3D6"/>
<path d="M15.6522 104.477C15.1547 104.477 14.7337 104.305 14.3893 103.961C14.0449 103.616 13.8726 103.195 13.8726 102.698C13.8726 102.2 14.0449 101.779 14.3893 101.435C14.7337 101.091 15.1547 100.918 15.6522 100.918C16.1305 100.918 16.5324 101.091 16.8576 101.435C17.2021 101.779 17.3743 102.2 17.3743 102.698C17.3743 103.195 17.2021 103.616 16.8576 103.961C16.5324 104.305 16.1305 104.477 15.6522 104.477Z" fill="#15C3D6"/>
<path d="M29.3304 104.477C28.8329 104.477 28.4119 104.305 28.0675 103.961C27.7231 103.616 27.5509 103.195 27.5509 102.698C27.5509 102.2 27.7231 101.779 28.0675 101.435C28.4119 101.091 28.8329 100.918 29.3304 100.918C29.8088 100.918 30.2106 101.091 30.5359 101.435C30.8803 101.779 31.0525 102.2 31.0525 102.698C31.0525 103.195 30.8803 103.616 30.5359 103.961C30.2106 104.305 29.8088 104.477 29.3304 104.477Z" fill="#15C3D6"/>
<path d="M43.0087 104.477C42.5112 104.477 42.0902 104.305 41.7458 103.961C41.4013 103.616 41.2291 103.195 41.2291 102.698C41.2291 102.2 41.4013 101.779 41.7458 101.435C42.0902 101.091 42.5112 100.918 43.0087 100.918C43.487 100.918 43.8888 101.091 44.2141 101.435C44.5586 101.779 44.7308 102.2 44.7308 102.698C44.7308 103.195 44.5586 103.616 44.2141 103.961C43.8888 104.305 43.487 104.477 43.0087 104.477Z" fill="#15C3D6"/>
<path d="M56.6869 104.477C56.1894 104.477 55.7684 104.305 55.424 103.961C55.0796 103.616 54.9074 103.195 54.9074 102.698C54.9074 102.2 55.0796 101.779 55.424 101.435C55.7684 101.091 56.1894 100.918 56.6869 100.918C57.1653 100.918 57.5671 101.091 57.8924 101.435C58.2368 101.779 58.409 102.2 58.409 102.698C58.409 103.195 58.2368 103.616 57.8924 103.961C57.5671 104.305 57.1653 104.477 56.6869 104.477Z" fill="#15C3D6"/>
<path d="M70.3651 104.477C69.8676 104.477 69.4467 104.305 69.1023 103.961C68.7578 103.616 68.5856 103.195 68.5856 102.698C68.5856 102.2 68.7578 101.779 69.1023 101.435C69.4467 101.091 69.8676 100.918 70.3651 100.918C70.8435 100.918 71.2453 101.091 71.5706 101.435C71.915 101.779 72.0873 102.2 72.0873 102.698C72.0873 103.195 71.915 103.616 71.5706 103.961C71.2453 104.305 70.8435 104.477 70.3651 104.477Z" fill="#15C3D6"/>
<path d="M84.0434 104.477C83.5459 104.477 83.1249 104.305 82.7805 103.961C82.4361 103.616 82.2639 103.195 82.2639 102.698C82.2639 102.2 82.4361 101.779 82.7805 101.435C83.1249 101.091 83.5459 100.918 84.0434 100.918C84.5218 100.918 84.9236 101.091 85.2489 101.435C85.5933 101.779 85.7655 102.2 85.7655 102.698C85.7655 103.195 85.5933 103.616 85.2489 103.961C84.9236 104.305 84.5218 104.477 84.0434 104.477Z" fill="#15C3D6"/>
<path d="M97.7216 104.477C97.2241 104.477 96.8032 104.305 96.4587 103.961C96.1143 103.616 95.9421 103.195 95.9421 102.698C95.9421 102.2 96.1143 101.779 96.4587 101.435C96.8032 101.091 97.2241 100.918 97.7216 100.918C98.2 100.918 98.6018 101.091 98.9271 101.435C99.2715 101.779 99.4437 102.2 99.4437 102.698C99.4437 103.195 99.2715 103.616 98.9271 103.961C98.6018 104.305 98.2 104.477 97.7216 104.477Z" fill="#15C3D6"/>
<path d="M111.4 104.477C110.902 104.477 110.481 104.305 110.137 103.961C109.793 103.616 109.62 103.195 109.62 102.698C109.62 102.2 109.793 101.779 110.137 101.435C110.481 101.091 110.902 100.918 111.4 100.918C111.878 100.918 112.28 101.091 112.605 101.435C112.95 101.779 113.122 102.2 113.122 102.698C113.122 103.195 112.95 103.616 112.605 103.961C112.28 104.305 111.878 104.477 111.4 104.477Z" fill="#15C3D6"/>
<path d="M125.078 104.477C124.581 104.477 124.16 104.305 123.815 103.961C123.471 103.616 123.299 103.195 123.299 102.698C123.299 102.2 123.471 101.779 123.815 101.435C124.16 101.091 124.581 100.918 125.078 100.918C125.556 100.918 125.958 101.091 126.284 101.435C126.628 101.779 126.8 102.2 126.8 102.698C126.8 103.195 126.628 103.616 126.284 103.961C125.958 104.305 125.556 104.477 125.078 104.477Z" fill="#15C3D6"/>
<path d="M138.756 104.477C138.259 104.477 137.838 104.305 137.493 103.961C137.149 103.616 136.977 103.195 136.977 102.698C136.977 102.2 137.149 101.779 137.493 101.435C137.838 101.091 138.259 100.918 138.756 100.918C139.235 100.918 139.637 101.091 139.962 101.435C140.306 101.779 140.478 102.2 140.478 102.698C140.478 103.195 140.306 103.616 139.962 103.961C139.637 104.305 139.235 104.477 138.756 104.477Z" fill="#15C3D6"/>
<path d="M152.435 104.477C151.937 104.477 151.516 104.305 151.172 103.961C150.827 103.616 150.655 103.195 150.655 102.698C150.655 102.2 150.827 101.779 151.172 101.435C151.516 101.091 151.937 100.918 152.435 100.918C152.913 100.918 153.315 101.091 153.64 101.435C153.985 101.779 154.157 102.2 154.157 102.698C154.157 103.195 153.985 103.616 153.64 103.961C153.315 104.305 152.913 104.477 152.435 104.477Z" fill="#15C3D6"/>
<path d="M1.97391 90.1264C1.47641 90.1264 1.05545 89.9542 0.711031 89.6098C0.366608 89.2653 0.194397 88.8444 0.194397 88.3469C0.194397 87.8494 0.366608 87.4284 0.711031 87.084C1.05545 86.7396 1.47641 86.5674 1.97391 86.5674C2.45228 86.5674 2.85411 86.7396 3.17939 87.084C3.52382 87.4284 3.69603 87.8494 3.69603 88.3469C3.69603 88.8444 3.52382 89.2653 3.17939 89.6098C2.85411 89.9542 2.45228 90.1264 1.97391 90.1264Z" fill="#15C3D6"/>
<path d="M15.6522 90.1264C15.1547 90.1264 14.7337 89.9542 14.3893 89.6098C14.0449 89.2653 13.8726 88.8444 13.8726 88.3469C13.8726 87.8494 14.0449 87.4284 14.3893 87.084C14.7337 86.7396 15.1547 86.5674 15.6522 86.5674C16.1305 86.5674 16.5324 86.7396 16.8576 87.084C17.2021 87.4284 17.3743 87.8494 17.3743 88.3469C17.3743 88.8444 17.2021 89.2653 16.8576 89.6098C16.5324 89.9542 16.1305 90.1264 15.6522 90.1264Z" fill="#15C3D6"/>
<path d="M29.3304 90.1264C28.8329 90.1264 28.4119 89.9542 28.0675 89.6098C27.7231 89.2653 27.5509 88.8444 27.5509 88.3469C27.5509 87.8494 27.7231 87.4284 28.0675 87.084C28.4119 86.7396 28.8329 86.5674 29.3304 86.5674C29.8088 86.5674 30.2106 86.7396 30.5359 87.084C30.8803 87.4284 31.0525 87.8494 31.0525 88.3469C31.0525 88.8444 30.8803 89.2653 30.5359 89.6098C30.2106 89.9542 29.8088 90.1264 29.3304 90.1264Z" fill="#15C3D6"/>
<path d="M43.0087 90.1264C42.5112 90.1264 42.0902 89.9542 41.7458 89.6098C41.4013 89.2653 41.2291 88.8444 41.2291 88.3469C41.2291 87.8494 41.4013 87.4284 41.7458 87.084C42.0902 86.7396 42.5112 86.5674 43.0087 86.5674C43.487 86.5674 43.8888 86.7396 44.2141 87.084C44.5586 87.4284 44.7308 87.8494 44.7308 88.3469C44.7308 88.8444 44.5586 89.2653 44.2141 89.6098C43.8888 89.9542 43.487 90.1264 43.0087 90.1264Z" fill="#15C3D6"/>
<path d="M56.6869 90.1264C56.1894 90.1264 55.7684 89.9542 55.424 89.6098C55.0796 89.2653 54.9074 88.8444 54.9074 88.3469C54.9074 87.8494 55.0796 87.4284 55.424 87.084C55.7684 86.7396 56.1894 86.5674 56.6869 86.5674C57.1653 86.5674 57.5671 86.7396 57.8924 87.084C58.2368 87.4284 58.409 87.8494 58.409 88.3469C58.409 88.8444 58.2368 89.2653 57.8924 89.6098C57.5671 89.9542 57.1653 90.1264 56.6869 90.1264Z" fill="#15C3D6"/>
<path d="M70.3651 90.1264C69.8676 90.1264 69.4467 89.9542 69.1023 89.6098C68.7578 89.2653 68.5856 88.8444 68.5856 88.3469C68.5856 87.8494 68.7578 87.4284 69.1023 87.084C69.4467 86.7396 69.8676 86.5674 70.3651 86.5674C70.8435 86.5674 71.2453 86.7396 71.5706 87.084C71.915 87.4284 72.0873 87.8494 72.0873 88.3469C72.0873 88.8444 71.915 89.2653 71.5706 89.6098C71.2453 89.9542 70.8435 90.1264 70.3651 90.1264Z" fill="#15C3D6"/>
<path d="M84.0434 90.1264C83.5459 90.1264 83.1249 89.9542 82.7805 89.6098C82.4361 89.2653 82.2639 88.8444 82.2639 88.3469C82.2639 87.8494 82.4361 87.4284 82.7805 87.084C83.1249 86.7396 83.5459 86.5674 84.0434 86.5674C84.5218 86.5674 84.9236 86.7396 85.2489 87.084C85.5933 87.4284 85.7655 87.8494 85.7655 88.3469C85.7655 88.8444 85.5933 89.2653 85.2489 89.6098C84.9236 89.9542 84.5218 90.1264 84.0434 90.1264Z" fill="#15C3D6"/>
<path d="M97.7216 90.1264C97.2241 90.1264 96.8032 89.9542 96.4587 89.6098C96.1143 89.2653 95.9421 88.8444 95.9421 88.3469C95.9421 87.8494 96.1143 87.4284 96.4587 87.084C96.8032 86.7396 97.2241 86.5674 97.7216 86.5674C98.2 86.5674 98.6018 86.7396 98.9271 87.084C99.2715 87.4284 99.4437 87.8494 99.4437 88.3469C99.4437 88.8444 99.2715 89.2653 98.9271 89.6098C98.6018 89.9542 98.2 90.1264 97.7216 90.1264Z" fill="#15C3D6"/>
<path d="M111.4 90.1264C110.902 90.1264 110.481 89.9542 110.137 89.6098C109.793 89.2653 109.62 88.8444 109.62 88.3469C109.62 87.8494 109.793 87.4284 110.137 87.084C110.481 86.7396 110.902 86.5674 111.4 86.5674C111.878 86.5674 112.28 86.7396 112.605 87.084C112.95 87.4284 113.122 87.8494 113.122 88.3469C113.122 88.8444 112.95 89.2653 112.605 89.6098C112.28 89.9542 111.878 90.1264 111.4 90.1264Z" fill="#15C3D6"/>
<path d="M125.078 90.1264C124.581 90.1264 124.16 89.9542 123.815 89.6098C123.471 89.2653 123.299 88.8444 123.299 88.3469C123.299 87.8494 123.471 87.4284 123.815 87.084C124.16 86.7396 124.581 86.5674 125.078 86.5674C125.556 86.5674 125.958 86.7396 126.284 87.084C126.628 87.4284 126.8 87.8494 126.8 88.3469C126.8 88.8444 126.628 89.2653 126.284 89.6098C125.958 89.9542 125.556 90.1264 125.078 90.1264Z" fill="#15C3D6"/>
<path d="M138.756 90.1264C138.259 90.1264 137.838 89.9542 137.493 89.6098C137.149 89.2653 136.977 88.8444 136.977 88.3469C136.977 87.8494 137.149 87.4284 137.493 87.084C137.838 86.7396 138.259 86.5674 138.756 86.5674C139.235 86.5674 139.637 86.7396 139.962 87.084C140.306 87.4284 140.478 87.8494 140.478 88.3469C140.478 88.8444 140.306 89.2653 139.962 89.6098C139.637 89.9542 139.235 90.1264 138.756 90.1264Z" fill="#15C3D6"/>
<path d="M152.435 90.1264C151.937 90.1264 151.516 89.9542 151.172 89.6098C150.827 89.2653 150.655 88.8444 150.655 88.3469C150.655 87.8494 150.827 87.4284 151.172 87.084C151.516 86.7396 151.937 86.5674 152.435 86.5674C152.913 86.5674 153.315 86.7396 153.64 87.084C153.985 87.4284 154.157 87.8494 154.157 88.3469C154.157 88.8444 153.985 89.2653 153.64 89.6098C153.315 89.9542 152.913 90.1264 152.435 90.1264Z" fill="#15C3D6"/>
<path d="M1.97391 75.7754C1.47641 75.7754 1.05545 75.6032 0.711031 75.2588C0.366608 74.9144 0.194397 74.4934 0.194397 73.9959C0.194397 73.4984 0.366608 73.0775 0.711031 72.733C1.05545 72.3886 1.47641 72.2164 1.97391 72.2164C2.45228 72.2164 2.85411 72.3886 3.17939 72.733C3.52382 73.0775 3.69603 73.4984 3.69603 73.9959C3.69603 74.4934 3.52382 74.9144 3.17939 75.2588C2.85411 75.6032 2.45228 75.7754 1.97391 75.7754Z" fill="#15C3D6"/>
<path d="M15.6522 75.7754C15.1547 75.7754 14.7337 75.6032 14.3893 75.2588C14.0449 74.9144 13.8726 74.4934 13.8726 73.9959C13.8726 73.4984 14.0449 73.0775 14.3893 72.733C14.7337 72.3886 15.1547 72.2164 15.6522 72.2164C16.1305 72.2164 16.5324 72.3886 16.8576 72.733C17.2021 73.0775 17.3743 73.4984 17.3743 73.9959C17.3743 74.4934 17.2021 74.9144 16.8576 75.2588C16.5324 75.6032 16.1305 75.7754 15.6522 75.7754Z" fill="#15C3D6"/>
<path d="M29.3304 75.7754C28.8329 75.7754 28.4119 75.6032 28.0675 75.2588C27.7231 74.9144 27.5509 74.4934 27.5509 73.9959C27.5509 73.4984 27.7231 73.0775 28.0675 72.733C28.4119 72.3886 28.8329 72.2164 29.3304 72.2164C29.8088 72.2164 30.2106 72.3886 30.5359 72.733C30.8803 73.0775 31.0525 73.4984 31.0525 73.9959C31.0525 74.4934 30.8803 74.9144 30.5359 75.2588C30.2106 75.6032 29.8088 75.7754 29.3304 75.7754Z" fill="#15C3D6"/>
<path d="M43.0087 75.7754C42.5112 75.7754 42.0902 75.6032 41.7458 75.2588C41.4013 74.9144 41.2291 74.4934 41.2291 73.9959C41.2291 73.4984 41.4013 73.0775 41.7458 72.733C42.0902 72.3886 42.5112 72.2164 43.0087 72.2164C43.487 72.2164 43.8888 72.3886 44.2141 72.733C44.5586 73.0775 44.7308 73.4984 44.7308 73.9959C44.7308 74.4934 44.5586 74.9144 44.2141 75.2588C43.8888 75.6032 43.487 75.7754 43.0087 75.7754Z" fill="#15C3D6"/>
<path d="M56.6869 75.7754C56.1894 75.7754 55.7684 75.6032 55.424 75.2588C55.0796 74.9144 54.9074 74.4934 54.9074 73.9959C54.9074 73.4984 55.0796 73.0775 55.424 72.733C55.7684 72.3886 56.1894 72.2164 56.6869 72.2164C57.1653 72.2164 57.5671 72.3886 57.8924 72.733C58.2368 73.0775 58.409 73.4984 58.409 73.9959C58.409 74.4934 58.2368 74.9144 57.8924 75.2588C57.5671 75.6032 57.1653 75.7754 56.6869 75.7754Z" fill="#15C3D6"/>
<path d="M70.3651 75.7754C69.8676 75.7754 69.4467 75.6032 69.1023 75.2588C68.7578 74.9144 68.5856 74.4934 68.5856 73.9959C68.5856 73.4984 68.7578 73.0775 69.1023 72.733C69.4467 72.3886 69.8676 72.2164 70.3651 72.2164C70.8435 72.2164 71.2453 72.3886 71.5706 72.733C71.915 73.0775 72.0873 73.4984 72.0873 73.9959C72.0873 74.4934 71.915 74.9144 71.5706 75.2588C71.2453 75.6032 70.8435 75.7754 70.3651 75.7754Z" fill="#15C3D6"/>
<path d="M84.0434 75.7754C83.5459 75.7754 83.1249 75.6032 82.7805 75.2588C82.4361 74.9144 82.2639 74.4934 82.2639 73.9959C82.2639 73.4984 82.4361 73.0775 82.7805 72.733C83.1249 72.3886 83.5459 72.2164 84.0434 72.2164C84.5218 72.2164 84.9236 72.3886 85.2489 72.733C85.5933 73.0775 85.7655 73.4984 85.7655 73.9959C85.7655 74.4934 85.5933 74.9144 85.2489 75.2588C84.9236 75.6032 84.5218 75.7754 84.0434 75.7754Z" fill="#15C3D6"/>
<path d="M97.7216 75.7754C97.2241 75.7754 96.8032 75.6032 96.4587 75.2588C96.1143 74.9144 95.9421 74.4934 95.9421 73.9959C95.9421 73.4984 96.1143 73.0775 96.4587 72.733C96.8032 72.3886 97.2241 72.2164 97.7216 72.2164C98.2 72.2164 98.6018 72.3886 98.9271 72.733C99.2715 73.0775 99.4437 73.4984 99.4437 73.9959C99.4437 74.4934 99.2715 74.9144 98.9271 75.2588C98.6018 75.6032 98.2 75.7754 97.7216 75.7754Z" fill="#15C3D6"/>
<path d="M111.4 75.7754C110.902 75.7754 110.481 75.6032 110.137 75.2588C109.793 74.9144 109.62 74.4934 109.62 73.9959C109.62 73.4984 109.793 73.0775 110.137 72.733C110.481 72.3886 110.902 72.2164 111.4 72.2164C111.878 72.2164 112.28 72.3886 112.605 72.733C112.95 73.0775 113.122 73.4984 113.122 73.9959C113.122 74.4934 112.95 74.9144 112.605 75.2588C112.28 75.6032 111.878 75.7754 111.4 75.7754Z" fill="#15C3D6"/>
<path d="M125.078 75.7754C124.581 75.7754 124.16 75.6032 123.815 75.2588C123.471 74.9144 123.299 74.4934 123.299 73.9959C123.299 73.4984 123.471 73.0775 123.815 72.733C124.16 72.3886 124.581 72.2164 125.078 72.2164C125.556 72.2164 125.958 72.3886 126.284 72.733C126.628 73.0775 126.8 73.4984 126.8 73.9959C126.8 74.4934 126.628 74.9144 126.284 75.2588C125.958 75.6032 125.556 75.7754 125.078 75.7754Z" fill="#15C3D6"/>
<path d="M138.756 75.7754C138.259 75.7754 137.838 75.6032 137.493 75.2588C137.149 74.9144 136.977 74.4934 136.977 73.9959C136.977 73.4984 137.149 73.0775 137.493 72.733C137.838 72.3886 138.259 72.2164 138.756 72.2164C139.235 72.2164 139.637 72.3886 139.962 72.733C140.306 73.0775 140.478 73.4984 140.478 73.9959C140.478 74.4934 140.306 74.9144 139.962 75.2588C139.637 75.6032 139.235 75.7754 138.756 75.7754Z" fill="#15C3D6"/>
<path d="M152.435 75.7754C151.937 75.7754 151.516 75.6032 151.172 75.2588C150.827 74.9144 150.655 74.4934 150.655 73.9959C150.655 73.4984 150.827 73.0775 151.172 72.733C151.516 72.3886 151.937 72.2164 152.435 72.2164C152.913 72.2164 153.315 72.3886 153.64 72.733C153.985 73.0775 154.157 73.4984 154.157 73.9959C154.157 74.4934 153.985 74.9144 153.64 75.2588C153.315 75.6032 152.913 75.7754 152.435 75.7754Z" fill="#15C3D6"/>
<path d="M1.97391 61.4245C1.47641 61.4245 1.05545 61.2523 0.711031 60.9079C0.366608 60.5634 0.194397 60.1425 0.194397 59.645C0.194397 59.1475 0.366608 58.7265 0.711031 58.3821C1.05545 58.0377 1.47641 57.8655 1.97391 57.8655C2.45228 57.8655 2.85411 58.0377 3.17939 58.3821C3.52382 58.7265 3.69603 59.1475 3.69603 59.645C3.69603 60.1425 3.52382 60.5634 3.17939 60.9079C2.85411 61.2523 2.45228 61.4245 1.97391 61.4245Z" fill="#15C3D6"/>
<path d="M15.6522 61.4245C15.1547 61.4245 14.7337 61.2523 14.3893 60.9079C14.0449 60.5634 13.8726 60.1425 13.8726 59.645C13.8726 59.1475 14.0449 58.7265 14.3893 58.3821C14.7337 58.0377 15.1547 57.8655 15.6522 57.8655C16.1305 57.8655 16.5324 58.0377 16.8576 58.3821C17.2021 58.7265 17.3743 59.1475 17.3743 59.645C17.3743 60.1425 17.2021 60.5634 16.8576 60.9079C16.5324 61.2523 16.1305 61.4245 15.6522 61.4245Z" fill="#15C3D6"/>
<path d="M29.3304 61.4245C28.8329 61.4245 28.4119 61.2523 28.0675 60.9079C27.7231 60.5634 27.5509 60.1425 27.5509 59.645C27.5509 59.1475 27.7231 58.7265 28.0675 58.3821C28.4119 58.0377 28.8329 57.8655 29.3304 57.8655C29.8088 57.8655 30.2106 58.0377 30.5359 58.3821C30.8803 58.7265 31.0525 59.1475 31.0525 59.645C31.0525 60.1425 30.8803 60.5634 30.5359 60.9079C30.2106 61.2523 29.8088 61.4245 29.3304 61.4245Z" fill="#15C3D6"/>
<path d="M43.0087 61.4245C42.5112 61.4245 42.0902 61.2523 41.7458 60.9079C41.4013 60.5634 41.2291 60.1425 41.2291 59.645C41.2291 59.1475 41.4013 58.7265 41.7458 58.3821C42.0902 58.0377 42.5112 57.8655 43.0087 57.8655C43.487 57.8655 43.8888 58.0377 44.2141 58.3821C44.5586 58.7265 44.7308 59.1475 44.7308 59.645C44.7308 60.1425 44.5586 60.5634 44.2141 60.9079C43.8888 61.2523 43.487 61.4245 43.0087 61.4245Z" fill="#15C3D6"/>
<path d="M56.6869 61.4245C56.1894 61.4245 55.7684 61.2523 55.424 60.9079C55.0796 60.5634 54.9074 60.1425 54.9074 59.645C54.9074 59.1475 55.0796 58.7265 55.424 58.3821C55.7684 58.0377 56.1894 57.8655 56.6869 57.8655C57.1653 57.8655 57.5671 58.0377 57.8924 58.3821C58.2368 58.7265 58.409 59.1475 58.409 59.645C58.409 60.1425 58.2368 60.5634 57.8924 60.9079C57.5671 61.2523 57.1653 61.4245 56.6869 61.4245Z" fill="#15C3D6"/>
<path d="M70.3651 61.4245C69.8676 61.4245 69.4467 61.2523 69.1023 60.9079C68.7578 60.5634 68.5856 60.1425 68.5856 59.645C68.5856 59.1475 68.7578 58.7265 69.1023 58.3821C69.4467 58.0377 69.8676 57.8655 70.3651 57.8655C70.8435 57.8655 71.2453 58.0377 71.5706 58.3821C71.915 58.7265 72.0873 59.1475 72.0873 59.645C72.0873 60.1425 71.915 60.5634 71.5706 60.9079C71.2453 61.2523 70.8435 61.4245 70.3651 61.4245Z" fill="#15C3D6"/>
<path d="M84.0434 61.4245C83.5459 61.4245 83.1249 61.2523 82.7805 60.9079C82.4361 60.5634 82.2639 60.1425 82.2639 59.645C82.2639 59.1475 82.4361 58.7265 82.7805 58.3821C83.1249 58.0377 83.5459 57.8655 84.0434 57.8655C84.5218 57.8655 84.9236 58.0377 85.2489 58.3821C85.5933 58.7265 85.7655 59.1475 85.7655 59.645C85.7655 60.1425 85.5933 60.5634 85.2489 60.9079C84.9236 61.2523 84.5218 61.4245 84.0434 61.4245Z" fill="#15C3D6"/>
<path d="M97.7216 61.4245C97.2241 61.4245 96.8032 61.2523 96.4587 60.9079C96.1143 60.5634 95.9421 60.1425 95.9421 59.645C95.9421 59.1475 96.1143 58.7265 96.4587 58.3821C96.8032 58.0377 97.2241 57.8655 97.7216 57.8655C98.2 57.8655 98.6018 58.0377 98.9271 58.3821C99.2715 58.7265 99.4437 59.1475 99.4437 59.645C99.4437 60.1425 99.2715 60.5634 98.9271 60.9079C98.6018 61.2523 98.2 61.4245 97.7216 61.4245Z" fill="#15C3D6"/>
<path d="M111.4 61.4245C110.902 61.4245 110.481 61.2523 110.137 60.9079C109.793 60.5634 109.62 60.1425 109.62 59.645C109.62 59.1475 109.793 58.7265 110.137 58.3821C110.481 58.0377 110.902 57.8655 111.4 57.8655C111.878 57.8655 112.28 58.0377 112.605 58.3821C112.95 58.7265 113.122 59.1475 113.122 59.645C113.122 60.1425 112.95 60.5634 112.605 60.9079C112.28 61.2523 111.878 61.4245 111.4 61.4245Z" fill="#15C3D6"/>
<path d="M125.078 61.4245C124.581 61.4245 124.16 61.2523 123.815 60.9079C123.471 60.5634 123.299 60.1425 123.299 59.645C123.299 59.1475 123.471 58.7265 123.815 58.3821C124.16 58.0377 124.581 57.8655 125.078 57.8655C125.556 57.8655 125.958 58.0377 126.284 58.3821C126.628 58.7265 126.8 59.1475 126.8 59.645C126.8 60.1425 126.628 60.5634 126.284 60.9079C125.958 61.2523 125.556 61.4245 125.078 61.4245Z" fill="#15C3D6"/>
<path d="M138.756 61.4245C138.259 61.4245 137.838 61.2523 137.493 60.9079C137.149 60.5634 136.977 60.1425 136.977 59.645C136.977 59.1475 137.149 58.7265 137.493 58.3821C137.838 58.0377 138.259 57.8655 138.756 57.8655C139.235 57.8655 139.637 58.0377 139.962 58.3821C140.306 58.7265 140.478 59.1475 140.478 59.645C140.478 60.1425 140.306 60.5634 139.962 60.9079C139.637 61.2523 139.235 61.4245 138.756 61.4245Z" fill="#15C3D6"/>
<path d="M152.435 61.4245C151.937 61.4245 151.516 61.2523 151.172 60.9079C150.827 60.5634 150.655 60.1425 150.655 59.645C150.655 59.1475 150.827 58.7265 151.172 58.3821C151.516 58.0377 151.937 57.8655 152.435 57.8655C152.913 57.8655 153.315 58.0377 153.64 58.3821C153.985 58.7265 154.157 59.1475 154.157 59.645C154.157 60.1425 153.985 60.5634 153.64 60.9079C153.315 61.2523 152.913 61.4245 152.435 61.4245Z" fill="#15C3D6"/>
<path d="M1.97391 47.0735C1.47641 47.0735 1.05545 46.9013 0.711031 46.5569C0.366608 46.2125 0.194397 45.7915 0.194397 45.294C0.194397 44.7965 0.366608 44.3756 0.711031 44.0311C1.05545 43.6867 1.47641 43.5145 1.97391 43.5145C2.45228 43.5145 2.85411 43.6867 3.17939 44.0311C3.52382 44.3756 3.69603 44.7965 3.69603 45.294C3.69603 45.7915 3.52382 46.2125 3.17939 46.5569C2.85411 46.9013 2.45228 47.0735 1.97391 47.0735Z" fill="#15C3D6"/>
<path d="M15.6522 47.0735C15.1547 47.0735 14.7337 46.9013 14.3893 46.5569C14.0449 46.2125 13.8726 45.7915 13.8726 45.294C13.8726 44.7965 14.0449 44.3756 14.3893 44.0311C14.7337 43.6867 15.1547 43.5145 15.6522 43.5145C16.1305 43.5145 16.5324 43.6867 16.8576 44.0311C17.2021 44.3756 17.3743 44.7965 17.3743 45.294C17.3743 45.7915 17.2021 46.2125 16.8576 46.5569C16.5324 46.9013 16.1305 47.0735 15.6522 47.0735Z" fill="#15C3D6"/>
<path d="M29.3304 47.0735C28.8329 47.0735 28.4119 46.9013 28.0675 46.5569C27.7231 46.2125 27.5509 45.7915 27.5509 45.294C27.5509 44.7965 27.7231 44.3756 28.0675 44.0311C28.4119 43.6867 28.8329 43.5145 29.3304 43.5145C29.8088 43.5145 30.2106 43.6867 30.5359 44.0311C30.8803 44.3756 31.0525 44.7965 31.0525 45.294C31.0525 45.7915 30.8803 46.2125 30.5359 46.5569C30.2106 46.9013 29.8088 47.0735 29.3304 47.0735Z" fill="#15C3D6"/>
<path d="M43.0087 47.0735C42.5112 47.0735 42.0902 46.9013 41.7458 46.5569C41.4013 46.2125 41.2291 45.7915 41.2291 45.294C41.2291 44.7965 41.4013 44.3756 41.7458 44.0311C42.0902 43.6867 42.5112 43.5145 43.0087 43.5145C43.487 43.5145 43.8888 43.6867 44.2141 44.0311C44.5586 44.3756 44.7308 44.7965 44.7308 45.294C44.7308 45.7915 44.5586 46.2125 44.2141 46.5569C43.8888 46.9013 43.487 47.0735 43.0087 47.0735Z" fill="#15C3D6"/>
<path d="M56.6869 47.0735C56.1894 47.0735 55.7684 46.9013 55.424 46.5569C55.0796 46.2125 54.9074 45.7915 54.9074 45.294C54.9074 44.7965 55.0796 44.3756 55.424 44.0311C55.7684 43.6867 56.1894 43.5145 56.6869 43.5145C57.1653 43.5145 57.5671 43.6867 57.8924 44.0311C58.2368 44.3756 58.409 44.7965 58.409 45.294C58.409 45.7915 58.2368 46.2125 57.8924 46.5569C57.5671 46.9013 57.1653 47.0735 56.6869 47.0735Z" fill="#15C3D6"/>
<path d="M70.3651 47.0735C69.8676 47.0735 69.4467 46.9013 69.1023 46.5569C68.7578 46.2125 68.5856 45.7915 68.5856 45.294C68.5856 44.7965 68.7578 44.3756 69.1023 44.0311C69.4467 43.6867 69.8676 43.5145 70.3651 43.5145C70.8435 43.5145 71.2453 43.6867 71.5706 44.0311C71.915 44.3756 72.0873 44.7965 72.0873 45.294C72.0873 45.7915 71.915 46.2125 71.5706 46.5569C71.2453 46.9013 70.8435 47.0735 70.3651 47.0735Z" fill="#15C3D6"/>
<path d="M84.0434 47.0735C83.5459 47.0735 83.1249 46.9013 82.7805 46.5569C82.4361 46.2125 82.2639 45.7915 82.2639 45.294C82.2639 44.7965 82.4361 44.3756 82.7805 44.0311C83.1249 43.6867 83.5459 43.5145 84.0434 43.5145C84.5218 43.5145 84.9236 43.6867 85.2489 44.0311C85.5933 44.3756 85.7655 44.7965 85.7655 45.294C85.7655 45.7915 85.5933 46.2125 85.2489 46.5569C84.9236 46.9013 84.5218 47.0735 84.0434 47.0735Z" fill="#15C3D6"/>
<path d="M97.7216 47.0735C97.2241 47.0735 96.8032 46.9013 96.4587 46.5569C96.1143 46.2125 95.9421 45.7915 95.9421 45.294C95.9421 44.7965 96.1143 44.3756 96.4587 44.0311C96.8032 43.6867 97.2241 43.5145 97.7216 43.5145C98.2 43.5145 98.6018 43.6867 98.9271 44.0311C99.2715 44.3756 99.4437 44.7965 99.4437 45.294C99.4437 45.7915 99.2715 46.2125 98.9271 46.5569C98.6018 46.9013 98.2 47.0735 97.7216 47.0735Z" fill="#15C3D6"/>
<path d="M111.4 47.0735C110.902 47.0735 110.481 46.9013 110.137 46.5569C109.793 46.2125 109.62 45.7915 109.62 45.294C109.62 44.7965 109.793 44.3756 110.137 44.0311C110.481 43.6867 110.902 43.5145 111.4 43.5145C111.878 43.5145 112.28 43.6867 112.605 44.0311C112.95 44.3756 113.122 44.7965 113.122 45.294C113.122 45.7915 112.95 46.2125 112.605 46.5569C112.28 46.9013 111.878 47.0735 111.4 47.0735Z" fill="#15C3D6"/>
<path d="M125.078 47.0735C124.581 47.0735 124.16 46.9013 123.815 46.5569C123.471 46.2125 123.299 45.7915 123.299 45.294C123.299 44.7965 123.471 44.3756 123.815 44.0311C124.16 43.6867 124.581 43.5145 125.078 43.5145C125.556 43.5145 125.958 43.6867 126.284 44.0311C126.628 44.3756 126.8 44.7965 126.8 45.294C126.8 45.7915 126.628 46.2125 126.284 46.5569C125.958 46.9013 125.556 47.0735 125.078 47.0735Z" fill="#15C3D6"/>
<path d="M138.756 47.0735C138.259 47.0735 137.838 46.9013 137.493 46.5569C137.149 46.2125 136.977 45.7915 136.977 45.294C136.977 44.7965 137.149 44.3756 137.493 44.0311C137.838 43.6867 138.259 43.5145 138.756 43.5145C139.235 43.5145 139.637 43.6867 139.962 44.0311C140.306 44.3756 140.478 44.7965 140.478 45.294C140.478 45.7915 140.306 46.2125 139.962 46.5569C139.637 46.9013 139.235 47.0735 138.756 47.0735Z" fill="#15C3D6"/>
<path d="M152.435 47.0735C151.937 47.0735 151.516 46.9013 151.172 46.5569C150.827 46.2125 150.655 45.7915 150.655 45.294C150.655 44.7965 150.827 44.3756 151.172 44.0311C151.516 43.6867 151.937 43.5145 152.435 43.5145C152.913 43.5145 153.315 43.6867 153.64 44.0311C153.985 44.3756 154.157 44.7965 154.157 45.294C154.157 45.7915 153.985 46.2125 153.64 46.5569C153.315 46.9013 152.913 47.0735 152.435 47.0735Z" fill="#15C3D6"/>
<path d="M1.97391 32.7226C1.47641 32.7226 1.05545 32.5504 0.711031 32.206C0.366608 31.8615 0.194397 31.4406 0.194397 30.9431C0.194397 30.4456 0.366608 30.0246 0.711031 29.6802C1.05545 29.3358 1.47641 29.1636 1.97391 29.1636C2.45228 29.1636 2.85411 29.3358 3.17939 29.6802C3.52382 30.0246 3.69603 30.4456 3.69603 30.9431C3.69603 31.4406 3.52382 31.8615 3.17939 32.206C2.85411 32.5504 2.45228 32.7226 1.97391 32.7226Z" fill="#15C3D6"/>
<path d="M15.6522 32.7226C15.1547 32.7226 14.7337 32.5504 14.3893 32.206C14.0449 31.8615 13.8726 31.4406 13.8726 30.9431C13.8726 30.4456 14.0449 30.0246 14.3893 29.6802C14.7337 29.3358 15.1547 29.1636 15.6522 29.1636C16.1305 29.1636 16.5324 29.3358 16.8576 29.6802C17.2021 30.0246 17.3743 30.4456 17.3743 30.9431C17.3743 31.4406 17.2021 31.8615 16.8576 32.206C16.5324 32.5504 16.1305 32.7226 15.6522 32.7226Z" fill="#15C3D6"/>
<path d="M29.3304 32.7226C28.8329 32.7226 28.4119 32.5504 28.0675 32.206C27.7231 31.8615 27.5509 31.4406 27.5509 30.9431C27.5509 30.4456 27.7231 30.0246 28.0675 29.6802C28.4119 29.3358 28.8329 29.1636 29.3304 29.1636C29.8088 29.1636 30.2106 29.3358 30.5359 29.6802C30.8803 30.0246 31.0525 30.4456 31.0525 30.9431C31.0525 31.4406 30.8803 31.8615 30.5359 32.206C30.2106 32.5504 29.8088 32.7226 29.3304 32.7226Z" fill="#15C3D6"/>
<path d="M43.0087 32.7226C42.5112 32.7226 42.0902 32.5504 41.7458 32.206C41.4013 31.8615 41.2291 31.4406 41.2291 30.9431C41.2291 30.4456 41.4013 30.0246 41.7458 29.6802C42.0902 29.3358 42.5112 29.1636 43.0087 29.1636C43.487 29.1636 43.8888 29.3358 44.2141 29.6802C44.5586 30.0246 44.7308 30.4456 44.7308 30.9431C44.7308 31.4406 44.5586 31.8615 44.2141 32.206C43.8888 32.5504 43.487 32.7226 43.0087 32.7226Z" fill="#15C3D6"/>
<path d="M56.6869 32.7226C56.1894 32.7226 55.7684 32.5504 55.424 32.206C55.0796 31.8615 54.9074 31.4406 54.9074 30.9431C54.9074 30.4456 55.0796 30.0246 55.424 29.6802C55.7684 29.3358 56.1894 29.1636 56.6869 29.1636C57.1653 29.1636 57.5671 29.3358 57.8924 29.6802C58.2368 30.0246 58.409 30.4456 58.409 30.9431C58.409 31.4406 58.2368 31.8615 57.8924 32.206C57.5671 32.5504 57.1653 32.7226 56.6869 32.7226Z" fill="#15C3D6"/>
<path d="M70.3651 32.7226C69.8676 32.7226 69.4467 32.5504 69.1023 32.206C68.7578 31.8615 68.5856 31.4406 68.5856 30.9431C68.5856 30.4456 68.7578 30.0246 69.1023 29.6802C69.4467 29.3358 69.8676 29.1636 70.3651 29.1636C70.8435 29.1636 71.2453 29.3358 71.5706 29.6802C71.915 30.0246 72.0873 30.4456 72.0873 30.9431C72.0873 31.4406 71.915 31.8615 71.5706 32.206C71.2453 32.5504 70.8435 32.7226 70.3651 32.7226Z" fill="#15C3D6"/>
<path d="M84.0434 32.7226C83.5459 32.7226 83.1249 32.5504 82.7805 32.206C82.4361 31.8615 82.2639 31.4406 82.2639 30.9431C82.2639 30.4456 82.4361 30.0246 82.7805 29.6802C83.1249 29.3358 83.5459 29.1636 84.0434 29.1636C84.5218 29.1636 84.9236 29.3358 85.2489 29.6802C85.5933 30.0246 85.7655 30.4456 85.7655 30.9431C85.7655 31.4406 85.5933 31.8615 85.2489 32.206C84.9236 32.5504 84.5218 32.7226 84.0434 32.7226Z" fill="#15C3D6"/>
<path d="M97.7216 32.7226C97.2241 32.7226 96.8032 32.5504 96.4587 32.206C96.1143 31.8615 95.9421 31.4406 95.9421 30.9431C95.9421 30.4456 96.1143 30.0246 96.4587 29.6802C96.8032 29.3358 97.2241 29.1636 97.7216 29.1636C98.2 29.1636 98.6018 29.3358 98.9271 29.6802C99.2715 30.0246 99.4437 30.4456 99.4437 30.9431C99.4437 31.4406 99.2715 31.8615 98.9271 32.206C98.6018 32.5504 98.2 32.7226 97.7216 32.7226Z" fill="#15C3D6"/>
<path d="M111.4 32.7226C110.902 32.7226 110.481 32.5504 110.137 32.206C109.793 31.8615 109.62 31.4406 109.62 30.9431C109.62 30.4456 109.793 30.0246 110.137 29.6802C110.481 29.3358 110.902 29.1636 111.4 29.1636C111.878 29.1636 112.28 29.3358 112.605 29.6802C112.95 30.0246 113.122 30.4456 113.122 30.9431C113.122 31.4406 112.95 31.8615 112.605 32.206C112.28 32.5504 111.878 32.7226 111.4 32.7226Z" fill="#15C3D6"/>
<path d="M125.078 32.7226C124.581 32.7226 124.16 32.5504 123.815 32.206C123.471 31.8615 123.299 31.4406 123.299 30.9431C123.299 30.4456 123.471 30.0246 123.815 29.6802C124.16 29.3358 124.581 29.1636 125.078 29.1636C125.556 29.1636 125.958 29.3358 126.284 29.6802C126.628 30.0246 126.8 30.4456 126.8 30.9431C126.8 31.4406 126.628 31.8615 126.284 32.206C125.958 32.5504 125.556 32.7226 125.078 32.7226Z" fill="#15C3D6"/>
<path d="M138.756 32.7226C138.259 32.7226 137.838 32.5504 137.493 32.206C137.149 31.8615 136.977 31.4406 136.977 30.9431C136.977 30.4456 137.149 30.0246 137.493 29.6802C137.838 29.3358 138.259 29.1636 138.756 29.1636C139.235 29.1636 139.637 29.3358 139.962 29.6802C140.306 30.0246 140.478 30.4456 140.478 30.9431C140.478 31.4406 140.306 31.8615 139.962 32.206C139.637 32.5504 139.235 32.7226 138.756 32.7226Z" fill="#15C3D6"/>
<path d="M152.435 32.7226C151.937 32.7226 151.516 32.5504 151.172 32.206C150.827 31.8615 150.655 31.4406 150.655 30.9431C150.655 30.4456 150.827 30.0246 151.172 29.6802C151.516 29.3358 151.937 29.1636 152.435 29.1636C152.913 29.1636 153.315 29.3358 153.64 29.6802C153.985 30.0246 154.157 30.4456 154.157 30.9431C154.157 31.4406 153.985 31.8615 153.64 32.206C153.315 32.5504 152.913 32.7226 152.435 32.7226Z" fill="#15C3D6"/>
<path d="M1.97391 18.3717C1.47641 18.3717 1.05545 18.1994 0.711031 17.855C0.366608 17.5106 0.194397 17.0896 0.194397 16.5921C0.194397 16.0946 0.366608 15.6737 0.711031 15.3293C1.05545 14.9848 1.47641 14.8126 1.97391 14.8126C2.45228 14.8126 2.85411 14.9848 3.17939 15.3293C3.52382 15.6737 3.69603 16.0946 3.69603 16.5921C3.69603 17.0896 3.52382 17.5106 3.17939 17.855C2.85411 18.1994 2.45228 18.3717 1.97391 18.3717Z" fill="#15C3D6"/>
<path d="M15.6522 18.3717C15.1547 18.3717 14.7337 18.1994 14.3893 17.855C14.0449 17.5106 13.8726 17.0896 13.8726 16.5921C13.8726 16.0946 14.0449 15.6737 14.3893 15.3293C14.7337 14.9848 15.1547 14.8126 15.6522 14.8126C16.1305 14.8126 16.5324 14.9848 16.8576 15.3293C17.2021 15.6737 17.3743 16.0946 17.3743 16.5921C17.3743 17.0896 17.2021 17.5106 16.8576 17.855C16.5324 18.1994 16.1305 18.3717 15.6522 18.3717Z" fill="#15C3D6"/>
<path d="M29.3304 18.3717C28.8329 18.3717 28.4119 18.1994 28.0675 17.855C27.7231 17.5106 27.5509 17.0896 27.5509 16.5921C27.5509 16.0946 27.7231 15.6737 28.0675 15.3293C28.4119 14.9848 28.8329 14.8126 29.3304 14.8126C29.8088 14.8126 30.2106 14.9848 30.5359 15.3293C30.8803 15.6737 31.0525 16.0946 31.0525 16.5921C31.0525 17.0896 30.8803 17.5106 30.5359 17.855C30.2106 18.1994 29.8088 18.3717 29.3304 18.3717Z" fill="#15C3D6"/>
<path d="M43.0087 18.3717C42.5112 18.3717 42.0902 18.1994 41.7458 17.855C41.4013 17.5106 41.2291 17.0896 41.2291 16.5921C41.2291 16.0946 41.4013 15.6737 41.7458 15.3293C42.0902 14.9848 42.5112 14.8126 43.0087 14.8126C43.487 14.8126 43.8888 14.9848 44.2141 15.3293C44.5586 15.6737 44.7308 16.0946 44.7308 16.5921C44.7308 17.0896 44.5586 17.5106 44.2141 17.855C43.8888 18.1994 43.487 18.3717 43.0087 18.3717Z" fill="#15C3D6"/>
<path d="M56.6869 18.3717C56.1894 18.3717 55.7684 18.1994 55.424 17.855C55.0796 17.5106 54.9074 17.0896 54.9074 16.5921C54.9074 16.0946 55.0796 15.6737 55.424 15.3293C55.7684 14.9848 56.1894 14.8126 56.6869 14.8126C57.1653 14.8126 57.5671 14.9848 57.8924 15.3293C58.2368 15.6737 58.409 16.0946 58.409 16.5921C58.409 17.0896 58.2368 17.5106 57.8924 17.855C57.5671 18.1994 57.1653 18.3717 56.6869 18.3717Z" fill="#15C3D6"/>
<path d="M70.3651 18.3717C69.8676 18.3717 69.4467 18.1994 69.1023 17.855C68.7578 17.5106 68.5856 17.0896 68.5856 16.5921C68.5856 16.0946 68.7578 15.6737 69.1023 15.3293C69.4467 14.9848 69.8676 14.8126 70.3651 14.8126C70.8435 14.8126 71.2453 14.9848 71.5706 15.3293C71.915 15.6737 72.0873 16.0946 72.0873 16.5921C72.0873 17.0896 71.915 17.5106 71.5706 17.855C71.2453 18.1994 70.8435 18.3717 70.3651 18.3717Z" fill="#15C3D6"/>
<path d="M84.0434 18.3717C83.5459 18.3717 83.1249 18.1994 82.7805 17.855C82.4361 17.5106 82.2639 17.0896 82.2639 16.5921C82.2639 16.0946 82.4361 15.6737 82.7805 15.3293C83.1249 14.9848 83.5459 14.8126 84.0434 14.8126C84.5218 14.8126 84.9236 14.9848 85.2489 15.3293C85.5933 15.6737 85.7655 16.0946 85.7655 16.5921C85.7655 17.0896 85.5933 17.5106 85.2489 17.855C84.9236 18.1994 84.5218 18.3717 84.0434 18.3717Z" fill="#15C3D6"/>
<path d="M97.7216 18.3717C97.2241 18.3717 96.8032 18.1994 96.4587 17.855C96.1143 17.5106 95.9421 17.0896 95.9421 16.5921C95.9421 16.0946 96.1143 15.6737 96.4587 15.3293C96.8032 14.9848 97.2241 14.8126 97.7216 14.8126C98.2 14.8126 98.6018 14.9848 98.9271 15.3293C99.2715 15.6737 99.4437 16.0946 99.4437 16.5921C99.4437 17.0896 99.2715 17.5106 98.9271 17.855C98.6018 18.1994 98.2 18.3717 97.7216 18.3717Z" fill="#15C3D6"/>
<path d="M111.4 18.3717C110.902 18.3717 110.481 18.1994 110.137 17.855C109.793 17.5106 109.62 17.0896 109.62 16.5921C109.62 16.0946 109.793 15.6737 110.137 15.3293C110.481 14.9848 110.902 14.8126 111.4 14.8126C111.878 14.8126 112.28 14.9848 112.605 15.3293C112.95 15.6737 113.122 16.0946 113.122 16.5921C113.122 17.0896 112.95 17.5106 112.605 17.855C112.28 18.1994 111.878 18.3717 111.4 18.3717Z" fill="#15C3D6"/>
<path d="M125.078 18.3717C124.581 18.3717 124.16 18.1994 123.815 17.855C123.471 17.5106 123.299 17.0896 123.299 16.5921C123.299 16.0946 123.471 15.6737 123.815 15.3293C124.16 14.9848 124.581 14.8126 125.078 14.8126C125.556 14.8126 125.958 14.9848 126.284 15.3293C126.628 15.6737 126.8 16.0946 126.8 16.5921C126.8 17.0896 126.628 17.5106 126.284 17.855C125.958 18.1994 125.556 18.3717 125.078 18.3717Z" fill="#15C3D6"/>
<path d="M138.756 18.3717C138.259 18.3717 137.838 18.1994 137.493 17.855C137.149 17.5106 136.977 17.0896 136.977 16.5921C136.977 16.0946 137.149 15.6737 137.493 15.3293C137.838 14.9848 138.259 14.8126 138.756 14.8126C139.235 14.8126 139.637 14.9848 139.962 15.3293C140.306 15.6737 140.478 16.0946 140.478 16.5921C140.478 17.0896 140.306 17.5106 139.962 17.855C139.637 18.1994 139.235 18.3717 138.756 18.3717Z" fill="#15C3D6"/>
<path d="M152.435 18.3717C151.937 18.3717 151.516 18.1994 151.172 17.855C150.827 17.5106 150.655 17.0896 150.655 16.5921C150.655 16.0946 150.827 15.6737 151.172 15.3293C151.516 14.9848 151.937 14.8126 152.435 14.8126C152.913 14.8126 153.315 14.9848 153.64 15.3293C153.985 15.6737 154.157 16.0946 154.157 16.5921C154.157 17.0896 153.985 17.5106 153.64 17.855C153.315 18.1994 152.913 18.3717 152.435 18.3717Z" fill="#15C3D6"/>
<path d="M1.97391 4.0207C1.47641 4.0207 1.05545 3.84849 0.711031 3.50407C0.366608 3.15965 0.194397 2.73869 0.194397 2.24119C0.194397 1.74369 0.366608 1.32273 0.711031 0.978304C1.05545 0.633881 1.47641 0.46167 1.97391 0.46167C2.45228 0.46167 2.85411 0.633881 3.17939 0.978304C3.52382 1.32273 3.69603 1.74369 3.69603 2.24119C3.69603 2.73869 3.52382 3.15965 3.17939 3.50407C2.85411 3.84849 2.45228 4.0207 1.97391 4.0207Z" fill="#15C3D6"/>
<path d="M15.6522 4.0207C15.1547 4.0207 14.7337 3.84849 14.3893 3.50407C14.0449 3.15965 13.8726 2.73869 13.8726 2.24119C13.8726 1.74369 14.0449 1.32273 14.3893 0.978304C14.7337 0.633881 15.1547 0.46167 15.6522 0.46167C16.1305 0.46167 16.5324 0.633881 16.8576 0.978304C17.2021 1.32273 17.3743 1.74369 17.3743 2.24119C17.3743 2.73869 17.2021 3.15965 16.8576 3.50407C16.5324 3.84849 16.1305 4.0207 15.6522 4.0207Z" fill="#15C3D6"/>
<path d="M29.3304 4.0207C28.8329 4.0207 28.4119 3.84849 28.0675 3.50407C27.7231 3.15965 27.5509 2.73869 27.5509 2.24119C27.5509 1.74369 27.7231 1.32273 28.0675 0.978304C28.4119 0.633881 28.8329 0.46167 29.3304 0.46167C29.8088 0.46167 30.2106 0.633881 30.5359 0.978304C30.8803 1.32273 31.0525 1.74369 31.0525 2.24119C31.0525 2.73869 30.8803 3.15965 30.5359 3.50407C30.2106 3.84849 29.8088 4.0207 29.3304 4.0207Z" fill="#15C3D6"/>
<path d="M43.0087 4.0207C42.5112 4.0207 42.0902 3.84849 41.7458 3.50407C41.4013 3.15965 41.2291 2.73869 41.2291 2.24119C41.2291 1.74369 41.4013 1.32273 41.7458 0.978304C42.0902 0.633881 42.5112 0.46167 43.0087 0.46167C43.487 0.46167 43.8888 0.633881 44.2141 0.978304C44.5586 1.32273 44.7308 1.74369 44.7308 2.24119C44.7308 2.73869 44.5586 3.15965 44.2141 3.50407C43.8888 3.84849 43.487 4.0207 43.0087 4.0207Z" fill="#15C3D6"/>
<path d="M56.6869 4.0207C56.1894 4.0207 55.7684 3.84849 55.424 3.50407C55.0796 3.15965 54.9074 2.73869 54.9074 2.24119C54.9074 1.74369 55.0796 1.32273 55.424 0.978304C55.7684 0.633881 56.1894 0.46167 56.6869 0.46167C57.1653 0.46167 57.5671 0.633881 57.8924 0.978304C58.2368 1.32273 58.409 1.74369 58.409 2.24119C58.409 2.73869 58.2368 3.15965 57.8924 3.50407C57.5671 3.84849 57.1653 4.0207 56.6869 4.0207Z" fill="#15C3D6"/>
<path d="M70.3651 4.0207C69.8676 4.0207 69.4467 3.84849 69.1023 3.50407C68.7578 3.15965 68.5856 2.73869 68.5856 2.24119C68.5856 1.74369 68.7578 1.32273 69.1023 0.978304C69.4467 0.633881 69.8676 0.46167 70.3651 0.46167C70.8435 0.46167 71.2453 0.633881 71.5706 0.978304C71.915 1.32273 72.0873 1.74369 72.0873 2.24119C72.0873 2.73869 71.915 3.15965 71.5706 3.50407C71.2453 3.84849 70.8435 4.0207 70.3651 4.0207Z" fill="#15C3D6"/>
<path d="M84.0434 4.0207C83.5459 4.0207 83.1249 3.84849 82.7805 3.50407C82.4361 3.15965 82.2639 2.73869 82.2639 2.24119C82.2639 1.74369 82.4361 1.32273 82.7805 0.978304C83.1249 0.633881 83.5459 0.46167 84.0434 0.46167C84.5218 0.46167 84.9236 0.633881 85.2489 0.978304C85.5933 1.32273 85.7655 1.74369 85.7655 2.24119C85.7655 2.73869 85.5933 3.15965 85.2489 3.50407C84.9236 3.84849 84.5218 4.0207 84.0434 4.0207Z" fill="#15C3D6"/>
<path d="M97.7216 4.0207C97.2241 4.0207 96.8032 3.84849 96.4587 3.50407C96.1143 3.15965 95.9421 2.73869 95.9421 2.24119C95.9421 1.74369 96.1143 1.32273 96.4587 0.978304C96.8032 0.633881 97.2241 0.46167 97.7216 0.46167C98.2 0.46167 98.6018 0.633881 98.9271 0.978304C99.2715 1.32273 99.4437 1.74369 99.4437 2.24119C99.4437 2.73869 99.2715 3.15965 98.9271 3.50407C98.6018 3.84849 98.2 4.0207 97.7216 4.0207Z" fill="#15C3D6"/>
<path d="M111.4 4.0207C110.902 4.0207 110.481 3.84849 110.137 3.50407C109.793 3.15965 109.62 2.73869 109.62 2.24119C109.62 1.74369 109.793 1.32273 110.137 0.978304C110.481 0.633881 110.902 0.46167 111.4 0.46167C111.878 0.46167 112.28 0.633881 112.605 0.978304C112.95 1.32273 113.122 1.74369 113.122 2.24119C113.122 2.73869 112.95 3.15965 112.605 3.50407C112.28 3.84849 111.878 4.0207 111.4 4.0207Z" fill="#15C3D6"/>
<path d="M125.078 4.0207C124.581 4.0207 124.16 3.84849 123.815 3.50407C123.471 3.15965 123.299 2.73869 123.299 2.24119C123.299 1.74369 123.471 1.32273 123.815 0.978304C124.16 0.633881 124.581 0.46167 125.078 0.46167C125.556 0.46167 125.958 0.633881 126.284 0.978304C126.628 1.32273 126.8 1.74369 126.8 2.24119C126.8 2.73869 126.628 3.15965 126.284 3.50407C125.958 3.84849 125.556 4.0207 125.078 4.0207Z" fill="#15C3D6"/>
<path d="M138.756 4.0207C138.259 4.0207 137.838 3.84849 137.493 3.50407C137.149 3.15965 136.977 2.73869 136.977 2.24119C136.977 1.74369 137.149 1.32273 137.493 0.978304C137.838 0.633881 138.259 0.46167 138.756 0.46167C139.235 0.46167 139.637 0.633881 139.962 0.978304C140.306 1.32273 140.478 1.74369 140.478 2.24119C140.478 2.73869 140.306 3.15965 139.962 3.50407C139.637 3.84849 139.235 4.0207 138.756 4.0207Z" fill="#15C3D6"/>
<path d="M152.435 4.0207C151.937 4.0207 151.516 3.84849 151.172 3.50407C150.827 3.15965 150.655 2.73869 150.655 2.24119C150.655 1.74369 150.827 1.32273 151.172 0.978304C151.516 0.633881 151.937 0.46167 152.435 0.46167C152.913 0.46167 153.315 0.633881 153.64 0.978304C153.985 1.32273 154.157 1.74369 154.157 2.24119C154.157 2.73869 153.985 3.15965 153.64 3.50407C153.315 3.84849 152.913 4.0207 152.435 4.0207Z" fill="#15C3D6"/>
</g>
</svg>
