<svg width="24" height="32" viewBox="0 0 24 32" fill="none" xmlns="http://www.w3.org/2000/svg">
<path d="M13.6875 20.4375C14.25 20.6875 14.75 21 15.125 21.5C15.5 22 15.6875 22.5625 15.6875 23.1875C15.6875 23.9375 15.375 24.625 14.875 25.125C14.375 25.6875 13.75 26 13 26V27.5C13 27.625 12.9375 27.75 12.8125 27.875C12.6875 28 12.625 28 12.5 28H11.5C11.375 28 11.25 28 11.125 27.875C11 27.75 11 27.625 11 27.5V26C10.25 26 9.625 25.75 9.0625 25.25C8.9375 25.1875 8.8125 25.0625 8.8125 24.9375C8.8125 24.8125 8.875 24.625 9 24.5L9.75 23.8125C9.875 23.6875 10.125 23.6875 10.375 23.8125C10.625 23.9375 10.875 24 11.1875 24H12.9375C13.125 24 13.3125 23.9375 13.4375 23.75C13.5625 23.625 13.6875 23.4375 13.6875 23.1875C13.6875 23 13.625 22.8125 13.5 22.6875C13.375 22.5625 13.25 22.4375 13.125 22.375L10.3125 21.5625C9.6875 21.375 9.25 21 8.875 20.5C8.5 20 8.3125 19.4375 8.3125 18.8125C8.3125 18.0625 8.5625 17.4375 9.0625 16.875C9.5625 16.375 10.25 16.0625 11 16V14.5C11 14.375 11 14.3125 11.125 14.1875C11.25 14.0625 11.375 14 11.5 14H12.5C12.625 14 12.6875 14.0625 12.8125 14.1875C12.9375 14.3125 13 14.375 13 14.5V16C13.6875 16.0625 14.3125 16.3125 14.9375 16.75C15.0625 16.875 15.125 17 15.125 17.125C15.125 17.25 15.125 17.375 15 17.5L14.25 18.1875C14.0625 18.375 13.875 18.375 13.625 18.25C13.375 18.125 13.0625 18 12.8125 18H11.0625C10.8125 18 10.625 18.125 10.5 18.25C10.375 18.4375 10.3125 18.625 10.3125 18.8125C10.3125 19.0625 10.3125 19.25 10.4375 19.375C10.5625 19.5 10.6875 19.625 10.875 19.625L13.6875 20.4375ZM4.5 6C4.375 6 4.25 6 4.125 5.875C4 5.75 4 5.625 4 5.5V4.5C4 4.375 4 4.3125 4.125 4.1875C4.25 4.0625 4.375 4 4.5 4H11.5C11.625 4 11.6875 4.0625 11.8125 4.1875C11.9375 4.3125 12 4.375 12 4.5V5.5C12 5.625 11.9375 5.75 11.8125 5.875C11.6875 6 11.625 6 11.5 6H4.5ZM12 9.5C12 9.625 11.9375 9.75 11.8125 9.875C11.6875 10 11.625 10 11.5 10H4.5C4.375 10 4.25 10 4.125 9.875C4 9.75 4 9.625 4 9.5V8.5C4 8.375 4 8.3125 4.125 8.1875C4.25 8.0625 4.375 8 4.5 8H11.5C11.625 8 11.6875 8.0625 11.8125 8.1875C11.9375 8.3125 12 8.375 12 8.5V9.5ZM23.125 6.125C23.6875 6.75 24 7.4375 24 8.25V29C24 29.875 23.6875 30.5625 23.125 31.125C22.5 31.75 21.8125 32 21 32H3C2.125 32 1.4375 31.75 0.875 31.125C0.25 30.5625 0 29.875 0 29V3C0 2.1875 0.25 1.5 0.875 0.875C1.4375 0.3125 2.125 0 3 0H15.75C16.5625 0 17.25 0.3125 17.875 0.875L23.125 6.125ZM16 2.0625V8H22C21.875 7.875 21.8125 7.6875 21.6875 7.5625L16.4375 2.3125C16.3125 2.1875 16.125 2.125 16 2.0625ZM22 29V10H15.5C15.0625 10 14.6875 9.875 14.4375 9.5625C14.125 9.3125 14 8.9375 14 8.5V2H3C2.6875 2 2.4375 2.125 2.25 2.3125C2.0625 2.5 2 2.75 2 3V29C2 29.3125 2.0625 29.5625 2.25 29.75C2.4375 29.9375 2.6875 30 3 30H21C21.25 30 21.5 29.9375 21.6875 29.75C21.875 29.5625 22 29.3125 22 29Z" fill="#6852ED"/>
</svg>
