<svg width="633" height="742" viewBox="0 0 633 742" fill="none" xmlns="http://www.w3.org/2000/svg">
<rect opacity="0.1" width="360" height="537" rx="180" transform="matrix(-0.71934 0.694658 0.694658 0.71934 259.687 17.0581)" fill="url(#paint0_linear)"/>
<path fill-rule="evenodd" clip-rule="evenodd" d="M412.261 296.834C407.771 288.152 384.477 226.271 375.656 204.116C353.785 149.22 379.455 144.676 379.455 144.676C408.521 138.912 406.19 160.091 414.101 183.349C424.856 214.903 432.637 253.243 439.056 285.623C440.145 291.362 414.183 300.605 412.261 296.834Z" fill="url(#paint1_linear)"/>
<path fill-rule="evenodd" clip-rule="evenodd" d="M388.036 143.713C406.065 144.896 405.306 163.323 412.071 183.258C418.835 203.193 431.316 251.477 432.373 253.145C427.298 229.406 421.362 204.792 414.041 183.315C407.007 162.675 408.072 143.657 388.036 143.713Z" fill="white"/>
<path fill-rule="evenodd" clip-rule="evenodd" d="M138.402 582.738C136.891 576.255 132.954 567.863 131.868 560.895C123.795 561.102 115.644 561.312 107.654 561.408C106.983 572.89 98.4121 575.113 88.0544 578.909C74.424 583.908 61.4295 586.444 59.0219 603.226C86.6762 603.009 113.494 601.174 141.06 599.847C140.555 594.091 139.667 588.375 138.402 582.738Z" fill="url(#paint2_linear)"/>
<path fill-rule="evenodd" clip-rule="evenodd" d="M337.978 304.474C279.796 322.518 222.85 335.298 174.341 346.047C132.388 355.367 121.789 367.135 115.836 384.761C91.3627 457.323 100.134 564.385 100.134 564.385C100.134 564.385 122.595 564.794 139.023 559.612C133.917 510.524 165.841 403.476 165.841 403.476C165.841 403.476 242.603 393.101 263.958 392.063C360.68 387.326 354.218 340.363 337.978 304.474Z" fill="url(#paint3_linear)"/>
<g style="mix-blend-mode:multiply" opacity="0.15">
<path fill-rule="evenodd" clip-rule="evenodd" d="M106.816 589.844C111.095 589.614 115.056 587.512 117.644 584.097C120.233 580.682 121.187 576.301 120.253 572.119L120.21 571.925C118.737 565.597 114.964 557.445 113.779 550.602C116.194 550.084 118.568 549.479 120.832 548.761C115.726 499.673 147.659 392.625 147.659 392.625C147.659 392.625 224.413 382.25 245.775 381.212C329.776 377.168 335.938 341.194 325.476 308.303C329.636 307.063 333.798 305.796 337.961 304.504C354.201 340.393 360.701 387.358 263.958 392.055C242.588 393.093 165.842 403.468 165.842 403.468C165.842 403.468 133.894 510.515 139.023 559.604C136.759 560.322 134.386 560.897 131.97 561.446C133.147 568.288 136.927 576.441 138.4 582.768C139.668 588.401 140.559 594.112 141.067 599.862C113.502 601.167 86.6995 603.002 59.0287 603.242C59.4941 599.131 61.0398 595.217 63.5086 591.897C77.9791 591.381 92.3331 590.597 106.816 589.844Z" fill="black"/>
</g>
<path fill-rule="evenodd" clip-rule="evenodd" d="M115.867 384.762C119.921 372.75 126.136 363.455 142.977 355.806C129.616 363 122.067 372.832 118.411 383.698C112.437 401.414 107.278 423.373 102.185 450.964C104.711 428.26 108.963 405.148 115.867 384.762Z" fill="url(#paint4_linear)"/>
<path fill-rule="evenodd" clip-rule="evenodd" d="M320.433 671.782C316.092 665.964 308.487 659.285 304.38 652.819C296.398 656.562 288.353 660.326 280.409 663.918C284.762 675.664 277.177 681.639 268.486 689.96C257.049 700.879 245.176 709.11 250.109 726.937C277.629 714.627 303.616 701.085 330.584 687.74C327.56 682.2 324.168 676.869 320.433 671.782Z" fill="url(#paint5_linear)"/>
<path fill-rule="evenodd" clip-rule="evenodd" d="M335.758 307.13C294.167 358.916 277.998 380.121 240.715 419.447C208.472 453.455 206.064 470.544 211.435 490.092C233.561 570.602 274.179 670.118 274.179 670.118C274.179 670.118 296.801 660.722 310.94 648.364C284.376 601.568 267.995 476.478 267.995 476.478C267.995 476.478 303.529 445.322 322.213 431.366C406.826 368.16 372.325 329.663 335.758 307.13Z" fill="url(#paint6_linear)"/>
<g style="mix-blend-mode:multiply" opacity="0.15">
<path fill-rule="evenodd" clip-rule="evenodd" d="M295.552 692.323C299.743 690.232 302.795 686.395 303.888 681.841C304.981 677.287 304.005 672.483 301.22 668.717L301.091 668.541C296.858 662.868 289.52 656.371 285.351 650.056C287.537 648.489 289.651 646.841 291.598 645.146C265.033 598.343 248.676 473.246 248.676 473.246C248.676 473.246 284.21 442.09 302.894 428.135C376.321 373.257 359.999 337.011 330.495 313.634C332.257 311.469 334.019 309.294 335.782 307.108C372.349 329.642 406.851 368.138 322.267 431.354C303.583 445.317 268.05 476.465 268.05 476.465C268.05 476.465 284.43 601.555 310.995 648.351C309.047 650.054 306.942 651.702 304.756 653.269C308.924 659.584 316.262 666.088 320.495 671.754C324.231 676.841 327.623 682.173 330.647 687.713C303.679 701.058 277.715 714.601 250.171 726.91C249.014 723.083 248.738 719.045 249.362 715.096C264.915 707.71 280.15 700.062 295.552 692.323Z" fill="black"/>
</g>
<path fill-rule="evenodd" clip-rule="evenodd" d="M232.755 428.191C232.773 429.604 208.005 456.356 213.046 483.833C216.544 502.944 231.322 552.67 231.283 554.288C224.114 532.988 217.155 510.908 211.435 490.099C206.548 472.297 208.088 456.529 232.755 428.191Z" fill="url(#paint7_linear)"/>
<path fill-rule="evenodd" clip-rule="evenodd" d="M185.83 128.439L227.254 261.077L221.601 266.371C208.998 278.15 188.353 270.772 186.07 253.682L169.553 130.466L185.83 128.439Z" fill="url(#paint8_linear)"/>
<path fill-rule="evenodd" clip-rule="evenodd" d="M223.19 264.919C231.11 259.145 255.6 223.924 273.03 207.676C326.895 157.424 289.346 138.978 289.346 138.978C279.023 129.937 262.548 155.235 247.97 171.855C225.993 196.926 227.745 196.902 207.506 222.955C203.884 227.602 219.765 267.427 223.19 264.919Z" fill="url(#paint9_linear)"/>
<g style="mix-blend-mode:multiply" opacity="0.15">
<path fill-rule="evenodd" clip-rule="evenodd" d="M275.909 195.218C260.845 209.272 240.499 237.499 230.149 248.621C228.917 250.019 227.565 251.308 226.108 252.471L226.005 252.519L224.512 253.915C211.908 265.694 191.263 258.316 188.98 241.226L174.083 129.874L169.61 130.407L186.062 253.682C188.353 270.771 208.99 278.149 221.594 266.371L223.087 264.975C223.125 264.964 223.161 264.944 223.19 264.918C224.649 263.761 226.001 262.475 227.231 261.076C237.581 249.955 257.927 221.727 272.991 207.674C294.878 187.252 301.67 172.082 302.022 161.273C298.294 170.423 290.417 181.681 275.909 195.218Z" fill="black"/>
</g>
<path fill-rule="evenodd" clip-rule="evenodd" d="M402.937 155.635C403.983 146.967 394.186 135.811 345.883 136.19C297.788 136.564 278.248 133.014 277.698 141.754L269.75 327.689C269.273 335.028 274.605 334.087 280.979 334.674L325.414 338.792L326.827 338.928L371.262 343.045C377.636 343.633 383.531 338.237 384.42 330.942L381.635 313.758L402.937 155.635Z" fill="url(#paint10_linear)"/>
<g style="mix-blend-mode:multiply" opacity="0.15">
<path fill-rule="evenodd" clip-rule="evenodd" d="M360.663 301.924C389.139 288.236 381.803 208.439 381.803 208.439C381.803 208.439 387.694 235.961 392.922 229.962L381.62 313.757L384.405 330.942C383.516 338.236 377.597 343.638 371.247 343.045L326.812 338.927L325.398 338.791L280.963 334.673C274.591 334.078 269.258 335.027 269.735 327.689L269.825 309.119C291.101 322.189 336.839 317.998 360.663 301.924Z" fill="black"/>
</g>
<path fill-rule="evenodd" clip-rule="evenodd" d="M278.984 156.764L275.813 245.109C275.109 255.14 273.837 265.123 272.004 275.009C272.004 275.009 278.104 159.06 278.984 156.764Z" fill="white"/>
<g style="mix-blend-mode:multiply" opacity="0.1">
<path fill-rule="evenodd" clip-rule="evenodd" d="M339.268 370.985L338.806 370.431L337.004 372.717C337.772 372.135 338.523 371.576 339.268 370.985Z" fill="#231F20"/>
</g>
<g style="mix-blend-mode:overlay">
<path fill-rule="evenodd" clip-rule="evenodd" d="M372.454 144.632C369.838 143.412 361.579 137.504 358.692 136.907C357.008 144.575 354.47 158.854 340.936 158.514C326.102 155.256 327.376 142.976 327.529 140.918C326.252 141.266 322.407 144.312 321.971 144.42C310.401 152.145 311.44 169.538 321.579 179.437C327.362 174.158 333.076 166.517 339.319 161.523C336.172 169.697 333.502 183.571 333.502 183.571L338.955 184.287C338.955 184.287 342.356 169.069 344.211 161.803C350.337 166.216 353.403 171.898 355.435 178.838C362.736 170.222 375.759 156.292 372.454 144.632Z" fill="#231F20"/>
</g>
<path fill-rule="evenodd" clip-rule="evenodd" d="M324.406 113.342L344.359 101.549L366.884 101.624C366.884 101.624 350.465 134.034 360.452 144.64C369.13 153.856 350.069 160.344 339.58 156.692C329.09 153.04 315.759 152.18 325.498 139.391C329.306 134.423 324.406 113.342 324.406 113.342Z" fill="#FFD4D4"/>
<g style="mix-blend-mode:overlay">
<path fill-rule="evenodd" clip-rule="evenodd" d="M349.43 107.351L355.637 115.355C357.147 111.177 358.884 107.085 360.84 103.096L341.839 103.037L344.359 101.541L366.884 101.616C363.881 107.739 361.403 114.105 359.475 120.647C359.313 121.245 358.859 123.018 357.931 127.246C358.396 126.871 358.356 126.915 357.931 127.246C356.686 134.169 356.868 140.797 360.454 144.609C366.629 151.176 358.748 156.353 349.905 157.471C355.68 155.255 359.095 151.042 354.41 146.089C351.339 142.857 350.767 137.513 351.439 131.721C344.206 136.256 332.945 141.901 326.338 138.153C326.793 136.651 326.984 135.081 326.904 133.514C326.763 130.642 349.43 107.351 349.43 107.351Z" fill="#231F20"/>
</g>
<path fill-rule="evenodd" clip-rule="evenodd" d="M323.893 44.2998C330.106 43.0707 336.519 43.2912 342.633 44.9441C351.782 47.2203 362.058 49.5326 369.866 54.9636C381.246 62.8701 369.035 90.6025 367.491 103.214C367.269 106.43 366.649 109.606 365.644 112.67C364.129 116.675 349.6 132.223 336.636 134.039C315.134 134.08 306.937 131.661 307.325 124.548C307.737 116.684 311.846 65.5371 312.642 59.8659C315.528 50.2269 311.729 46.6723 323.893 44.2998Z" fill="#FFD4D4"/>
<g style="mix-blend-mode:overlay">
<path fill-rule="evenodd" clip-rule="evenodd" d="M356.506 117.22C357.516 114.158 358.139 110.982 358.361 107.765C359.899 95.13 372.109 67.4052 360.736 59.5145C352.92 54.0831 342.652 51.7712 333.495 49.4945C327.484 47.8703 321.182 47.6319 315.065 48.7974C316.117 46.7409 318.314 45.4125 323.891 44.3303C330.105 43.1012 336.518 43.3217 342.632 44.9746C351.781 47.2509 362.056 49.5631 369.865 54.9942C381.245 62.9006 369.034 90.633 367.49 103.245C367.268 106.461 366.647 109.637 365.643 112.7C364.27 116.329 352.219 129.435 340.319 133.211C348.636 127.757 355.498 119.909 356.506 117.22Z" fill="#231F20"/>
</g>
<path fill-rule="evenodd" clip-rule="evenodd" d="M370.991 141.775C368.375 140.555 360.115 134.655 357.236 134.059C355.545 141.726 353.015 156.006 339.48 155.665C324.639 152.4 325.92 140.12 326.074 138.07C324.789 138.417 320.943 141.464 320.516 141.564C308.938 149.296 309.946 166.687 320.124 176.581C325.906 171.309 331.62 163.669 337.856 158.675C334.717 166.841 333.48 183.57 333.48 183.57L338.932 184.285C338.932 184.285 340.879 166.189 342.703 158.929C348.822 163.342 351.887 169.024 353.919 175.964C361.273 167.373 374.304 153.436 370.991 141.775Z" fill="url(#paint11_linear)"/>
<path fill-rule="evenodd" clip-rule="evenodd" d="M354.897 143.097C355.856 140.134 356.637 137.116 357.236 134.059L357.494 134.126C356.884 137.185 356.015 140.186 354.897 143.097Z" fill="white"/>
<path fill-rule="evenodd" clip-rule="evenodd" d="M343.385 157.191C349.474 161.587 352.578 167.278 354.61 174.219C359.519 168.448 367.004 160.279 370.363 152.009C367.388 160.867 359.18 169.797 353.919 175.972C351.913 169.117 348.891 163.491 342.917 159.101C343.099 158.404 343.24 157.759 343.385 157.191Z" fill="white"/>
<path fill-rule="evenodd" clip-rule="evenodd" d="M313.815 149.567C311.153 157.874 313.821 168.073 320.754 174.817C326.536 169.538 332.25 161.898 338.494 156.903C335.347 165.078 334.117 181.806 334.117 181.806L339.12 182.452C338.992 183.582 338.918 184.262 338.918 184.262L333.465 183.546C333.465 183.546 334.68 166.816 337.841 158.651C331.606 163.645 325.892 171.285 320.11 176.557C312.672 169.333 310.135 158.105 313.815 149.567Z" fill="white"/>
<path fill-rule="evenodd" clip-rule="evenodd" d="M328.943 309.982L417.759 265.195L433.544 276.956C437.966 280.257 440.162 285.76 439.229 291.199C438.296 296.638 434.391 301.093 429.122 302.732L340.171 328.416L328.943 309.982Z" fill="url(#paint12_linear)"/>
<path fill-rule="evenodd" clip-rule="evenodd" d="M176.226 100.854C178.229 104.391 181.395 108.895 183.704 102.482C184.262 100.929 183.643 97.0499 184.951 95.9743C187.222 94.1046 188.314 98.6154 188.855 100.318C192.701 112.344 191.965 128.891 178.843 134.439C168.979 138.636 159.405 130.548 154.691 122.623C150.061 114.847 148.777 105.804 153.578 97.9928C154.847 95.9093 156.314 94.2969 157.223 92.1792C158.133 90.0615 158.483 88.0681 159.584 86.114C160.227 84.9729 163.079 81.1064 164.444 81.2778C166.145 81.4975 167.858 85.296 168.559 86.569C171.019 90.9211 173.26 95.4768 175.663 99.8797L176.226 100.854Z" fill="#FFD4D4"/>
<g style="mix-blend-mode:overlay">
<path fill-rule="evenodd" clip-rule="evenodd" d="M184.543 99.9611C188.382 111.987 187.653 128.535 174.523 134.082C173.067 134.709 171.516 135.087 169.934 135.2C172.903 135.93 176.029 135.667 178.834 134.454C191.927 128.882 192.693 112.359 188.846 100.333C188.306 98.6303 187.215 94.1042 184.943 95.9892C184.389 96.4439 184.185 97.4084 184.083 98.4857C184.277 99.0334 184.425 99.5633 184.543 99.9611Z" fill="#231F20"/>
</g>
<g style="mix-blend-mode:overlay">
<path fill-rule="evenodd" clip-rule="evenodd" d="M164.25 86.1587C166.709 90.5109 175.29 103.039 178.419 104.132C177.589 103.109 176.854 102.012 176.226 100.854L175.665 99.849C173.262 95.446 171.02 90.8827 168.561 86.5382C167.858 85.2882 166.147 81.4667 164.446 81.247C163.871 81.2169 163.058 81.8039 162.237 82.667C162.973 83.7919 163.645 84.9577 164.25 86.1587Z" fill="#231F20"/>
</g>
<path fill-rule="evenodd" clip-rule="evenodd" d="M398.507 71.0922C399.746 67.6785 400.352 64.0671 400.294 60.4358C400.126 52.5027 398.912 43.8851 392.685 38.299C390.059 35.9499 385.16 30.8403 381.277 31.8193C381.697 31.7184 378.346 25.3308 378.045 24.9158C376.43 22.7597 374.284 21.0597 371.815 19.9821C366.668 17.6852 360.547 17.9941 355.024 18.0348C346.574 18.0988 337.147 18.3572 329.254 21.7061C321.747 24.8909 319.431 30.4056 316.234 37.3254C313.853 42.4835 308.897 44.1587 303.813 45.4818C303.531 47.1947 304.619 48.8565 305.882 49.9517C307.739 51.5847 308.891 51.146 306.498 52.8481C303.389 55.0424 297.381 55.0962 294.182 53.4388C294.121 56.3535 296.499 59.7799 298.424 61.8619C300.386 64.0457 302.461 66.1254 304.64 68.0925C309.869 72.6435 323.256 76.2322 334.449 74.9683C338.148 74.5556 341.804 73.818 345.481 73.2429C349.941 72.5322 354.23 71.7203 358.193 69.5169C360.564 68.213 362.05 65.9489 364.408 64.4676C362.668 72.6079 361.713 79.9984 362.208 88.2788C362.436 92.1301 362.527 96.8418 363.144 101.328C370.247 97.4202 377.653 94.0901 385.289 91.3697C390.52 85.3244 395.823 78.6531 398.507 71.0922Z" fill="url(#paint13_linear)"/>
<g style="mix-blend-mode:multiply" opacity="0.1">
<path fill-rule="evenodd" clip-rule="evenodd" d="M294.171 53.4923C297.371 55.1496 303.378 55.0959 306.488 52.9015C308.881 51.1994 307.768 51.6172 305.872 50.0051C304.601 48.9096 303.513 47.2477 303.803 45.5352C308.014 44.4352 312.139 43.0926 314.78 39.7296C313.46 42.7933 311.494 45.2933 307.637 46.2046C309.206 50.1261 313.419 50.6156 316.881 53.2696C312.805 53.8238 310.021 56.2579 305.945 56.8122C317.777 67.6755 333.342 67.6619 348.361 63.5731C358.308 60.1323 365.92 54.9489 370.805 44.9693C367.587 60.3575 363.265 84.0882 377.056 94.6318C372.293 96.6178 367.645 98.8685 363.134 101.374C362.479 96.8856 362.426 92.1759 362.198 88.3246C361.703 80.0442 362.658 72.6537 364.398 64.5134C362.02 65.9245 360.533 68.2193 358.182 69.5627C354.228 71.7665 349.931 72.5779 345.471 73.2887C341.794 73.8638 338.138 74.609 334.439 75.0141C323.246 76.278 309.858 72.6893 304.63 68.1383C302.451 66.1711 300.376 64.0914 298.414 61.9077C296.452 59.793 294.113 56.3687 294.171 53.4923Z" fill="#231F20"/>
</g>
<path fill-rule="evenodd" clip-rule="evenodd" d="M308.144 68.3376C301.399 63.7148 295.815 57.2947 294.171 53.4921C294.111 56.4068 296.488 59.8332 298.414 61.9152C300.376 64.0989 302.45 66.1786 304.629 68.1457C308.92 71.8413 318.695 74.9183 328.245 75.2422C319.89 74.382 312.258 71.1486 308.144 68.3376Z" fill="url(#paint14_linear)"/>
<path fill-rule="evenodd" clip-rule="evenodd" d="M305.912 49.9687C307.769 51.6018 308.921 51.163 306.528 52.8651C304.719 53.9834 302.637 54.581 300.51 54.5922C303.696 55.1816 307.666 54.7369 310.01 53.0937C312.354 51.4504 311.283 51.809 309.394 50.1973C308.131 49.1022 307.035 47.4399 307.325 45.7274C312.401 44.3963 317.357 42.721 319.738 37.5706C322.943 30.6435 325.251 25.1284 332.758 21.9513C340.689 18.6045 350.071 18.3436 358.52 18.2797C360.587 18.2651 362.732 18.2086 364.887 18.2678C361.601 18.0055 358.302 17.9326 355.008 18.0495C346.558 18.1135 337.131 18.3719 329.238 21.7208C321.731 24.9055 319.414 30.4202 316.218 37.3401C313.836 42.4981 308.88 44.1734 303.797 45.4965C303.554 47.2114 304.641 48.8732 305.912 49.9687Z" fill="url(#paint15_linear)"/>
<path fill-rule="evenodd" clip-rule="evenodd" d="M308.201 316.904C312.235 316.417 317.618 315.24 312.592 310.638C311.376 309.523 307.554 308.593 307.071 306.963C306.228 304.154 310.799 304.855 312.586 305.04C325.159 306.145 340.107 313.224 340.198 327.458C340.264 338.211 329.101 343.884 319.973 345.172C311.007 346.437 302.175 344.132 296.791 336.678C295.359 334.698 294.442 332.715 292.838 331.095C291.233 329.476 289.527 328.342 288.153 326.573C287.347 325.54 284.883 321.418 285.567 320.225C286.413 318.734 290.611 318.639 292.033 318.468C296.993 317.883 302.062 317.573 307.057 317.052L308.201 316.904Z" fill="#FFD4D4"/>
<g style="mix-blend-mode:overlay">
<path fill-rule="evenodd" clip-rule="evenodd" d="M310.58 308.874C323.154 309.971 338.102 317.051 338.185 331.291C338.201 332.875 337.952 334.45 337.449 335.952C339.266 333.495 340.231 330.513 340.198 327.458C340.107 313.224 325.19 306.146 312.586 305.04C310.797 304.885 306.228 304.154 307.071 306.963C307.273 307.657 308.088 308.221 309.044 308.732C309.633 308.779 310.175 308.838 310.58 308.874Z" fill="#231F20"/>
</g>
<g style="mix-blend-mode:overlay">
<path fill-rule="evenodd" clip-rule="evenodd" d="M290.029 322.279C294.989 321.687 309.855 318.604 312.073 316.147C310.805 316.516 309.507 316.769 308.194 316.904L307.051 317.028C302.064 317.535 296.987 317.86 292.026 318.445C290.604 318.616 286.422 318.712 285.561 320.202C285.281 320.702 285.536 321.698 285.994 322.774C287.329 322.533 288.676 322.368 290.029 322.279Z" fill="#231F20"/>
</g>
<path fill-rule="evenodd" clip-rule="evenodd" d="M335.541 79.6175L356.017 80.6906C357.942 80.7914 359.42 82.4331 359.319 84.3574L358.711 95.9509C358.611 97.8752 356.969 99.3534 355.045 99.2525L334.538 98.1778C332.613 98.0769 331.135 96.4353 331.236 94.511L331.844 82.9175C331.892 81.9881 332.31 81.1166 333.005 80.4969C333.699 79.8772 334.612 79.5606 335.541 79.6175ZM334.285 93.327C334.207 94.8157 335.351 96.0857 336.839 96.1638L353.02 97.0117C353.735 97.0513 354.437 96.8039 354.969 96.3245C355.502 95.8451 355.821 95.1731 355.856 94.4575L356.324 85.5365C356.393 84.0546 355.25 82.7961 353.769 82.7227L337.588 81.8748C336.102 81.7969 334.834 82.9358 334.752 84.4213L334.285 93.327Z" fill="url(#paint16_linear)"/>
<path fill-rule="evenodd" clip-rule="evenodd" d="M306.687 78.1051L323.664 78.9949C325.249 79.0779 326.463 80.6773 326.361 82.6299L325.753 94.2235C325.653 96.1455 324.277 97.6399 322.691 97.5568L305.715 96.6671C304.122 96.5836 302.916 94.9847 303.018 93.032L303.626 81.4384C303.726 79.5164 305.095 78.0217 306.687 78.1051ZM305.531 91.8199C305.451 93.3514 306.385 94.5676 307.618 94.6322L321.011 95.3341C322.244 95.3987 323.302 94.2486 323.381 92.7554L323.848 83.8343C323.926 82.3488 322.994 81.0944 321.761 81.0298L308.368 80.3278C307.135 80.2632 306.076 81.4133 305.999 82.8989L305.531 91.8199Z" fill="url(#paint17_linear)"/>
<rect width="10.927" height="3.31261" transform="matrix(-0.99863 -0.052336 -0.052336 0.99863 334.644 86.4888)" fill="url(#paint18_linear)"/>
<path fill-rule="evenodd" clip-rule="evenodd" d="M359.128 88.586L370.454 89.1795L372.518 85.0952L359.347 84.405L359.128 88.586Z" fill="url(#paint19_linear)"/>
<path fill-rule="evenodd" clip-rule="evenodd" d="M383.995 91.4478C385.841 97.6875 378.969 104.86 372.513 103.953C366.057 103.047 366.937 102.079 366.937 102.079C366.937 102.079 369.172 83.1537 375.626 84.1062C382.08 85.0587 382.092 84.9749 383.995 91.4478Z" fill="#FFD4D4"/>
<g style="mix-blend-mode:overlay">
<path fill-rule="evenodd" clip-rule="evenodd" d="M371.111 87.1944C371.413 87.1441 371.721 87.137 372.025 87.1732C378.481 88.0874 378.481 88.0874 380.394 94.5225C381.215 97.3221 380.291 100.299 378.432 102.659C376.644 103.702 374.564 104.132 372.509 103.884C366.053 102.97 366.925 102.01 366.925 102.01C366.925 102.01 368.083 92.3646 371.111 87.1944Z" fill="#231F20"/>
</g>
<g style="mix-blend-mode:screen">
<path fill-rule="evenodd" clip-rule="evenodd" d="M254.795 357.645L404.784 365.506L415.909 99.3118L260.157 255.348L254.795 357.645Z" fill="url(#paint20_linear)"/>
</g>
<g style="mix-blend-mode:screen">
<path fill-rule="evenodd" clip-rule="evenodd" d="M433.547 83.978L279.014 79.2531L102.756 245.593L263.914 254.039L433.547 83.978Z" fill="url(#paint21_linear)"/>
</g>
<path fill-rule="evenodd" clip-rule="evenodd" d="M218.106 347.566L326.805 353.262C330.11 353.436 332.649 356.252 332.48 359.557C332.307 362.864 329.485 365.404 326.178 365.231L217.441 359.532C214.159 359.335 211.648 356.532 211.812 353.248C211.891 351.659 212.599 350.167 213.78 349.101C214.961 348.035 216.518 347.482 218.106 347.566V347.566Z" fill="#D6D6D6"/>
<rect width="156.367" height="121.355" rx="22.4" transform="matrix(-0.99863 -0.052336 -0.052336 0.99863 263.933 240.448)" fill="#D6D6D6"/>
<rect width="156.367" height="121.355" rx="22.4" transform="matrix(-0.99863 -0.052336 -0.052336 0.99863 259.139 240.196)" fill="white"/>
<path fill-rule="evenodd" clip-rule="evenodd" d="M161.208 293.053C160.96 297.43 163.376 301.524 167.328 303.424C171.279 305.323 175.986 304.652 179.249 301.724C182.512 298.797 183.688 294.19 182.227 290.056C180.765 285.923 176.956 283.079 172.577 282.852C166.625 282.54 161.541 287.101 161.208 293.053Z" fill="url(#paint22_linear)"/>
<path opacity="0.2" fill-rule="evenodd" clip-rule="evenodd" d="M410.003 459.475C359.069 462.434 303.642 457.955 259.317 448.368C252.733 447.693 251.251 452.668 250.954 455.701L248.173 506.863C248.118 512.32 250.94 516.491 255.549 517.762C299.867 527.348 355.302 531.835 406.235 528.876C411.389 528.434 415.465 524.326 415.866 519.168L418.648 467.998C418.675 461.903 414.326 459.333 410.003 459.475ZM316.595 473.93C317.113 473.667 317.692 473.549 318.272 473.588C336.21 475.334 354.717 476.319 373.123 476.462C374.38 476.452 375.496 477.263 375.874 478.461C376.253 479.66 375.804 480.965 374.769 481.678C374.204 482.106 373.516 482.339 372.807 482.343C354.386 482.207 335.886 481.222 317.948 479.468C314.34 478.734 314.729 474.961 316.595 473.93ZM277.966 505.991C288.623 507.77 298.711 500.167 300.447 489.032C303.404 469.975 281.846 453.787 267.015 463.952C252.782 473.711 257.133 501.313 277.966 505.991ZM370.578 510.368C369.854 511.022 368.913 511.383 367.937 511.381C350.841 511.161 333.683 510.216 317.013 508.605C313.355 508.068 312.602 503.836 315.088 502.116C315.775 501.658 316.6 501.451 317.422 501.532C334.083 503.173 351.243 504.072 368.347 504.308C371.905 504.533 372.813 508.312 370.555 510.375L370.578 510.368ZM392.767 498.393C393.753 498.349 394.688 497.948 395.399 497.264L395.375 497.27C397.187 495.522 397.295 491.558 393.163 491.28C368.121 491.973 343.06 491.113 318.125 488.707C317.422 488.653 316.717 488.788 316.085 489.099C313.807 490.362 313.329 494.944 317.729 495.819C342.665 498.222 367.725 499.082 392.767 498.393Z" fill="white"/>
<path opacity="0.2" fill-rule="evenodd" clip-rule="evenodd" d="M265.308 498.293C277.711 512.765 299.332 505.62 300.36 486.724C300.986 474.785 292.033 463.489 280.349 461.541C258.176 458.989 253.824 484.891 265.308 498.293ZM289.361 490.885L289.278 492.485C289.27 493.014 289.034 493.513 288.631 493.855C288.227 494.196 287.695 494.345 287.173 494.264C281.436 493.395 275.803 492.455 270.313 491.438C269.208 491.187 268.451 490.17 268.526 489.04L268.61 487.44C268.619 485.661 269.952 484.167 271.718 483.956L274.596 483.692C275.808 484.924 277.377 485.742 279.081 486.031C280.679 486.326 282.329 486.036 283.731 485.215C287.659 486.88 289.477 487.658 289.361 490.885ZM283.554 483.566C284.836 482.631 285.687 481.218 285.912 479.647C287.01 473.623 280.512 468.391 275.673 471.647C270.834 474.902 273.115 483.53 279.102 484.611C280.666 484.878 282.272 484.501 283.554 483.566Z" fill="white"/>
<path opacity="0.5" fill-rule="evenodd" clip-rule="evenodd" d="M406.594 355.278C440.447 359.608 474.607 361.062 508.706 359.624C513.057 359.537 517.442 362.163 517.43 368.244L514.359 424.797C513.96 429.971 509.82 434.066 504.641 434.408C470.542 435.846 436.382 434.392 402.529 430.062C397.418 429.111 394.135 425.1 394.171 419.726L397.242 363.181C397.788 357.888 401.371 354.867 406.594 355.278ZM449.619 383.671L448.201 409.704C455.079 406.079 464.204 401.183 471.032 397.486C464.574 393.393 456.019 387.846 449.619 383.671Z" fill="#EB008B"/>
<path fill-rule="evenodd" clip-rule="evenodd" d="M265.151 498.5C253.508 484.913 257.925 458.654 280.403 461.237C292.217 463.215 301.323 474.665 300.696 486.764C299.645 505.936 277.728 513.173 265.151 498.5ZM277.99 505.685C288.494 507.441 298.439 499.938 300.151 488.963L300.12 488.961C303.056 470.164 281.8 454.23 267.184 464.245C253.151 473.853 257.445 501.076 277.99 505.685Z" fill="white"/>
<path fill-rule="evenodd" clip-rule="evenodd" d="M373.131 476.447C354.71 476.319 336.217 475.334 318.28 473.573C314.863 473.578 314.6 476.843 315.925 478.371C316.439 478.976 317.168 479.358 317.958 479.437C335.897 481.145 354.411 482.169 372.816 482.312C375.764 482.19 376.89 479.017 375.228 477.317C374.674 476.759 373.919 476.445 373.131 476.447Z" fill="white"/>
<path fill-rule="evenodd" clip-rule="evenodd" d="M395.132 491.813C394.528 491.453 393.836 491.265 393.133 491.271C368.101 491.965 343.05 491.109 318.125 488.707C313.977 488.72 313.655 492.673 315.262 494.538C315.894 495.266 316.777 495.729 317.736 495.835C342.672 498.238 367.732 499.097 392.774 498.409C397.266 497.822 397.284 493.224 395.132 491.813Z" fill="white"/>
<path fill-rule="evenodd" clip-rule="evenodd" d="M370.583 505.139C369.944 504.618 369.148 504.328 368.323 504.314C351.219 504.093 334.061 503.141 317.398 501.538C313.876 501.353 312.608 505.042 314.553 507.332C315.179 508.057 316.059 508.516 317.012 508.613C333.681 510.254 350.841 511.153 367.937 511.389C371.699 511.248 372.929 507.12 370.583 505.139Z" fill="white"/>
<path fill-rule="evenodd" clip-rule="evenodd" d="M286.555 486.407L283.679 485.181C280.145 487.123 276.666 485.666 274.598 483.661C270.647 484.03 268.849 484.197 268.612 487.409L268.528 489.01C268.471 490.134 269.221 491.14 270.314 491.407C275.805 492.424 281.438 493.365 287.174 494.233C287.697 494.315 288.228 494.165 288.632 493.824C289.036 493.483 289.272 492.983 289.279 492.455L289.361 490.885C289.437 488.957 288.324 487.18 286.555 486.407Z" fill="white"/>
<path fill-rule="evenodd" clip-rule="evenodd" d="M285.946 479.426C286.538 475.464 283.686 471.414 279.85 470.775C274.037 469.903 270.832 476.699 274.665 481.799C278.236 486.616 285.101 485.149 285.946 479.426Z" fill="white"/>
<path fill-rule="evenodd" clip-rule="evenodd" d="M447.777 409.555C454.339 406.06 463.068 401.363 469.583 397.791C463.425 393.85 455.242 388.547 449.14 384.513L447.777 409.555Z" fill="white"/>
<path opacity="0.2" fill-rule="evenodd" clip-rule="evenodd" d="M538.68 128.875C529.047 140.979 501.433 150.98 459.793 155.939C454.54 157.123 451.573 160.407 450.743 165.985L442.738 313.447C442.977 318.996 445.609 321.675 450.756 321.63C492.373 316.67 520.017 306.678 529.651 294.567L529.669 294.532C530.256 293.371 531.365 291.18 531.84 282.987L539.844 135.532C540.011 131.325 539.915 130.376 539.429 128.807C539.373 128.814 539.296 128.805 539.21 128.796C539.021 128.775 538.793 128.749 538.68 128.875ZM474.939 165.077L474.94 165.076C475.178 164.217 475.408 163.39 475.621 162.62C478.113 161.814 477.684 163.411 477.14 165.433C476.189 168.923 474.917 173.571 473.959 177.053C473.707 177.137 473.446 177.196 473.182 177.227C471.491 177.476 471.956 175.833 472.407 174.24L472.41 174.23C473.149 171.521 474.098 168.106 474.937 165.083L474.938 165.083L474.939 165.077ZM471.55 169.54C471.48 169.406 471.48 169.406 468.321 167.704C465.391 166.176 465.671 169.485 465.678 169.509L469.342 171.236L466.559 173.202L466.488 173.244C464.948 174.339 465.016 175.97 466.622 176.254L470.972 172.811C472.078 171.917 471.787 169.998 471.55 169.54ZM461.575 184.205C462.338 183.264 463.42 182.635 464.616 182.437C474.886 181.08 485.074 179.158 495.133 176.681C498.428 176.085 499.035 181.346 496.761 184.445C496.257 185.209 495.502 185.775 494.627 186.045C484.565 188.514 474.375 190.428 464.103 191.778C460.007 192.147 458.974 187.24 461.575 184.205ZM460.932 250.384C459.737 250.583 458.655 251.212 457.891 252.152C455.281 255.217 456.315 260.094 460.418 259.756C470.69 258.409 480.88 256.498 490.941 254.03C491.818 253.758 492.573 253.19 493.075 252.422C495.35 249.316 494.75 244.063 491.455 244.658C481.393 247.124 471.204 249.036 460.932 250.384ZM477.674 229.385C478.312 228.448 479.274 227.779 480.375 227.507C493.162 224.991 504.027 221.905 512.774 218.378C515.428 217.55 515.489 223.128 513.908 226.04C513.579 226.784 513.005 227.394 512.282 227.767C503.536 231.286 492.677 234.379 479.883 236.896C476.235 237.349 475.355 232.466 477.675 229.362L477.674 229.385ZM508.575 295.712C509.297 295.341 509.87 294.734 510.201 293.993L510.202 293.97C511.8 291.021 511.738 285.473 509.082 286.325C500.336 289.852 489.478 292.938 476.684 295.454C475.583 295.722 474.623 296.392 473.99 297.332C471.669 300.458 472.543 305.319 476.177 304.841C488.963 302.325 499.829 299.239 508.575 295.712ZM523.889 285.98C523.343 287.909 522.734 288.399 522.502 288.579C520.293 290.045 517.995 291.371 515.621 292.549C513.449 293.403 513.045 288.652 514.465 285.294C514.755 284.416 515.337 283.664 516.113 283.161C518.487 281.983 520.785 280.657 522.994 279.191C524.653 278.287 524.758 282.885 523.891 285.957L523.889 285.98ZM477.013 289.32C500.808 284.647 517.928 277.981 527.157 270.218L527.158 270.195C528.447 268.903 529.695 261.352 527.941 260.691L527.664 260.838C518.427 268.601 501.308 275.259 477.52 279.941C476.416 280.205 475.451 280.876 474.819 281.819C472.497 284.945 473.379 289.806 477.013 289.32ZM527.97 254.704C518.741 262.467 501.621 269.133 477.826 273.806C474.2 274.284 473.318 269.431 475.64 266.297C476.278 265.36 477.24 264.691 478.341 264.419C502.129 259.746 519.248 253.079 528.485 245.317L528.762 245.17C530.539 245.839 529.291 253.391 528.002 254.682L527.97 254.704ZM519.805 215.199C519.028 215.701 518.447 216.454 518.158 217.332L518.189 217.326C516.73 220.682 517.149 225.442 519.29 224.586C521.666 223.406 523.966 222.08 526.178 220.617L526.179 220.616C526.412 220.429 527.021 219.938 527.567 218.01C528.434 214.945 528.321 210.348 526.686 211.229C524.477 212.695 522.179 214.021 519.805 215.199ZM530.811 202.254C521.582 210.017 504.47 216.684 480.667 221.357C477.041 221.835 476.159 216.982 478.481 213.848C479.117 212.911 480.076 212.243 481.174 211.969C504.97 207.296 522.089 200.63 531.319 192.867L531.595 192.72C533.417 193.407 532.138 200.957 530.842 202.248L530.811 202.254ZM481.48 205.843C505.275 201.169 522.395 194.503 531.624 186.74L531.686 186.736C532.975 185.436 534.231 177.885 532.408 177.206C532.313 177.25 532.221 177.299 532.132 177.353C522.902 185.116 505.783 191.774 481.987 196.455C480.889 196.729 479.93 197.397 479.294 198.333C476.964 201.459 477.846 206.32 481.48 205.843Z" fill="#25A9E0"/>
<path fill-rule="evenodd" clip-rule="evenodd" d="M496.658 176.876C496.186 176.638 495.645 176.577 495.132 176.704C485.07 179.173 474.88 181.087 464.608 182.437C459.993 183.324 458.718 189.331 461.838 191.337C462.517 191.761 463.323 191.933 464.116 191.825C474.388 190.474 484.578 188.56 494.64 186.092C498.365 184.889 499.256 178.294 496.658 176.876Z" fill="#00D1C8"/>
<path fill-rule="evenodd" clip-rule="evenodd" d="M532.477 177.202C532.38 177.241 532.288 177.29 532.201 177.349C522.971 185.112 505.852 191.77 482.057 196.451C477.721 197.575 476.805 204.062 479.818 205.609C480.355 205.872 480.963 205.953 481.549 205.838C505.337 201.165 522.456 194.499 531.694 186.736C533.182 184.994 534.057 177.822 532.477 177.202Z" fill="white"/>
<path fill-rule="evenodd" clip-rule="evenodd" d="M531.634 192.714C531.538 192.757 531.446 192.806 531.357 192.861C522.128 200.624 505.008 207.291 481.213 211.964C476.877 213.096 475.992 219.584 478.982 221.138C479.52 221.395 480.127 221.473 480.713 221.359C504.508 216.686 521.62 210.019 530.857 202.257C532.339 200.507 533.214 193.335 531.634 192.714Z" fill="white"/>
<path fill-rule="evenodd" clip-rule="evenodd" d="M513.72 218.351C513.413 218.237 513.074 218.247 512.774 218.378C504.027 221.905 493.162 224.991 480.375 227.507C476.032 228.631 475.116 235.118 478.129 236.665C478.667 236.924 479.274 237.005 479.86 236.894C492.654 234.378 503.513 231.285 512.259 227.765C515.232 226.27 515.811 219.175 513.72 218.351Z" fill="white"/>
<path fill-rule="evenodd" clip-rule="evenodd" d="M527.2 211.095C527.023 211.072 526.845 211.118 526.702 211.222C524.493 212.688 522.195 214.014 519.821 215.193C516.942 216.931 516.701 224.328 518.671 224.684C518.888 224.71 519.108 224.674 519.306 224.579C521.681 223.399 523.982 222.074 526.194 220.61C528.375 218.858 528.683 211.365 527.2 211.095Z" fill="#FF85BB"/>
<path fill-rule="evenodd" clip-rule="evenodd" d="M492.982 244.823C492.511 244.582 491.967 244.524 491.455 244.658C481.393 247.124 471.204 249.036 460.932 250.384C456.279 251.269 455.042 257.286 458.162 259.284C458.837 259.717 459.647 259.891 460.44 259.772C470.705 258.414 480.888 256.492 490.942 254.015C494.674 252.836 495.565 246.24 492.982 244.823Z" fill="#00D1C8"/>
<path fill-rule="evenodd" clip-rule="evenodd" d="M528.786 245.148C528.69 245.19 528.597 245.239 528.509 245.295C519.28 253.058 502.161 259.724 478.365 264.397C474.021 265.529 473.106 272.015 476.119 273.555C476.656 273.818 477.264 273.899 477.85 273.784C501.646 269.111 518.765 262.445 527.994 254.682C529.528 252.966 530.366 245.769 528.786 245.148Z" fill="white"/>
<path fill-rule="evenodd" clip-rule="evenodd" d="M527.942 260.668C527.847 260.712 527.754 260.761 527.665 260.815C518.436 268.578 501.317 275.237 477.521 279.918C473.178 281.042 472.262 287.528 475.275 289.076C475.815 289.337 476.426 289.414 477.014 289.297C500.802 284.624 517.921 277.958 527.158 270.195C528.654 268.461 529.529 261.289 527.942 260.668Z" fill="white"/>
<path fill-rule="evenodd" clip-rule="evenodd" d="M510.029 286.275C509.723 286.16 509.383 286.17 509.084 286.302C500.337 289.829 489.479 292.915 476.685 295.431C472.342 296.554 471.433 303.041 474.447 304.589C474.984 304.852 475.591 304.932 476.178 304.818C488.964 302.301 499.83 299.216 508.576 295.689C511.539 294.255 512.12 287.121 510.029 286.275Z" fill="white"/>
<path fill-rule="evenodd" clip-rule="evenodd" d="M523.508 279.041C523.332 279.02 523.154 279.065 523.01 279.169C520.802 280.634 518.504 281.96 516.129 283.139C513.251 284.885 513.016 292.282 514.987 292.639C515.205 292.661 515.425 292.622 515.622 292.526C517.996 291.348 520.294 290.022 522.503 288.556C524.683 286.805 524.991 279.311 523.508 279.041Z" fill="#FF85BB"/>
<path fill-rule="evenodd" clip-rule="evenodd" d="M466.938 167.286C465.389 167.535 465.669 169.523 465.677 169.524L469.341 171.252C465.841 173.717 465.841 173.717 465.62 174.128C465.62 174.128 464.665 175.928 466.621 176.277C471.186 172.677 471.186 172.677 471.353 172.424C471.873 171.5 471.915 170.381 471.464 169.42C467.425 167.22 467.425 167.22 466.938 167.286Z" fill="white"/>
<path fill-rule="evenodd" clip-rule="evenodd" d="M476.384 162.437C476.12 162.475 475.859 162.536 475.606 162.619C472.016 175.592 472.016 175.592 471.987 175.859C471.876 176.79 472.031 177.658 473.944 177.052C477.486 164.115 477.486 164.115 477.507 163.993C477.611 163.477 477.816 162.205 476.384 162.437Z" fill="white"/>
<path opacity="0.2" fill-rule="evenodd" clip-rule="evenodd" d="M32.9657 111.13L34.9425 74.7296L32.967 111.131L32.9657 111.13ZM32.967 111.131C36.3783 114.044 39.9952 116.707 43.7895 119.099C66.8204 133.844 103.48 146.262 147.086 155.35L136.738 345.928C93.1619 336.841 56.4717 324.422 33.4408 309.677C29.6469 307.287 26.032 304.623 22.6247 301.708L32.967 111.131ZM36.4331 267.087C35.7253 267.901 34.5165 268.047 33.6357 267.424C28.5483 263.403 29.5872 248.853 33.4083 248.761C37.8754 248.65 40.2839 263.204 36.4331 267.087ZM36.8532 208.23C37.7327 208.853 38.9421 208.703 39.6432 207.885C43.4937 204.009 41.0928 189.455 36.6185 189.559C32.7954 189.688 31.7572 204.223 36.8532 208.23ZM49.185 139.953C56.718 144.155 64.5127 147.869 72.521 151.074L72.2549 156.151C64.2499 152.955 56.4573 149.251 48.925 145.061L49.185 139.953ZM133.044 183.601C98.584 175.652 69.1759 165.526 48.4578 153.829L48.2275 158.224C68.9435 169.96 98.3537 180.048 132.813 187.996L133.044 183.601ZM47.91 164.281C68.6277 175.986 98.0362 186.105 132.505 194.016L132.275 198.419C97.8075 190.469 68.3973 180.382 47.6793 168.684L47.91 164.281ZM69.3515 210.233C61.3454 207.042 53.5525 203.341 46.0212 199.151L45.6958 204.186C53.2445 208.394 61.0573 212.11 69.0854 215.309L69.3515 210.233ZM45.2944 213.018C66.0201 224.716 95.4283 234.842 129.888 242.791L129.657 247.194C95.1975 239.245 65.7797 229.157 45.0636 217.421L45.2944 213.018ZM129.334 253.22C94.872 245.31 65.4639 235.184 44.7458 223.486L44.5154 227.882C65.2335 239.579 94.6437 249.667 129.103 257.616L129.334 253.22ZM42.8497 258.347C50.3843 262.536 58.1796 266.238 66.1877 269.43L65.9216 274.507C57.9136 271.315 50.1183 267.613 42.5836 263.424L42.8497 258.347ZM126.716 301.988C92.2491 294.039 62.8406 283.921 42.1229 272.215L41.8998 276.619C62.6155 288.362 92.026 298.442 126.486 306.391L126.716 301.988ZM41.5743 282.683C62.1699 294.374 91.5873 304.47 126.032 312.41L125.802 316.806C91.3569 308.865 61.9391 298.777 41.1985 287.071L41.5743 282.683ZM40.063 149.035C40.9457 149.655 42.155 149.506 42.8607 148.69C46.7035 144.814 44.3026 130.26 39.8283 130.364C36.0145 130.463 34.9682 145.005 40.063 149.035Z" fill="#25A9E0"/>
<path fill-rule="evenodd" clip-rule="evenodd" d="M32.9657 111.13L34.9425 74.7294C38.3517 77.6422 41.9665 80.3054 45.7586 82.6985C68.7895 97.4428 105.449 109.861 149.055 118.949L147.079 155.35C103.503 146.263 66.8127 133.843 43.7818 119.099C39.9897 116.706 36.3749 114.043 32.9657 111.13ZM42.3086 107.504C43.1914 108.124 44.4006 107.975 45.1063 107.159C48.9644 103.284 46.5563 88.7219 42.0739 88.8325C38.2605 88.9244 37.2139 103.474 42.3086 107.504Z" fill="#6852ED"/>
<path fill-rule="evenodd" clip-rule="evenodd" d="M43.3044 89.235C39.2305 86.9713 37.8971 96.5918 39.6645 102.866C41.0492 107.799 43.93 109.386 45.7679 106.257C48.6186 101.53 46.6964 91.4706 43.3044 89.235Z" fill="white"/>
<path fill-rule="evenodd" clip-rule="evenodd" d="M41.0507 130.773C36.9772 128.502 35.6438 138.122 37.4108 144.404C38.7955 149.337 41.6759 150.932 43.5142 147.795C46.3653 143.061 44.4197 133.008 41.0507 130.773Z" fill="white"/>
<path fill-rule="evenodd" clip-rule="evenodd" d="M48.9117 145.022C56.444 149.212 64.2365 152.916 72.2416 156.112L72.5077 151.035C64.4996 147.843 56.7043 144.141 49.1697 139.952L48.9117 145.022Z" fill="white"/>
<path fill-rule="evenodd" clip-rule="evenodd" d="M48.1956 158.245C68.9137 169.943 98.3218 180.069 132.781 188.018L133.012 183.622C98.5522 175.673 69.142 165.586 48.426 153.85L48.1956 158.245Z" fill="white"/>
<path fill-rule="evenodd" clip-rule="evenodd" d="M47.6257 168.681C68.3438 180.379 97.7519 190.505 132.221 198.416L132.452 194.013C97.9847 186.064 68.5741 175.984 47.8564 164.278L47.6257 168.681Z" fill="white"/>
<path fill-rule="evenodd" clip-rule="evenodd" d="M37.8417 189.953C33.7683 187.681 32.4348 197.302 34.2018 203.583C35.5865 208.517 38.4669 210.111 40.3052 206.975C43.1938 202.258 41.2022 192.202 37.8417 189.953Z" fill="white"/>
<path fill-rule="evenodd" clip-rule="evenodd" d="M45.6959 204.186C53.2285 208.381 61.0239 212.085 69.0335 215.276L69.2996 210.199C61.2934 207.009 53.5005 203.307 45.9692 199.117L45.6959 204.186Z" fill="white"/>
<path fill-rule="evenodd" clip-rule="evenodd" d="M44.9794 217.417C65.6975 229.115 95.1133 239.241 129.573 247.19L129.804 242.787C95.344 234.838 65.9339 224.75 45.2101 213.014L44.9794 217.417Z" fill="white"/>
<path fill-rule="evenodd" clip-rule="evenodd" d="M44.4159 227.876C65.134 239.574 94.5421 249.7 129.004 257.61L129.234 253.215C94.7745 245.266 65.3643 235.179 44.6462 223.481L44.4159 227.876Z" fill="white"/>
<path fill-rule="evenodd" clip-rule="evenodd" d="M34.6311 249.163C30.5573 246.9 29.2165 256.512 30.9836 262.794C32.3683 267.727 35.249 269.313 37.0946 266.185C39.9446 261.474 37.9929 251.39 34.6311 249.163Z" fill="white"/>
<path fill-rule="evenodd" clip-rule="evenodd" d="M42.484 263.419C50.0187 267.608 57.814 271.31 65.8221 274.502L66.0881 269.425C58.0801 266.233 50.2848 262.531 42.7501 258.342L42.484 263.419Z" fill="white"/>
<path fill-rule="evenodd" clip-rule="evenodd" d="M41.7696 276.612C62.4873 288.317 91.8959 298.435 126.355 306.384L126.586 301.981C92.119 294.032 62.7084 283.952 41.9927 272.208L41.7696 276.612Z" fill="white"/>
<path fill-rule="evenodd" clip-rule="evenodd" d="M41.1985 287.071C61.9391 298.777 91.3569 308.865 125.794 316.805L126.024 312.41C91.5873 304.47 62.1699 294.374 41.4365 282.676L41.1985 287.071Z" fill="white"/>
<path fill-rule="evenodd" clip-rule="evenodd" d="M82.0503 69.6205C81.1702 70.1502 81.1927 71.3339 80.394 71.9217C80.2973 71.8629 75.001 60.5435 77.5628 57.5219C78.0413 57.0962 78.3207 56.4903 78.3338 55.8499C78.3374 55.781 77.5572 48.8371 77.1142 48.499C74.1967 46.7336 73.7996 57.0943 76.3269 67.6235C78.5392 76.8386 82.1316 81.8414 84.2008 78.5482C86.2994 75.1337 82.503 69.9206 82.0503 69.6205Z" fill="#BA43FC"/>
<path fill-rule="evenodd" clip-rule="evenodd" d="M121.292 89.1841C120.533 89.6622 119.601 89.7766 118.749 89.4962C115.703 88.1311 108.547 74.5028 108.492 74.3694L107.712 89.2557C107.673 91.0197 108.348 92.514 109.425 93.0619C115.207 95.5405 121.382 97.9117 127.949 100.176C129.19 100.517 130.097 99.6278 130.256 97.9161L131.036 83.0221C129.645 84.508 121.371 89.1422 121.292 89.1841Z" fill="#BA43FC"/>
<path fill-rule="evenodd" clip-rule="evenodd" d="M129.325 73.7797C122.778 71.5093 116.584 69.1268 110.8 66.666C108.877 65.997 107.759 69.4552 110.038 74.0282C110.093 74.1463 116.905 86.1517 118.852 87.0983C120.736 87.6347 129.54 81.2469 129.613 81.1739C131.275 79.6487 131.74 77.2133 130.756 75.1831C130.463 74.5587 129.955 74.0606 129.325 73.7797Z" fill="#BA43FC"/>
<defs>
<linearGradient id="paint0_linear" x1="360" y1="671.25" x2="681.693" y2="239.93" gradientUnits="userSpaceOnUse">
<stop stop-color="#6852ED"/>
<stop offset="1" stop-color="#BA43FC"/>
</linearGradient>
<linearGradient id="paint1_linear" x1="438.837" y1="187.791" x2="519.763" y2="281.423" gradientUnits="userSpaceOnUse">
<stop stop-color="#1EDDA1"/>
<stop offset="1" stop-color="#8DFFDB"/>
</linearGradient>
<linearGradient id="paint2_linear" x1="248.516" y1="495.791" x2="245.241" y2="665.498" gradientUnits="userSpaceOnUse">
<stop stop-color="#2A5DE6"/>
<stop offset="0.3" stop-color="#3046BB"/>
<stop offset="1" stop-color="#9E2AE6"/>
</linearGradient>
<linearGradient id="paint3_linear" x1="427.324" y1="419.169" x2="160.29" y2="603.672" gradientUnits="userSpaceOnUse">
<stop stop-color="#2A5DE6"/>
<stop offset="1" stop-color="#3A2AE6"/>
</linearGradient>
<linearGradient id="paint4_linear" x1="142.779" y1="456.929" x2="81.2512" y2="464.69" gradientUnits="userSpaceOnUse">
<stop stop-color="#151875"/>
<stop offset="1" stop-color="#662AE6"/>
</linearGradient>
<linearGradient id="paint5_linear" x1="318.216" y1="561.968" x2="395.768" y2="731.249" gradientUnits="userSpaceOnUse">
<stop stop-color="#2A5DE6"/>
<stop offset="0.3" stop-color="#3046BB"/>
<stop offset="1" stop-color="#9E2AE6"/>
</linearGradient>
<linearGradient id="paint6_linear" x1="395.031" y1="379.387" x2="182.233" y2="562.58" gradientUnits="userSpaceOnUse">
<stop stop-color="#2A5DE6"/>
<stop offset="1" stop-color="#3A2AE6"/>
</linearGradient>
<linearGradient id="paint7_linear" x1="234.756" y1="559.447" x2="188.818" y2="561.699" gradientUnits="userSpaceOnUse">
<stop stop-color="#151875"/>
<stop offset="1" stop-color="#662AE6"/>
</linearGradient>
<linearGradient id="paint8_linear" x1="227.623" y1="169.354" x2="303.509" y2="246.564" gradientUnits="userSpaceOnUse">
<stop stop-color="#1EDDA1"/>
<stop offset="1" stop-color="#8DFFDB"/>
</linearGradient>
<linearGradient id="paint9_linear" x1="295.133" y1="173.258" x2="359.382" y2="275.12" gradientUnits="userSpaceOnUse">
<stop stop-color="#1EDDA1"/>
<stop offset="1" stop-color="#8DFFDB"/>
</linearGradient>
<linearGradient id="paint10_linear" x1="392.283" y1="194.085" x2="497.993" y2="339.919" gradientUnits="userSpaceOnUse">
<stop stop-color="#1EDDA1"/>
<stop offset="1" stop-color="#8DFFDB"/>
</linearGradient>
<linearGradient id="paint11_linear" x1="288.556" y1="224.104" x2="294.282" y2="141.142" gradientUnits="userSpaceOnUse">
<stop stop-color="#CFF8FF"/>
<stop offset="1" stop-color="#D6F9FF"/>
</linearGradient>
<linearGradient id="paint12_linear" x1="432.174" y1="284.225" x2="449.562" y2="354.465" gradientUnits="userSpaceOnUse">
<stop stop-color="#1EDDA1"/>
<stop offset="1" stop-color="#8DFFDB"/>
</linearGradient>
<linearGradient id="paint13_linear" x1="295.977" y1="18.3109" x2="402.184" y2="25.624" gradientUnits="userSpaceOnUse">
<stop stop-color="#3046BB"/>
<stop offset="1" stop-color="#4C30BB"/>
</linearGradient>
<linearGradient id="paint14_linear" x1="333.207" y1="76.2986" x2="296.069" y2="105.035" gradientUnits="userSpaceOnUse">
<stop stop-color="#151875"/>
<stop offset="1" stop-color="#662AE6"/>
</linearGradient>
<linearGradient id="paint15_linear" x1="371.6" y1="60.0141" x2="299.605" y2="109.378" gradientUnits="userSpaceOnUse">
<stop stop-color="#151875"/>
<stop offset="1" stop-color="#662AE6"/>
</linearGradient>
<linearGradient id="paint16_linear" x1="330.82" y1="102.443" x2="324.926" y2="81.4242" gradientUnits="userSpaceOnUse">
<stop stop-color="#EF7171"/>
<stop offset="1" stop-color="#FF8560"/>
</linearGradient>
<linearGradient id="paint17_linear" x1="302.602" y1="100.964" x2="295.584" y2="80.819" gradientUnits="userSpaceOnUse">
<stop stop-color="#EF7171"/>
<stop offset="1" stop-color="#FF8560"/>
</linearGradient>
<linearGradient id="paint18_linear" x1="10.927" y1="4.10644" x2="11.5355" y2="0.0922312" gradientUnits="userSpaceOnUse">
<stop stop-color="#EF7171"/>
<stop offset="1" stop-color="#FF8560"/>
</linearGradient>
<linearGradient id="paint19_linear" x1="359.076" y1="89.5879" x2="358.538" y2="84.4903" gradientUnits="userSpaceOnUse">
<stop stop-color="#EF7171"/>
<stop offset="1" stop-color="#FF8560"/>
</linearGradient>
<linearGradient id="paint20_linear" x1="366.623" y1="316.152" x2="274.386" y2="314.342" gradientUnits="userSpaceOnUse">
<stop/>
<stop offset="1" stop-color="#6BFF70"/>
</linearGradient>
<linearGradient id="paint21_linear" x1="520.174" y1="156.07" x2="457.282" y2="406.915" gradientUnits="userSpaceOnUse">
<stop/>
<stop offset="1" stop-color="#6BFF70"/>
</linearGradient>
<linearGradient id="paint22_linear" x1="160.356" y1="309.318" x2="150.677" y2="287.126" gradientUnits="userSpaceOnUse">
<stop stop-color="#6852ED"/>
<stop offset="1" stop-color="#BA43FC"/>
</linearGradient>
</defs>
</svg>
