<svg width="21" height="19" viewBox="0 0 21 19" fill="none" xmlns="http://www.w3.org/2000/svg">
<path d="M4.87761 0.879875C6.31761 0.879875 7.44561 1.40788 8.26161 2.46388C9.12561 3.51988 9.55761 5.07988 9.55761 7.14388C9.55761 11.2239 8.18961 14.7519 5.45361 17.7279C4.87761 18.3039 4.25361 18.5919 3.58161 18.5919C2.95761 18.5919 2.42961 18.3999 1.99761 18.0159C1.56561 17.5839 1.34961 17.0799 1.34961 16.5039C1.34961 15.9759 1.56561 15.4719 1.99761 14.9919C3.34161 13.5999 4.20561 11.9439 4.58961 10.0239C3.38961 9.92788 2.38161 9.47187 1.56561 8.65587C0.797614 7.83988 0.413614 6.80788 0.413614 5.55988C0.413614 4.21588 0.845614 3.11188 1.70961 2.24787C2.57361 1.33588 3.62961 0.879875 4.87761 0.879875ZM16.2739 0.879875C17.7139 0.879875 18.8419 1.40788 19.6579 2.46388C20.5219 3.51988 20.9539 5.07988 20.9539 7.14388C20.9539 11.2239 19.5859 14.7519 16.8499 17.7279C16.2739 18.3039 15.6499 18.5919 14.9779 18.5919C14.3539 18.5919 13.8259 18.3999 13.3939 18.0159C12.9619 17.5839 12.7459 17.0799 12.7459 16.5039C12.7459 15.9759 12.9619 15.4719 13.3939 14.9919C14.7379 13.5999 15.6019 11.9439 15.9859 10.0239C14.7859 9.92788 13.7779 9.47187 12.9619 8.65587C12.1939 7.83988 11.8099 6.80788 11.8099 5.55988C11.8099 4.21588 12.2419 3.11188 13.1059 2.24787C13.9699 1.33588 15.0259 0.879875 16.2739 0.879875Z" fill="#15C3D6"/>
</svg>
