<svg width="146" height="38" viewBox="0 0 146 38" fill="none" xmlns="http://www.w3.org/2000/svg">
<path d="M71.5357 37.125C48.5357 37.125 23.7667 0.125 1.76672 0.125C-20.2333 0.125 171.036 -0.375005 142.536 0.624995C114.036 1.62499 94.5357 37.125 71.5357 37.125Z" fill="#EFF6F7"/>
<path d="M72.0456 30.125C54.7768 30.125 35.2667 0.125 19.2667 0.125L125.267 0.125079C109.267 0.125065 89.3143 30.125 72.0456 30.125Z" fill="url(#paint0_linear)"/>
<path d="M68.5357 14.9622C68.5357 14.7472 68.6199 14.5405 68.7799 14.3751C69.1082 14.0526 69.647 14.0526 69.9753 14.3751L72.5347 16.8807L75.094 14.3669C75.4223 14.0444 75.9611 14.0444 76.2895 14.3669C76.6178 14.6894 76.6178 15.2186 76.2895 15.5411L73.1324 18.642C72.9724 18.7991 72.762 18.8818 72.5347 18.8818C72.3073 18.8818 72.0969 18.7908 71.9369 18.642L68.7799 15.5493C68.6199 15.384 68.5357 15.169 68.5357 14.9622Z" fill="#8FA7B3"/>
<path d="M68.5357 8.96224C68.5357 8.74724 68.6199 8.54052 68.7799 8.37514C69.1082 8.05265 69.647 8.05265 69.9753 8.37514L72.5347 10.8807L75.094 8.36687C75.4223 8.04438 75.9611 8.04438 76.2895 8.36687C76.6178 8.68936 76.6178 9.21858 76.2895 9.54107L73.1324 12.642C72.9724 12.7991 72.762 12.8818 72.5347 12.8818C72.3073 12.8818 72.0969 12.7908 71.9369 12.642L68.7799 9.54934C68.6199 9.38396 68.5357 9.16896 68.5357 8.96224Z" fill="#8FA7B3"/>
<defs>
<linearGradient id="paint0_linear" x1="73.0357" y1="0.124878" x2="73.0357" y2="30.1249" gradientUnits="userSpaceOnUse">
<stop stop-color="#DDECEE" stop-opacity="0"/>
<stop offset="1" stop-color="#DDECEE"/>
</linearGradient>
</defs>
</svg>
