<svg width="146" height="38" viewBox="0 0 146 38" fill="none" xmlns="http://www.w3.org/2000/svg">
<path d="M71.5357 3.8147e-06C48.5357 3.8147e-06 23.7667 37 1.76672 37C-20.2333 37 171.036 37.5 142.536 36.5C114.036 35.5 94.5357 3.8147e-06 71.5357 3.8147e-06Z" fill="#F0F5F6"/>
<path d="M72.0456 6.99997C54.7768 6.99997 35.2667 37 19.2667 37L125.267 36.9999C109.267 36.9999 89.3143 6.99997 72.0456 6.99997Z" fill="url(#paint0_linear)"/>
<path d="M68.5357 22.1628C68.5357 22.3778 68.6199 22.5845 68.7799 22.7499C69.1082 23.0724 69.647 23.0724 69.9753 22.7499L72.5347 20.2443L75.094 22.7581C75.4223 23.0806 75.9611 23.0806 76.2895 22.7581C76.6178 22.4356 76.6178 21.9064 76.2895 21.5839L73.1324 18.483C72.9724 18.3259 72.762 18.2432 72.5347 18.2432C72.3074 18.2432 72.0969 18.3342 71.9369 18.483L68.7799 21.5757C68.6199 21.741 68.5357 21.956 68.5357 22.1628Z" fill="#8FA7B3"/>
<path d="M68.5357 28.1628C68.5357 28.3778 68.6199 28.5845 68.7799 28.7499C69.1082 29.0724 69.647 29.0724 69.9753 28.7499L72.5347 26.2443L75.094 28.7581C75.4223 29.0806 75.9611 29.0806 76.2895 28.7581C76.6178 28.4356 76.6178 27.9064 76.2895 27.5839L73.1324 24.483C72.9724 24.3259 72.762 24.2432 72.5347 24.2432C72.3074 24.2432 72.0969 24.3342 71.9369 24.483L68.7799 27.5757C68.6199 27.741 68.5357 27.956 68.5357 28.1628Z" fill="#8FA7B3"/>
<defs>
<linearGradient id="paint0_linear" x1="73.0357" y1="37.0001" x2="73.0357" y2="7.00012" gradientUnits="userSpaceOnUse">
<stop stop-color="#DDECEE" stop-opacity="0"/>
<stop offset="1" stop-color="#DDECEE"/>
</linearGradient>
</defs>
</svg>
