<svg width="327" height="323" viewBox="0 0 327 323" fill="none" xmlns="http://www.w3.org/2000/svg">
<circle cx="161.5" cy="161.5" r="160.5" stroke="url(#paint0_linear)" stroke-width="2"/>
<g filter="url(#filter0_d)">
<circle cx="291" cy="69" r="24" fill="white"/>
</g>
<path d="M297.766 63.2337C297.375 62.8426 296.911 62.5323 296.4 62.3206C295.889 62.109 295.342 62 294.789 62C294.236 62 293.688 62.109 293.177 62.3206C292.666 62.5323 292.202 62.8426 291.811 63.2337L291 64.0451L290.188 63.2337C289.399 62.4441 288.328 62.0004 287.211 62.0004C286.094 62.0004 285.023 62.4441 284.233 63.2337C283.444 64.0234 283 65.0945 283 66.2113C283 67.3281 283.444 68.3991 284.233 69.1888L285.045 70.0002L291 75.9553L296.955 70.0002L297.766 69.1888C298.157 68.7979 298.468 68.3337 298.679 67.8228C298.891 67.3119 299 66.7643 299 66.2113C299 65.6583 298.891 65.1107 298.679 64.5998C298.468 64.0889 298.157 63.6247 297.766 63.2337V63.2337Z" stroke="#15C3D6" stroke-width="2" stroke-linecap="round" stroke-linejoin="round"/>
<defs>
<filter id="filter0_d" x="263" y="41" width="64" height="64" filterUnits="userSpaceOnUse" color-interpolation-filters="sRGB">
<feFlood flood-opacity="0" result="BackgroundImageFix"/>
<feColorMatrix in="SourceAlpha" type="matrix" values="0 0 0 0 0 0 0 0 0 0 0 0 0 0 0 0 0 0 127 0"/>
<feMorphology radius="8" operator="erode" in="SourceAlpha" result="effect1_dropShadow"/>
<feOffset dx="4" dy="4"/>
<feGaussianBlur stdDeviation="8"/>
<feColorMatrix type="matrix" values="0 0 0 0 0 0 0 0 0 0 0 0 0 0 0 0 0 0 0.16 0"/>
<feBlend mode="normal" in2="BackgroundImageFix" result="effect1_dropShadow"/>
<feBlend mode="normal" in="SourceGraphic" in2="effect1_dropShadow" result="shape"/>
</filter>
<linearGradient id="paint0_linear" x1="67.1352" y1="304.221" x2="256.804" y2="37.5581" gradientUnits="userSpaceOnUse">
<stop stop-color="#15C3D6"/>
<stop offset="0.502191" stop-color="#FFD666"/>
<stop offset="1" stop-color="#FFD666" stop-opacity="0"/>
</linearGradient>
</defs>
</svg>
