<svg width="31" height="32" viewBox="0 0 31 32" fill="none" xmlns="http://www.w3.org/2000/svg">
<path d="M15.5 0.5C18.25 0.5 20.875 1.25 23.25 2.625C25.625 4 27.5 5.875 28.875 8.25C30.25 10.625 31 13.25 31 16C31 18.8125 30.25 21.375 28.875 23.75C27.5 26.125 25.625 28.0625 23.25 29.4375C20.875 30.8125 18.25 31.5 15.5 31.5C12.6875 31.5 10.125 30.8125 7.75 29.4375C5.375 28.0625 3.4375 26.125 2.0625 23.75C0.6875 21.375 0 18.8125 0 16C0 13.25 0.6875 10.625 2.0625 8.25C3.4375 5.875 5.375 4 7.75 2.625C10.125 1.25 12.6875 0.5 15.5 0.5ZM15.5 29.5C17.9375 29.5 20.1875 28.9375 22.25 27.6875C24.3125 26.5 25.9375 24.875 27.1875 22.8125C28.375 20.75 29 18.5 29 16C29 13.5625 28.375 11.3125 27.1875 9.25C25.9375 7.1875 24.3125 5.5625 22.25 4.3125C20.1875 3.125 17.9375 2.5 15.5 2.5C13 2.5 10.75 3.125 8.6875 4.3125C6.625 5.5625 5 7.1875 3.8125 9.25C2.5625 11.3125 2 13.5625 2 16C2 18.5 2.5625 20.75 3.8125 22.8125C5 24.875 6.625 26.5 8.6875 27.6875C10.75 28.9375 13 29.5 15.5 29.5ZM18 15.6875C18.8125 15.9375 19.5 16.375 20 17C20.5 17.6875 20.75 18.4375 20.75 19.25C20.75 20.3125 20.375 21.1875 19.625 21.9375C18.875 22.6875 18 23 17 23H16.5V25.5C16.5 25.625 16.4375 25.75 16.3125 25.875C16.1875 26 16.125 26 16 26H15C14.875 26 14.75 26 14.625 25.875C14.5 25.75 14.5 25.625 14.5 25.5V23H14.1875C12.9375 23 11.875 22.625 10.9375 21.875C10.8125 21.8125 10.75 21.6875 10.75 21.5625C10.75 21.4375 10.75 21.25 10.875 21.125L11.625 20.4375C11.6875 20.3125 11.8125 20.25 11.9375 20.25C12.0625 20.25 12.125 20.3125 12.25 20.375C12.8125 20.8125 13.4375 21 14.1875 21H17C17.4375 21 17.8125 20.875 18.1875 20.5C18.5625 20.1875 18.75 19.75 18.75 19.25C18.75 18.875 18.625 18.5625 18.375 18.25C18.125 17.9375 17.875 17.6875 17.5 17.5625L13 16.3125C12.125 16.125 11.5 15.6875 11 15C10.5 14.375 10.25 13.625 10.25 12.75C10.25 11.75 10.5625 10.875 11.3125 10.125C12.0625 9.375 12.9375 9 14 9H14.5V6.5C14.5 6.375 14.5 6.3125 14.625 6.1875C14.75 6.0625 14.875 6 15 6H16C16.125 6 16.1875 6.0625 16.3125 6.1875C16.4375 6.3125 16.5 6.375 16.5 6.5V9H16.8125C18 9 19.0625 9.375 20.0625 10.125C20.1875 10.25 20.25 10.375 20.25 10.5C20.25 10.625 20.1875 10.75 20.125 10.875L19.375 11.5625C19.25 11.6875 19.1875 11.75 19.0625 11.75C18.9375 11.75 18.8125 11.75 18.75 11.625C18.125 11.25 17.5 11 16.8125 11H14C13.5 11 13.0625 11.1875 12.75 11.5C12.375 11.875 12.25 12.25 12.25 12.75C12.25 13.125 12.3125 13.5 12.5625 13.8125C12.8125 14.125 13.125 14.3125 13.5 14.375L18 15.6875Z" fill="#6852ED"/>
</svg>
