<svg width="104" height="17" viewBox="0 0 104 17" fill="none" xmlns="http://www.w3.org/2000/svg">
<path fill-rule="evenodd" clip-rule="evenodd" d="M0 16.0136V0.0144537H68.9265C69.2579 0.100617 69.4585 0.129523 69.6592 0.431372H69.7459C70.0339 0.129523 70.3063 0 70.5503 0C71.4709 0.0289063 71.9595 1.82555 70.5653 2.28582C70.5653 2.68829 71.0389 3.98185 71.3842 4.08247C71.6577 3.55048 71.8444 3.00459 72.2319 2.53042C72.5632 1.59596 71.93 0.0150088 73.1525 0.000555586C73.2381 0.000555586 73.3253 0.0150098 73.4249 0.029463C74.4021 0.360218 74.2448 1.92727 73.3392 2.30083C73.1375 2.87562 73.4393 3.45097 73.6411 4.03966C73.655 4.31316 73.5399 5.75014 74.0285 5.95137C74.4455 5.03137 74.6184 3.9824 75.0925 3.10521C76.4289 1.97008 76.3716 2.50151 76.3433 0.776582C76.4867 0.259047 76.8892 0.0144537 77.2772 0.0144537C77.6658 0.0144537 77.9676 0.244593 78.0827 0.747674C78.0827 1.49535 78.1249 1.96952 77.3206 2.1274C77.0621 2.32863 77.5368 3.89569 77.7669 4.19754H77.8525C78.5852 2.93288 78.3128 0.675966 79.3335 0.0578148C79.4624 0.0289085 79.5636 0.0144537 79.6776 0.0144537C80.9717 5.42564e-07 80.8427 2.04123 79.9077 2.24247C79.4052 2.74555 80.239 4.0391 80.4397 4.55664C80.4397 5.49109 79.9216 5.63451 80.9 6.42554C81.3747 6.7563 82.3948 7.12986 82.3375 7.83473C81.5176 8.38062 81.2018 6.84246 80.2668 6.84246C80.2668 8.65356 81.2018 10.8238 81.9923 12.4197C83.1563 11.0973 84.1625 9.81815 83.6739 7.9498C83.6739 7.30219 84.0769 6.67014 83.9757 6.02308H83.904C83.6161 6.72739 83.4004 7.34555 83.3287 8.13658C83.0846 9.01266 82.2363 8.61131 82.725 7.87698C82.7967 5.97972 83.0268 3.62219 84.6512 2.37199C84.9108 1.98397 84.7379 1.55205 84.6662 1.12123C84.6662 0.388011 85.0681 0.0144537 85.5139 0.0144537C86.1893 0.0144537 86.9514 0.804929 86.2327 1.94061C86.1026 2.07014 85.9158 2.19966 85.729 2.21356C85.6434 2.28583 85.4133 5.26095 86.0881 5.41938C86.5051 5.11753 86.9081 4.81569 87.3106 4.52829C87.4395 4.52829 88.6614 6.16705 88.9632 6.54117C88.7047 6.85692 88.2445 7.15877 87.9287 7.41781C87.8709 7.92089 87.6269 8.13658 87.1666 8.02151C85.7007 9.25725 86.7213 8.45232 85.8157 8.22219C85.8157 9.37177 85.744 10.5803 85.7146 11.7727C85.3988 12.6643 85.2121 14.0157 85.2693 15.0224C85.6568 15.3526 85.8002 15.5394 86.3472 15.6111C86.4762 15.6689 86.5623 15.6839 86.5479 15.899C86.4622 15.9569 86.1888 16.0141 85.843 16.0141C85.2821 16.0091 84.7213 15.9899 84.1614 15.9563C84.0897 15.6545 84.1331 15.3231 84.118 15.0369C83.6589 15.0369 82.7383 15.5538 82.2786 15.7417C81.89 15.5399 82.1341 14.7061 81.6749 14.591C81.4881 14.7778 81.5882 15.3098 81.7171 15.5694C81.9473 15.6845 82.034 15.6411 82.1635 15.8712C82.1202 15.9713 82.2786 16.0147 81.9195 16.0147C81.5604 16.0147 80.1084 14.591 80.4247 14.1741C80.6832 14.0023 81.0423 13.815 81.1868 13.5421C80.6115 12.2057 79.7632 10.9827 79.2456 9.64638H79.1878C78.5702 11.3858 77.2616 12.7366 76.773 14.491C76.773 15.267 77.937 14.3759 77.937 15.0652C77.7364 15.1942 77.5496 15.3092 77.3628 15.4388V15.5116C77.5496 15.6984 77.9087 15.4821 77.8514 15.899C77.708 15.9707 77.3628 16.0141 76.9742 16.0141C76.3283 16.0141 75.5662 15.9285 75.465 15.8557C75.4511 15.5833 75.4511 15.3671 75.4511 15.0947C75.4216 15.0797 75.4077 15.0652 75.3933 15.0513C75.0914 15.3098 73.9696 16.0141 73.3087 16.0141C73.1797 16.0141 73.0646 15.9563 72.9785 15.899C71.8711 15.899 70.6637 16.0002 69.543 15.9569C69.528 15.9863 69.528 16.0002 69.5136 16.0147H0V16.0136Z" fill="black"/>
<path fill-rule="evenodd" clip-rule="evenodd" d="M65.6312 14.5657C65.6923 14.7321 65.8026 14.8759 65.9475 14.9779C66.0925 15.0799 66.265 15.1353 66.4423 15.1366C66.9187 15.1366 67.3078 14.7403 67.3078 14.255C67.3078 13.7697 66.9192 13.3733 66.4423 13.3733C65.9653 13.3733 65.5767 13.7697 65.5767 14.255C65.5773 14.3584 65.5978 14.469 65.6312 14.5657Z" fill="white"/>
<path fill-rule="evenodd" clip-rule="evenodd" d="M65.7255 14.526C65.78 14.6744 65.8784 14.8028 66.0076 14.894C66.1368 14.9851 66.2907 15.0348 66.4488 15.0363C66.8746 15.0363 67.221 14.6822 67.221 14.2492C67.221 13.8172 66.8746 13.4631 66.4488 13.4631C66.0241 13.4631 65.6777 13.8172 65.6777 14.2492C65.6777 14.3414 65.6966 14.4404 65.7255 14.526Z" fill="black"/>
<path fill-rule="evenodd" clip-rule="evenodd" d="M83.1291 14.5623C81.4181 13.8719 83.6472 12.3049 84.322 11.6301C84.322 12.4206 84.307 13.7146 84.1491 14.4756C83.8762 14.5484 83.3876 14.5762 83.1291 14.5623Z" fill="white"/>
<path fill-rule="evenodd" clip-rule="evenodd" d="M96.3966 15.9284C96.1242 15.8133 94.9018 14.6637 95.3476 14.3324C95.9797 13.2262 96.54 12.2339 97.0142 11.0982C97.3021 9.81909 97.3733 8.4238 97.4744 7.13078C97.4605 7.11633 97.445 7.10188 97.445 7.08742C97.1292 7.64777 97.1009 8.38155 97.0142 8.99915C96.4972 9.40217 96.0947 9.22929 96.1953 8.59612C96.8991 6.58378 97.2298 4.48528 98.3655 2.61692C98.6096 2.05602 98.6535 1.73971 98.5807 1.15046C98.5807 0.331074 98.7969 0.0147705 99.3567 0.0147705C99.9181 0.0147705 100.752 0.963685 99.8748 2.12773C99.027 2.76034 99.6013 3.1628 99.8314 4.15452C99.9031 6.02344 100.048 6.22467 101.715 7.27365C102.146 7.70502 102.103 8.17865 101.37 8.1364C101.112 7.69057 100.435 7.0007 99.9326 7.0007C99.9326 8.53831 100.608 9.9186 101.197 11.3712C101.398 12.1755 101.959 14.4903 102.807 14.7054C103.022 14.7054 104 14.5481 104 14.9789C103.569 15.1518 102.017 15.9278 101.729 15.3664C101.614 14.7488 101.111 14.1451 100.837 13.627C100.348 12.449 99.544 11.4134 98.9826 10.3066H98.897C98.3933 11.9015 97.3149 13.0805 96.4388 14.5325C96.252 15.2229 96.8124 15.2091 97.0286 15.7549C96.8852 16.0001 96.6551 15.9284 96.3966 15.9284ZM91.6393 15.9567C91.5103 15.9428 91.3797 15.9284 91.2646 15.9284C91.0778 15.7121 91.2363 15.4103 91.308 15.2096C91.4369 14.4041 91.3219 13.5125 91.308 12.722C90.8627 12.722 90.115 13.4269 89.8421 13.7426C89.8421 14.1734 89.9277 14.6482 89.9572 15.1223C89.6259 15.4536 88.7498 13.6709 88.8498 13.4697C89.6403 13.0094 91.8833 11.1115 91.5676 10.1343C90.9922 8.89742 90.4024 7.74838 90.9205 6.397C90.9344 6.1235 90.9639 5.87946 90.9922 5.62097C90.9489 5.62097 90.9205 5.62097 90.8911 5.63543C90.7043 6.09571 90.13 8.35209 89.4969 7.86346C89.4969 7.67667 89.6976 7.44653 89.8126 7.2742C90.0428 5.76495 90.6604 4.47138 90.9633 3.00493C91.2791 2.37232 91.5237 1.81198 91.5954 1.13601C91.7388 0.431691 92.1557 0.0147705 92.5304 0.0147705C92.8745 0.0147705 93.1763 0.331075 93.263 1.0643C93.2197 1.55293 93.2052 1.89814 92.6877 2.02711C92.0406 2.54465 93.1763 3.55082 93.1763 4.25514C93.0473 4.51363 92.9323 4.77268 92.8172 5.01727C92.8172 5.63543 94.2842 6.65549 94.2842 7.2881C93.7956 8.02133 93.6944 7.15858 93.4937 6.79947C93.2341 6.49762 92.9323 6.16686 92.5882 6.0807C92.4731 6.21022 93.1341 9.9475 93.1485 10.4934C93.1052 11.2122 93.1052 11.2261 92.6165 11.6863C92.2291 12.2617 91.7827 14.547 92.343 15.2658C92.4731 15.3225 93.1769 15.6098 93.2497 15.8834C93.0612 15.9856 91.6532 15.9856 91.6393 15.9567Z" fill="black"/>
<path fill-rule="evenodd" clip-rule="evenodd" d="M22.8563 14.4037C21.9796 14.088 23.187 13.6277 23.5033 13.4409C23.8486 13.1529 24.1643 12.7799 24.2077 12.3191L24.8831 3.34964C24.8397 3.00498 24.7969 2.80375 24.5957 2.55915C24.3372 2.34346 22.6406 1.9699 23.5751 1.4379H32.7462C33.465 1.50961 33.1198 2.68868 33.0481 3.19177C33.0047 3.60869 32.9764 4.03951 32.9474 4.45644C32.1425 5.16076 32.2865 3.6804 32.157 3.30683C31.4816 2.17113 28.8939 2.2573 27.8877 2.65977L27.5858 6.85737C28.2184 7.11642 29.9289 7.00135 30.5471 6.12414C30.6911 5.75057 30.8345 5.24748 31.3231 5.50598C31.3954 5.85119 31.4526 10.25 30.576 9.66022C30.4176 9.3011 30.3459 8.91309 30.2024 8.61123C29.6415 7.90635 27.7587 7.54669 27.2845 8.38109L26.9393 12.4636C27.1406 14.2886 30.3892 13.0673 31.367 12.4497C31.8123 12.075 32.6606 10.9972 33.0486 10.9393C33.7096 11.3713 32.4733 13.427 31.9846 13.8578C31.8407 13.9729 31.0068 14.3898 31.0068 14.4037C28.333 14.4037 25.5151 14.461 22.8563 14.4037ZM50.3692 14.461C47.9544 14.4471 45.5251 14.4326 43.1098 14.4326C42.2331 14.1308 43.57 13.5988 43.7857 13.4698C44.0731 13.2397 44.1882 13.1107 44.3177 12.7649L45.1371 3.34964C44.9642 2.17113 44.4328 2.5447 43.6707 2.05606C43.4978 1.75421 43.6129 1.61023 43.8719 1.46681H53.1576C53.7474 1.73975 53.2587 4.55761 52.9708 4.65823C52.3671 4.65823 52.5539 4.2124 52.5255 3.70931C52.2948 2.64587 51.5049 2.61697 50.5849 2.54525C50.1391 2.5308 48.2851 2.30121 48.0261 2.91882L47.7243 6.84291C48.4569 7.37491 50.1824 6.91463 50.7717 6.23921C50.8867 5.95181 51.4043 4.88782 51.6489 5.75057C51.6055 6.92964 51.4621 8.1654 51.3615 9.37282C50.9735 10.5519 50.5132 8.74076 50.3264 8.48116C49.7371 8.00697 47.8254 7.6045 47.5519 8.42334C47.423 9.71747 47.1211 11.3135 47.2073 12.6504C47.5091 14.0446 50.183 13.2402 51.1169 12.8233C51.9507 12.2774 52.4827 11.7015 53.1437 10.9688C54.2077 10.9683 52.5833 15.0224 50.3692 14.461ZM59.2096 14.576C56.1044 14.173 54.1643 12.2907 53.9914 9.12766C53.9914 4.5565 56.7231 1.49516 61.2647 1.33673C62.5733 1.43734 63.5934 1.72475 64.8008 2.21338C65.2177 2.31456 65.2177 2.31455 65.2177 2.3001C65.5057 2.3001 65.8075 1.40844 66.2383 1.82536C66.2678 3.06169 66.2962 4.31246 66.3395 5.54823C66.1527 5.99406 65.9365 5.83563 65.7219 5.56268C65.176 4.25465 64.241 3.03278 62.9902 2.44353C57.428 0.775825 55.544 8.33718 58.3185 11.9016C58.8366 12.3914 59.2102 12.6776 59.9145 12.9656C62.2715 13.4259 63.7385 12.3185 65.4484 10.8232C65.937 10.5508 66.0382 10.8665 65.837 11.3129C64.2266 13.6416 61.9696 14.6478 59.2096 14.576ZM37.8632 14.576C37.0583 14.461 34.7007 14.0579 34.514 13.5693C34.37 12.592 34.097 11.413 34.097 10.4502C34.241 10.1344 34.4133 10.1344 34.7441 10.3067C35.3333 11.7876 35.9949 13.124 37.6475 13.6271C38.5103 13.7422 39.2291 13.6988 40.0051 13.283C43.3255 10.2778 37.7337 9.21494 36.0666 8.16485C33.8813 6.32482 34.5429 2.14223 37.1734 1.55242C37.5041 1.38009 37.8349 1.40899 38.1656 1.33673C38.6687 1.22165 41.5583 1.96934 42.0324 2.0266C43.1392 1.50906 42.9091 2.11276 42.8802 3.19121C42.8802 3.7371 43.0236 4.77219 42.8802 5.30418C42.2048 6.15249 41.8596 4.32691 41.7445 4.03951C40.7094 2.44408 38.5681 1.38009 37.0438 2.90436C35.6641 5.39146 38.5242 5.9229 40.3931 6.68504C42.4633 7.61951 43.0809 8.6974 42.779 10.9972C42.2476 13.3831 40.1774 14.6478 37.8632 14.576ZM10.5226 14.4332C9.78941 14.1313 11.4137 13.4981 11.5144 13.4264C12.1325 12.6359 11.5861 10.3351 10.4937 10.106C9.24296 10.0627 8.00665 10.0332 6.7709 10.1344C5.96596 10.5513 4.90198 12.6065 5.64966 13.3114C5.9226 13.4264 7.63365 13.8717 7.02939 14.3893C3.32101 14.3893 2.17086 14.6055 2.55888 13.944C3.24874 13.4976 3.5506 13.2252 4.05368 12.592C6.29616 9.05595 8.16508 5.23192 10.3069 1.65303C10.422 1.50905 10.4648 1.40844 10.6805 1.40844C10.7667 1.4946 10.8389 1.60967 10.9251 1.76755C12.2331 5.43315 13.5556 9.09876 14.8636 12.7644C15.1944 13.4692 15.3956 13.656 16.1855 13.6983C16.8326 13.4976 16.9332 12.9228 17.0338 12.3185C17.2779 9.44453 17.6236 6.56886 17.8099 3.7232C17.8099 2.35736 17.5369 2.40072 16.3868 2.0555C16.0994 1.92654 16.2 1.49516 16.4585 1.43734H21.9496C22.8263 1.78256 21.1591 2.38627 20.8428 2.75983C20.785 2.8749 20.7278 3.00443 20.6699 3.1334C20.397 6.2381 20.1241 9.32945 19.8506 12.4486C19.8506 14.0012 21.0435 13.2391 21.3887 13.8428C21.4465 14.3314 20.8428 14.4749 20.0807 14.4749L10.5226 14.4332Z" fill="white"/>
<path fill-rule="evenodd" clip-rule="evenodd" d="M7.93529 9.07043C7.70515 9.05653 7.38885 9.05653 7.21652 8.98483C7.21652 8.56792 9.05653 5.46337 9.08489 5.43391C9.54517 4.9742 10.6514 8.61128 10.7092 8.92701C10.623 9.1716 8.32331 9.07043 7.93529 9.07043Z" fill="black"/>
<path fill-rule="evenodd" clip-rule="evenodd" d="M69.0278 3.20584C68.6542 2.34309 69.0561 2.40091 69.4586 1.92673C69.5164 1.79721 69.5876 1.68214 69.6593 1.55261L69.6887 1.58152C69.6887 2.19968 69.7026 2.35755 69.2857 2.83228C69.2863 2.83228 69.0561 3.27811 69.0278 3.20584ZM74.7779 10.5948C74.2598 9.42965 73.6561 8.26616 73.7423 6.95758C74.7779 6.95758 73.6422 9.57418 74.878 9.08444C74.9792 8.92712 74.9931 8.71087 75.0798 8.5958C75.3522 8.59636 74.893 10.6949 74.7779 10.5948ZM77.2355 10.925C77.1627 9.15726 77.1344 7.48957 77.3928 5.75018H77.494C77.7381 6.23881 77.7242 6.25326 78.2128 6.71299C78.2128 7.43232 77.3217 11.0262 77.2355 10.925ZM72.9952 12.9084C72.8801 12.3481 72.6066 11.8595 72.4348 11.3708C72.4348 10.9678 72.6355 10.5509 72.7367 10.2057H72.7945C72.9813 10.8666 73.3982 11.298 73.7423 11.9312C73.7417 12.1619 73.1959 12.8367 72.9952 12.9084ZM75.5823 12.9518C75.4239 12.6638 75.3522 12.3186 75.2944 12.0462C75.4233 11.8878 75.5539 11.7305 75.6829 11.586H75.7546C75.8263 11.8456 75.7407 12.65 75.6257 12.9518H75.5823ZM69.6598 13.2537C69.5742 12.8801 69.2579 12.1041 69.4881 11.8595C69.89 12.2625 70.2635 12.8801 69.6887 13.2676C69.6748 13.2537 69.6598 13.2537 69.6598 13.2537ZM70.2785 14.7629C70.0767 14.6773 70.2057 14.5328 70.2491 14.4177H70.3502C70.3786 14.4611 70.4509 14.8063 70.2785 14.7629ZM73.829 14.7924C72.6216 14.4472 74.232 13.1964 74.4188 13.2398C74.6629 13.6989 74.9647 14.1887 75.1798 14.7057C75.1626 14.7276 75.1484 14.7517 75.1376 14.7774C74.7051 14.749 74.2737 14.8063 73.829 14.7924ZM72.3915 15.4817C72.2047 15.4678 71.9451 15.4383 71.8161 15.3527V15.281C72.3776 14.9497 71.457 14.7629 71.3414 14.6773C71.1263 13.9446 71.0396 13.053 71.6727 12.6066C71.8017 12.6644 72.2481 13.4699 72.1908 13.7423C71.5437 14.2882 72.5499 14.7629 72.5499 15.4678C72.5065 15.4817 72.5066 15.4817 72.3915 15.4817ZM68.97 15.0942C68.2078 14.4755 68.2512 14.2309 68.6386 13.3548H68.7115C68.8265 13.6706 68.9839 14.0158 69.0556 14.3893C68.8549 14.7629 68.97 14.6773 69.0272 15.0942H68.97ZM66.6736 14.7696C66.6051 14.7896 66.5342 14.7999 66.4629 14.8002C66.2956 14.8002 66.1699 14.7512 66.0799 14.6556C65.9843 14.56 65.942 14.4394 65.942 14.2776C65.942 14.1703 65.9593 14.0736 66.0015 13.9897C66.0437 13.9057 66.1038 13.8396 66.1872 13.7923C66.2655 13.7445 66.3606 13.7262 66.4751 13.7262C66.5413 13.7262 66.6074 13.7328 66.6619 13.7567C66.7097 13.7724 66.7527 13.7998 66.7872 13.8364C66.8217 13.873 66.8464 13.9177 66.8592 13.9663C66.8648 13.9969 66.8409 14.0208 66.8237 14.0447C66.7575 14.1164 66.7214 14.0447 66.6736 13.9969C66.5835 13.9002 66.5891 13.9241 66.4457 13.9068C66.3673 13.9002 66.2655 13.9602 66.2177 14.0208C66.1699 14.0803 66.146 14.1642 66.146 14.2726C66.146 14.326 66.1516 14.3682 66.1633 14.4105C66.174 14.4477 66.1926 14.4822 66.2177 14.5116C66.2416 14.5422 66.325 14.59 66.3556 14.6084C66.3983 14.6202 66.4425 14.626 66.4868 14.6256C66.5402 14.6235 66.5921 14.607 66.6369 14.5778C66.7269 14.5244 66.7153 14.5061 66.7692 14.4638C66.7875 14.4466 66.7998 14.4344 66.8237 14.4344C66.8592 14.4344 66.877 14.4399 66.8954 14.4699C66.9549 14.5772 66.7998 14.7273 66.6736 14.7696Z" fill="white"/>
</svg>
