<svg width="104" height="84" viewBox="0 0 104 84" fill="none" xmlns="http://www.w3.org/2000/svg">
<path d="M0.158682 72.2309V72.6752C1.3964 72.7704 1.52334 72.8973 1.52334 74.6428V80.3236C1.52334 82.0691 1.3964 82.1961 0 82.2913V82.7356H7.87061C7.99756 82.2913 8.34666 80.641 8.41013 80.1015L7.93409 80.0063C7.64846 80.7679 7.39457 81.3392 7.10894 81.6248C6.75984 82.0374 6.02991 82.1009 5.20476 82.1009C4.5383 82.1009 3.93531 82.0691 3.64968 81.8787C3.36405 81.6566 3.30058 81.2122 3.30058 80.2919V77.6578H4.69698C6.09338 77.6578 6.12511 77.7213 6.2838 78.9907H6.79158V75.5314H6.2838C6.12511 76.8009 6.09338 76.8961 4.69698 76.8961H3.30058V73.4686C3.30058 72.8973 3.33232 72.8973 3.93531 72.8973H4.72871C5.74428 72.8973 6.25206 72.9925 6.50595 73.2782C6.75984 73.5321 6.95026 73.9764 7.10894 74.738L7.58499 74.7063C7.48978 73.7225 7.4263 72.5165 7.39457 72.2626H0.158682V72.2309ZM8.3784 80.4188C8.53708 81.1805 8.69576 82.1326 8.79097 82.3865C9.07659 82.5769 9.80653 82.9577 10.8856 82.9577C12.6311 82.9577 13.9005 82.0691 13.9005 80.641C13.8688 79.3398 12.885 78.7368 11.7424 78.3242L11.3299 78.1656C10.6951 77.9434 10.2191 77.5943 10.2191 76.9913C10.2191 76.3883 10.6951 75.9123 11.3299 75.9123C12.1868 75.9123 12.758 76.6105 13.0119 77.5308L13.5197 77.4674C13.3927 76.674 13.3293 76.1027 13.2658 75.6584C12.9802 75.5949 12.2502 75.341 11.552 75.341C9.67959 75.341 8.69576 76.3249 8.69576 77.626C8.69576 78.7368 9.71132 79.2763 10.6317 79.6572L11.076 79.8159C11.9011 80.1332 12.282 80.641 12.282 81.2757C12.282 81.9104 11.7424 82.3548 11.0442 82.3548C9.96521 82.3548 9.10833 81.1805 8.88618 80.3554L8.3784 80.4188ZM19.137 76.1027C19.74 76.1027 20.1526 76.1662 20.343 76.3883C20.5334 76.5787 20.6604 76.8644 20.7873 77.5308L21.2634 77.4991C21.1999 76.8644 21.1047 75.8488 21.1047 75.2776H20.8508C20.6604 75.4997 20.5969 75.5632 20.2161 75.5632H15.17C14.7891 75.5632 14.6622 75.5314 14.4718 75.2776H14.2179C14.1861 75.8488 14.1227 76.6422 14.0592 77.5308H14.5035C14.6622 76.9278 14.7891 76.6105 14.9478 76.4518C15.1382 76.2614 15.4556 76.1027 16.4077 76.1027H16.7885V80.9584C16.7885 82.1326 16.6933 82.2278 15.6143 82.2913V82.7356H19.7083V82.2913C18.5658 82.2278 18.4706 82.1326 18.4706 80.9584V76.1027H19.137ZM28.2771 82.7356V82.2913C27.6106 82.2278 27.2615 82.1961 26.9124 81.3075L24.4687 75.341L23.8657 75.468L21.4538 81.117C21.0095 82.1961 20.7238 82.2278 20.0256 82.2913V82.7356H22.9454V82.2913L22.5645 82.2595C22.1202 82.1961 22.025 82.0691 22.152 81.5931C22.3107 81.117 22.4693 80.6093 22.5328 80.4188H24.7543L25.1352 81.4027C25.4208 82.1009 25.3256 82.1961 24.8813 82.2595L24.5639 82.2913V82.7356H28.2771ZM23.6118 77.5308H23.6753L24.5639 79.8159H22.755L23.6118 77.5308ZM28.3406 75.5314V75.9758C29.2926 76.0392 29.3879 76.1027 29.3879 77.3087V80.9584C29.3879 82.1326 29.2926 82.2278 28.2453 82.2913V82.7356H31.7363C34.3387 82.7356 36.5285 81.5613 36.5285 78.832C36.5285 77.8799 36.1477 77.0231 35.5447 76.5153C34.7513 75.8171 33.5453 75.5314 32.2124 75.5314H28.3406ZM31.0699 76.7692C31.0699 76.4518 31.1016 76.2614 31.1651 76.1979C31.2286 76.1344 31.419 76.1027 31.9268 76.1027C33.6088 76.1027 34.5926 77.0231 34.5926 79.0859C34.5926 80.9584 33.6723 82.1643 31.9585 82.1643C31.1968 82.1643 31.0381 81.9104 31.0381 80.9901V76.7692H31.0699ZM39.0357 78.9272C39.0357 77.0231 39.9561 75.9123 41.0351 75.9123C42.495 75.9123 43.2884 77.626 43.2884 79.3715C43.2884 81.5296 42.3363 82.3548 41.289 82.3548C39.9243 82.3548 39.0357 80.8949 39.0357 78.9272ZM41.162 75.341C39.2579 75.341 37.1315 76.6105 37.1315 79.3081C37.1315 81.0218 38.4962 82.9577 41.162 82.9577C43.2249 82.9577 45.1608 81.5931 45.1608 79.0542C45.1608 76.9913 43.6375 75.341 41.162 75.341Z" fill="#43525A"/>
<path d="M48.2075 77.5308C48.9374 77.5943 49.0009 77.626 49.0009 78.5464V81.3709C49.0009 82.2913 48.9374 82.3548 48.1123 82.3865V82.7356H50.8099C52.841 82.7356 54.523 81.847 54.523 79.7206C54.523 78.9907 54.2374 78.3242 53.7614 77.9117C53.1266 77.3722 52.238 77.15 51.1907 77.15H48.2075V77.5308ZM50.3338 78.1338C50.3338 77.8799 50.3656 77.753 50.3973 77.6895C50.4608 77.626 50.5877 77.626 51.0003 77.626C52.3015 77.626 53.0632 78.3242 53.0632 79.9428C53.0632 81.4027 52.365 82.323 51.0003 82.323C50.3973 82.323 50.3021 82.1326 50.3021 81.4027V78.1338H50.3338ZM56.2368 79.7841C56.2368 78.3242 56.935 77.4674 57.7601 77.4674C58.8709 77.4674 59.5056 78.8003 59.5056 80.1332C59.5056 81.7835 58.7757 82.45 57.9823 82.45C56.935 82.45 56.2368 81.3075 56.2368 79.7841ZM57.8871 77.0231C56.4272 77.0231 54.7452 78.0069 54.7452 80.1015C54.7452 81.4344 55.7925 82.926 57.8871 82.926C59.4739 82.926 60.9973 81.8787 60.9973 79.9111C60.9973 78.2925 59.7913 77.0231 57.8871 77.0231Z" fill="#43525A"/>
<path d="M73.6918 74.9919C73.5966 74.0398 73.5331 73.3416 73.4062 72.453C72.9619 72.3578 71.8828 72.0404 70.4864 72.0404C66.8685 72.0404 64.2661 74.3255 64.2661 77.7213C64.2661 80.2602 65.9799 83.053 70.2008 83.053C71.3433 83.053 72.7714 82.7039 73.2475 82.5769C73.5014 81.9739 73.8505 80.6727 74.0409 79.9111L73.5966 79.8159C72.7714 81.5296 71.9463 82.4182 70.2008 82.4182C67.8523 82.4182 66.3607 80.3236 66.3607 77.3404C66.3607 74.9602 67.5667 72.7386 70.2008 72.7386C71.6924 72.7386 72.708 73.2782 73.2475 75.1189L73.6918 74.9919ZM75.0565 80.9584C75.0565 82.1643 74.9612 82.2278 73.8822 82.2913V82.7356H80.166C80.2612 82.4182 80.5151 81.2122 80.5786 80.7679L80.1025 80.7045C79.9438 81.2122 79.7534 81.5931 79.563 81.8152C79.2774 82.1009 78.7696 82.1643 78.1983 82.1643C77.6271 82.1643 77.278 82.1326 77.0558 82.0057C76.8337 81.8787 76.7385 81.5296 76.7385 80.8949V79.3081H77.8175C78.7696 79.3081 78.8013 79.3715 78.9283 80.1649H79.4043V77.753H78.9283C78.8013 78.5781 78.7696 78.6416 77.8175 78.6416H76.7385V76.4835C76.7385 76.071 76.7702 76.071 77.2145 76.071H77.8175C78.5792 76.071 78.96 76.1979 79.087 76.3566C79.2774 76.547 79.4043 76.8326 79.4995 77.4356L79.9756 77.4039C79.9121 76.5787 79.8486 75.8171 79.8486 75.4997H73.9774V75.944C74.9613 76.0075 75.0565 76.071 75.0565 77.2769V80.9584ZM88.4492 82.7356V82.2913C87.7827 82.2278 87.4336 82.1961 87.0845 81.3075L84.6408 75.341L84.0378 75.468L81.6259 81.117C81.1816 82.1961 80.8959 82.2278 80.1977 82.2913V82.7356H83.1175V82.2913L82.7367 82.2595C82.2923 82.1961 82.1971 82.0691 82.3241 81.5931C82.4828 81.117 82.6414 80.6093 82.7049 80.4188H84.9265L85.3073 81.4027C85.5929 82.1009 85.4977 82.1961 85.0534 82.2595L84.736 82.2913V82.7356H88.4492ZM83.784 77.5308H83.8474L84.736 79.8159H82.9271L83.784 77.5308ZM91.1785 76.5787C91.1785 76.1344 91.2103 76.1027 91.8767 76.1027C92.6701 76.1027 93.4001 76.5787 93.4001 77.5943C93.4001 78.1656 93.2096 78.6416 92.7653 78.9272C92.4797 79.1177 92.0671 79.1494 91.718 79.1494H91.2103V76.5787H91.1785ZM91.1785 79.6889H91.4324C91.9085 79.6889 92.0354 79.7524 92.2258 80.1015C92.5114 80.5458 92.924 81.3392 93.3049 81.847C93.7492 82.4182 94.1617 82.8308 95.6216 82.8625H96.2563L96.3198 82.45C96.0342 82.3548 95.7486 82.1643 95.5264 81.9739C95.336 81.7835 95.0186 81.4661 94.6378 80.8949C94.2887 80.4188 93.7809 79.6254 93.5905 79.3081C94.4791 79.0224 95.1456 78.4195 95.1456 77.4674C95.1456 76.7692 94.7965 76.2296 94.3521 75.944C93.8761 75.6584 93.2731 75.5632 92.5114 75.5632H88.4809V76.0075C89.4648 76.071 89.56 76.1344 89.56 77.3404V80.9901C89.56 82.1643 89.4648 82.2596 88.4492 82.323V82.7673H92.2893V82.323C91.2737 82.2596 91.1785 82.1643 91.1785 80.9901V79.6889ZM104 82.7356V82.2913C103.334 82.2278 102.984 82.1961 102.635 81.3075L100.192 75.341L99.5886 75.468L97.1767 81.117C96.7324 82.1961 96.4468 82.2278 95.7486 82.2913V82.7356H98.6683V82.2913L98.2875 82.2595C97.8432 82.1961 97.7479 82.0691 97.8749 81.5931C98.0336 81.117 98.1923 80.6093 98.2557 80.4188H100.477L100.858 81.4027C101.144 82.1009 101.049 82.1961 100.604 82.2595L100.287 82.2913V82.7356H104ZM99.3348 77.5308H99.3982L100.287 79.8159H98.4779L99.3348 77.5308ZM98.6366 74.8332L98.9857 75.0237L101.271 73.056C101.588 72.7704 101.652 72.5482 101.302 72.3895L101.017 72.1991C100.731 72.0404 100.541 72.0087 100.319 72.3578L98.6366 74.8332Z" fill="#43525A"/>
<path d="M24.913 66.4548C24.913 65.3123 24.9765 65.2489 25.8334 65.1219V64.6459H21.3268V65.1219C23.0406 65.2489 23.1041 65.3441 23.1041 66.4548V67.8195C23.1041 68.4542 22.9771 68.7399 22.6597 68.8668C22.4059 68.9938 22.0885 69.0572 21.5807 69.0572C18.6292 69.0572 17.5819 66.4866 17.5819 64.0112C17.5502 61.0597 19.0735 59.3459 21.3268 59.3459C22.6597 59.3459 23.9927 59.7585 24.437 61.7896L24.9448 61.7261C24.8178 60.4884 24.7226 59.6633 24.6909 59.1238C24.0879 58.9968 22.9454 58.7112 21.5807 58.7112C18.4071 58.7112 15.4556 60.6471 15.4556 64.3285C15.4556 67.5656 17.8676 69.7237 21.4538 69.7237C22.6915 69.7237 23.9609 69.3429 24.9765 69.0572C24.8813 68.7081 24.8813 68.2003 24.8813 67.6291V66.4548H24.913ZM27.7058 65.6297C27.7058 63.7255 28.6262 62.6148 29.7052 62.6148C31.1651 62.6148 31.9585 64.3285 31.9585 66.074C31.9585 68.2321 31.0064 69.0572 29.9591 69.0572C28.5944 69.0572 27.7058 67.5974 27.7058 65.6297ZM29.8639 62.0435C27.9597 62.0435 25.8334 63.313 25.8334 66.0105C25.8334 67.7243 27.198 69.6602 29.8639 69.6602C31.9268 69.6602 33.8627 68.2956 33.8627 65.7567C33.8627 63.6938 32.3076 62.0435 29.8639 62.0435ZM37.9249 69.565C38.8453 67.3117 40.2417 64.265 40.3686 63.9794C40.9081 62.9639 41.0668 62.7734 41.892 62.6782V62.2339H38.9088V62.6782L39.2261 62.71C39.7974 62.7734 39.8291 62.9639 39.607 63.5351C39.3848 64.0746 38.4962 66.5818 38.1471 67.3752L36.4968 63.4716C36.2746 62.9639 36.2746 62.7734 36.7507 62.7417L37.1633 62.6782V62.2339H33.4501V62.6782C34.18 62.7417 34.4339 62.8686 34.783 63.6303L37.3219 69.5333H37.9249V69.565ZM42.7171 67.6608C42.7171 68.8668 42.6219 68.9303 41.5429 68.9938V69.4381H47.8267C47.9219 69.1207 48.1758 67.9147 48.2392 67.4704L47.7632 67.4069C47.6045 67.9147 47.4141 68.2956 47.2237 68.5177C46.9381 68.8033 46.4303 68.8668 45.859 68.8668C45.2878 68.8668 44.9387 68.8351 44.7165 68.7081C44.4944 68.5812 44.3991 68.2321 44.3991 67.5974V66.0105H45.4782C46.4303 66.0105 46.462 66.074 46.589 66.8674H47.065V64.4555H46.589C46.462 65.2806 46.4303 65.3441 45.4782 65.3441H44.3991V63.186C44.3991 62.7734 44.4309 62.7734 44.8752 62.7734H45.4782C46.2399 62.7734 46.6207 62.9004 46.7476 63.0591C46.9381 63.2495 47.065 63.5351 47.1602 64.1381L47.6363 64.1064C47.5728 63.2812 47.5093 62.5195 47.5093 62.2022H41.6381V62.6465C42.6219 62.71 42.7171 62.7734 42.7171 63.9794V67.6608ZM51.032 63.2812C51.032 62.8369 51.0638 62.8052 51.7302 62.8052C52.5237 62.8052 53.2536 63.2812 53.2536 64.2968C53.2536 64.868 53.0632 65.3441 52.6189 65.6297C52.3332 65.8201 51.9207 65.8519 51.5716 65.8519H51.0638V63.2812H51.032ZM51.032 66.3914H51.2859C51.762 66.3914 51.8889 66.4548 52.0793 66.8039C52.365 67.2483 52.7775 68.0417 53.1584 68.5494C53.6027 69.1207 54.047 69.5333 55.4751 69.565H56.1099L56.1733 69.1524C55.8877 69.0572 55.6021 68.8668 55.3799 68.6764C55.1895 68.486 54.8721 68.1686 54.4913 67.5974C54.1422 67.1213 53.6344 66.3279 53.444 66.0105C54.3326 65.7249 54.9991 65.1219 54.9991 64.1698C54.9991 63.4716 54.65 62.9321 54.2057 62.6465C53.7296 62.3609 53.1266 62.2657 52.365 62.2657H48.3345V62.71C49.3183 62.7734 49.4135 62.8369 49.4135 64.0429V67.6926C49.4135 68.8668 49.3183 68.962 48.3027 69.0255V69.4698H52.1428V69.0255C51.1273 68.962 51.032 68.8668 51.032 67.6926V66.3914ZM63.5679 65.3758C63.5679 64.2016 63.6314 63.6621 63.6631 63.2812C63.7266 62.9004 64.0757 62.71 64.7421 62.71V62.2657H61.5368V62.71C62.3302 62.7417 62.711 62.9004 62.7745 63.2812C62.838 63.6303 62.8697 64.2016 62.8697 65.3758V67.0578H62.838L58.4901 62.2657H55.9829V62.71C57.0937 62.7734 57.3476 63.0273 57.3476 64.2968V66.3279C57.3476 67.5021 57.2841 68.0417 57.2524 68.3908C57.1889 68.7716 56.8398 68.962 56.1733 68.9938V69.4381H59.347V68.9938C58.5536 68.962 58.1727 68.7716 58.141 68.3908C58.0775 68.0417 58.0458 67.4704 58.0458 66.3279V64.1698H58.0775L62.838 69.5333H63.5996V65.3758H63.5679ZM66.5828 65.6297C66.5828 63.7255 67.5032 62.6148 68.5822 62.6148C70.0421 62.6148 70.8355 64.3285 70.8355 66.074C70.8355 68.2321 69.8834 69.0572 68.8361 69.0572C67.4715 69.0572 66.5828 67.5974 66.5828 65.6297ZM68.7092 62.0435C66.805 62.0435 64.6787 63.313 64.6787 66.0105C64.6787 67.7243 66.0433 69.6602 68.7092 69.6602C70.772 69.6602 72.708 68.2956 72.708 65.7567C72.708 63.6938 71.1529 62.0435 68.7092 62.0435Z" fill="#43525A"/>
<path d="M75.7547 64.2333C76.4846 64.2968 76.5481 64.3285 76.5481 65.2489V68.0734C76.5481 68.9938 76.4846 69.0572 75.6594 69.089V69.4381H78.357C80.3882 69.4381 82.0702 68.5494 82.0702 66.4231C82.0702 65.6932 81.7846 65.0267 81.3085 64.6141C80.6738 64.0746 79.7852 63.8525 78.7379 63.8525H75.7547V64.2333ZM77.8493 64.8363C77.8493 64.5824 77.881 64.4555 77.9127 64.392C77.9762 64.3285 78.1031 64.3285 78.5157 64.3285C79.8169 64.3285 80.5786 65.0267 80.5786 66.6453C80.5786 68.1051 79.8804 69.0255 78.5157 69.0255C77.9127 69.0255 77.8175 68.8351 77.8175 68.1051V64.8363H77.8493ZM83.784 66.4866C83.784 65.0267 84.4821 64.1698 85.3073 64.1698C86.4181 64.1698 87.0528 65.5028 87.0528 66.8357C87.0528 68.486 86.3229 69.1524 85.5294 69.1524C84.4504 69.1524 83.784 68.0417 83.784 66.4866ZM85.4342 63.7255C83.9744 63.7255 82.2923 64.7094 82.2923 66.8039C82.2923 68.1369 83.3396 69.6285 85.4342 69.6285C87.0211 69.6285 88.5444 68.5812 88.5444 66.6135C88.5127 64.995 87.3067 63.7255 85.4342 63.7255Z" fill="#43525A"/>
<path fill-rule="evenodd" clip-rule="evenodd" d="M62.9371 9.80985C55.7283 8.67429 48.4165 8.80198 41.2077 9.85944L40.6176 9.94622L43.1193 3.99566L43.3028 3.9659C46.1925 3.49482 49.1108 3.1725 52.0414 3.16258C54.977 3.15266 57.9027 3.47126 60.7962 3.95723L60.9759 3.98822L63.5409 9.90407L62.9371 9.80985Z" fill="#0E0F13"/>
<path fill-rule="evenodd" clip-rule="evenodd" d="M60.7379 8.96703L60.4739 7.9232L60.5148 7.92692C61.1545 7.99634 61.7954 8.0732 62.4351 8.16246L62.4487 8.1637L62.9223 9.25216C62.1946 9.14555 61.4669 9.05009 60.7379 8.96703ZM62.2714 7.8575C60.7392 7.65047 59.1982 7.50294 57.6573 7.40377L57.635 7.40253L57.4664 6.39961L57.5036 6.40209C58.9652 6.50746 60.423 6.65871 61.8735 6.86698L61.8884 6.86822L62.3186 7.8637L62.2714 7.8575ZM61.7086 6.56077C61.1731 6.48639 60.6363 6.4182 60.097 6.3587L60.0784 6.35622L59.8193 5.33223L59.8602 5.33719C60.3375 5.39421 60.816 5.4562 61.2921 5.52562L61.3082 5.5281L61.7582 6.56697L61.7086 6.56077ZM61.126 5.21941C59.8305 5.03594 58.5263 4.89709 57.2221 4.79792L57.1998 4.79544L57.025 3.74417L57.0622 3.74789C58.2945 3.88054 59.523 4.05657 60.7441 4.26113L60.759 4.2636L61.1768 5.22561L61.126 5.21941ZM56.7362 3.71318L56.9122 4.77436L56.8775 4.77188C55.3465 4.66403 53.8105 4.60948 52.2757 4.60824H52.2472V3.47144H52.2745C53.7572 3.47392 55.2399 3.56193 56.7139 3.71194L56.7362 3.71318ZM51.9646 3.47144L51.9658 4.60824H51.9385C50.4881 4.6132 49.0376 4.66403 47.5897 4.76072C47.4892 4.76692 47.3876 4.77436 47.2859 4.7818L47.2525 4.78428L47.4273 3.72433L47.4496 3.72186C48.9409 3.57061 50.4385 3.48011 51.9373 3.47144H51.9646ZM47.1384 3.75409L46.9636 4.80535L46.9413 4.80659C45.6173 4.90825 44.297 5.0471 42.9817 5.22809L42.9333 5.23429L43.3387 4.27228L43.3524 4.2698C44.597 4.06773 45.8491 3.89169 47.1012 3.75781L47.1384 3.75409ZM42.823 5.53306C43.3127 5.46363 43.8036 5.40041 44.2958 5.34338L44.3354 5.33843L44.0714 6.38721L44.0528 6.38969C43.5036 6.45044 42.9557 6.51738 42.409 6.59176L42.3594 6.59796L42.8081 5.53554L42.823 5.53306ZM42.2503 6.89673C43.7131 6.69342 45.1834 6.5397 46.6574 6.4306L46.6946 6.42812L46.526 7.4298L46.5037 7.43104C44.9528 7.53517 43.4044 7.68394 41.8635 7.88601L41.8164 7.89221L42.2329 6.89921L42.2503 6.89673ZM41.7048 8.18974C42.3482 8.10296 42.9929 8.0261 43.6363 7.95791L43.6759 7.95419L43.4069 9.02777C42.678 9.11083 41.9503 9.20133 41.2226 9.30175L41.6887 8.19222L41.7048 8.18974ZM43.7044 8.99554L43.9735 7.9232L43.9921 7.92196C45.7202 7.7484 47.4533 7.63559 49.1889 7.57609L49.2211 7.57485L49.1269 8.58024C47.3182 8.65834 45.5082 8.79843 43.7044 8.99554ZM49.4083 8.56785L49.5025 7.56493H49.5273C49.9029 7.55253 50.2798 7.54385 50.6542 7.53641C51.9782 7.51286 53.3047 7.51534 54.6287 7.54881L54.6535 7.55005L54.7477 8.53933C52.9675 8.48603 51.1873 8.49718 49.4083 8.56785ZM55.0291 8.54801L54.9361 7.55749L54.9659 7.55873C56.699 7.60956 58.4321 7.71617 60.1578 7.89097L60.1763 7.89221L60.4392 8.93356C58.6404 8.73644 56.8354 8.60876 55.0291 8.54801ZM59.523 5.29751L59.7809 6.32399L59.7412 6.31903C58.1085 6.14671 56.4684 6.03638 54.8283 5.98307L54.8022 5.98183L54.7142 4.93552L54.7477 4.93676C56.3358 4.99751 57.9238 5.11528 59.5019 5.29504L59.523 5.29751ZM54.4341 4.9256L54.5196 5.97315H54.4886C52.9402 5.92852 51.3906 5.93348 49.8422 5.98307L49.6352 5.98927L49.7244 4.9318L49.7492 4.93056C51.3013 4.87602 52.8559 4.87354 54.4093 4.92436L54.4341 4.9256ZM49.4418 4.94296L49.355 5.99919L49.329 6.00043C47.6864 6.06365 46.045 6.1777 44.4098 6.35002L44.3689 6.35498L44.6342 5.30495L44.6528 5.30247C45.6371 5.19338 46.6215 5.10536 47.6095 5.03966C48.2083 4.99999 48.8095 4.96899 49.4095 4.9442L49.4418 4.94296ZM47.002 6.40581C47.9517 6.3401 48.9013 6.29299 49.8496 6.26324C50.5451 6.24093 51.2418 6.22729 51.9373 6.22357H51.9658V7.24137H51.9385C51.5096 7.24384 51.0782 7.2488 50.6492 7.25624C49.3823 7.2798 48.1141 7.32938 46.8483 7.40873L46.8149 7.4112L46.981 6.40705L47.002 6.40581ZM52.2745 6.22233C53.9035 6.22109 55.5324 6.27068 57.1589 6.37853L57.18 6.37977L57.3461 7.38393L57.3126 7.38269C55.6353 7.28228 53.9555 7.23765 52.2757 7.24013H52.2472V6.22233H52.2745Z" fill="#DBBF8C"/>
<path fill-rule="evenodd" clip-rule="evenodd" d="M52.0625 5.62598C52.6179 5.62598 52.9241 6.03632 53.0704 6.48633L53.7733 8.62853C53.1001 8.62109 51.2071 8.60126 50.534 8.61242L51.0546 6.48633C51.1674 6.0264 51.5084 5.62598 52.0625 5.62598Z" fill="#0E0F13"/>
<path fill-rule="evenodd" clip-rule="evenodd" d="M50.1224 8.35818C50.1645 7.95156 50.198 7.54618 50.2674 7.14204C50.4447 6.11556 50.8786 5.09033 52.0848 5.09033C52.4952 5.09033 52.8745 5.2081 53.1807 5.4858C53.9084 6.14532 53.9543 7.43585 54.0497 8.34951L54.0807 8.66315L53.7659 8.65943C53.6468 8.65695 53.5303 8.65571 53.4125 8.65447L53.1609 8.65199L53.1361 8.40157C53.1001 8.03834 53.0828 7.67511 53.0245 7.31312C52.9402 6.76021 52.7667 6.02135 52.0761 6.02135C51.9175 6.02135 51.7724 6.05978 51.646 6.15771C51.134 6.55814 51.1141 7.80652 51.0608 8.40653L51.0373 8.65695L50.7856 8.66067C50.6604 8.66315 50.5327 8.66563 50.4063 8.66811L50.0889 8.67431L50.1224 8.35818Z" fill="#0E0F13"/>
<path fill-rule="evenodd" clip-rule="evenodd" d="M50.7819 8.3806C50.8625 7.47562 50.8637 5.74128 52.0761 5.74128C53.322 5.74128 53.3245 7.44958 53.415 8.3744C53.534 8.37564 53.6518 8.37688 53.7708 8.37936C53.6506 7.2252 53.6121 5.37061 52.0848 5.37061C50.5947 5.37061 50.5191 7.25371 50.4001 8.38804C50.529 8.38556 50.6542 8.38308 50.7819 8.3806Z" fill="#DBBF8C"/>
<path fill-rule="evenodd" clip-rule="evenodd" d="M45.7053 1.33655V1.15184C45.7053 0.978279 45.7053 0.804721 45.7053 0.631163V0.326196L46.009 0.296443C46.8161 0.217103 47.6256 0.150159 48.4364 0.0980913L48.7934 0.0745369L49.8682 1.09233L50.5389 1.0725C50.5389 1.00555 50.5389 0.939848 50.5389 0.872904C50.5389 0.696867 50.5389 0.520829 50.5389 0.344792V0.0113123L50.8724 0.00759318C51.6807 -0.00108474 52.4877 -0.00232444 53.296 0.00387406L53.6282 0.00635347V0.339833C53.6282 0.51587 53.6282 0.691908 53.6282 0.867945C53.6282 0.93365 53.6282 0.999354 53.6282 1.06506L54.3113 1.08241L55.3737 0.0745369V0.0633797L55.7308 0.0856945C56.5415 0.137762 57.3523 0.203466 58.1606 0.282807L58.4643 0.312559V0.617526C58.4643 0.789845 58.4643 0.962163 58.4643 1.13448V1.33407L60.2086 0.540664L60.5991 0.606369C61.4123 0.742736 62.2231 0.8915 63.0301 1.05266L63.2991 1.10721V1.38242C63.2991 1.54978 63.2991 1.71714 63.2991 1.88326C63.2991 2.05062 63.2991 2.21798 63.2991 2.38534V2.46716L63.2619 2.54154L62.688 3.7738L62.0037 4.3701L61.8908 4.45688L61.7483 4.43457C58.8561 3.97092 55.9502 3.6895 53.0208 3.64116C49.4938 3.58289 46.0016 3.86554 42.518 4.41349L42.3779 4.4358L42.2651 4.35027L41.4606 3.75149L40.9064 2.53782L40.8692 2.46592V2.38534C40.8692 2.21798 40.8692 2.05062 40.8692 1.88326C40.8692 1.71714 40.8692 1.54978 40.8692 1.38242V1.10597L41.142 1.05266C41.949 0.893979 42.7573 0.748934 43.5693 0.616286L43.9598 0.551822L45.7053 1.33655Z" fill="#0E0F13"/>
<path fill-rule="evenodd" clip-rule="evenodd" d="M43.6226 1.97117C44.4284 1.85836 45.233 1.75794 46.04 1.67116C46.04 1.49761 46.04 1.32405 46.04 1.15173C46.04 0.978172 46.04 0.804614 46.04 0.631056C46.8458 0.551715 47.6504 0.484771 48.4575 0.432704C48.4575 0.608741 48.4575 0.783539 48.4575 0.958337C48.4575 1.13437 48.4575 1.30917 48.4575 1.48397C49.2633 1.44678 50.0691 1.41951 50.8761 1.40091C50.8761 1.22487 50.8761 1.04884 50.8761 0.872797C50.8761 0.69676 50.8761 0.520722 50.8761 0.344685C51.6807 0.334767 52.4865 0.333528 53.2935 0.339726C53.2935 0.517004 53.2935 0.691801 53.2935 0.867839C53.2935 1.04388 53.2935 1.21991 53.2935 1.39471C54.0981 1.40959 54.9027 1.43438 55.7097 1.46909C55.7097 1.2943 55.7097 1.12074 55.7097 0.94594C55.7097 0.771142 55.7097 0.596344 55.7097 0.421546C56.5143 0.472374 57.3201 0.538078 58.1271 0.617419C58.1271 0.789738 58.1271 0.962056 58.1271 1.13437C58.1271 1.30669 58.1271 1.47901 58.1271 1.65257C58.9317 1.74059 59.7375 1.84224 60.5445 1.95754C60.5445 1.7877 60.5445 1.61786 60.5445 1.44802C60.5445 1.27818 60.5445 1.10834 60.5445 0.937262C61.3503 1.07239 62.1574 1.22115 62.9644 1.38231C62.9644 1.54967 62.9644 1.71703 62.9644 1.88315C62.9644 2.05051 62.9644 2.21787 62.9644 2.38523C62.8268 2.64805 62.6867 2.91211 62.5529 3.17616L62.5392 3.17368C58.9664 2.60714 55.3849 2.27738 51.7637 2.2873C48.3521 2.29721 44.9764 2.61086 41.6081 3.15013L41.6031 3.15757C41.4705 2.89971 41.3379 2.64309 41.2077 2.38523C41.2077 2.21787 41.2077 2.05051 41.2077 1.88315C41.2077 1.71703 41.2077 1.54967 41.2077 1.38231C42.0122 1.22487 42.8156 1.07983 43.6226 0.947179C43.6226 1.11826 43.6226 1.28934 43.6226 1.45918C43.6226 1.63025 43.6226 1.80009 43.6226 1.97117Z" fill="#DBBF8C"/>
<path fill-rule="evenodd" clip-rule="evenodd" d="M42.466 4.08139C42.161 3.85205 41.9676 3.7132 41.6614 3.48262C48.9112 2.32102 55.1729 2.34705 62.4859 3.50617L61.8003 4.10247C55.2051 3.04624 49.2186 3.02021 42.466 4.08139Z" fill="#DBBF8C"/>
<path fill-rule="evenodd" clip-rule="evenodd" d="M59.0978 1.42593L60.2086 0.933765V0.937484C60.2086 1.10856 60.2086 1.2784 60.2086 1.44824C60.2086 1.48915 60.2086 1.53006 60.2086 1.57097C59.8392 1.52014 59.4685 1.4718 59.0978 1.42593ZM43.9598 0.933765V0.947402C43.9598 1.11848 43.9598 1.28956 43.9598 1.4594C43.9598 1.50155 43.9598 1.5437 43.9598 1.58585C44.3404 1.53378 44.721 1.48543 45.1016 1.43956L43.9598 0.933765ZM49.4331 1.10732L48.7934 0.492432V0.958559C48.7934 1.01682 48.7934 1.07509 48.7934 1.13336C49.0079 1.12344 49.2211 1.11476 49.4331 1.10732ZM54.7477 1.09617L55.3738 0.492432V0.946162C55.3738 1.00319 55.3738 1.06145 55.3738 1.11848C55.1643 1.11104 54.956 1.10236 54.7477 1.09617Z" fill="#E6D2AC"/>
<path fill-rule="evenodd" clip-rule="evenodd" d="M47.1756 8.05445C46.862 8.0842 46.5483 8.0904 46.2347 8.11644L45.3942 8.18586L45.4698 7.34658C45.5318 6.68086 45.6396 6.02134 45.6991 5.35562L45.7165 5.17959L45.8119 5.03082C46.1206 4.55973 46.681 4.23121 47.2525 4.38494C47.6058 4.47915 47.8711 4.73453 48.0124 5.06553L48.0893 5.24157L48.0657 5.43372C47.9827 6.10192 47.8946 6.76888 47.8103 7.43708L47.7421 7.9999L47.1756 8.05445Z" fill="#0E0F13"/>
<path fill-rule="evenodd" clip-rule="evenodd" d="M47.1434 7.70236C46.831 7.73212 46.5161 7.73831 46.2062 7.76435L45.7847 7.79906L45.8243 7.3788C45.8826 6.71308 45.9929 6.05356 46.0524 5.3866L46.0611 5.29858L46.1082 5.22544C46.3326 4.88328 46.738 4.61303 47.1607 4.72584C47.4087 4.79279 47.5872 4.97502 47.6888 5.20561L47.7273 5.29362L47.7149 5.38908C47.6331 6.05852 47.5438 6.72548 47.4607 7.39368L47.4248 7.67509L47.1434 7.70236Z" fill="#DBBF8C"/>
<path fill-rule="evenodd" clip-rule="evenodd" d="M47.1074 7.34913C47.1992 6.61895 47.2723 6.0772 47.3628 5.34577C47.1768 4.91808 46.6946 4.97758 46.4057 5.41892C46.3388 6.16026 46.2433 6.66977 46.1752 7.41111C46.552 7.38012 46.8173 7.37764 47.1074 7.34913Z" fill="#0E0F13"/>
<path fill-rule="evenodd" clip-rule="evenodd" d="M56.8031 8.05445C57.1168 8.0842 57.4329 8.0904 57.7453 8.11644L58.587 8.18586L58.5102 7.34658C58.4507 6.68086 58.3403 6.02134 58.2808 5.35562L58.2647 5.17959L58.1668 5.03082C57.8606 4.55973 57.3002 4.23121 56.7275 4.38494C56.3754 4.47915 56.1114 4.73453 55.9676 5.06553L55.8907 5.24157L55.9155 5.43372C55.9961 6.10192 56.0853 6.76888 56.1684 7.43708L56.2403 7.9999L56.8031 8.05445Z" fill="#0E0F13"/>
<path fill-rule="evenodd" clip-rule="evenodd" d="M56.8391 7.70236C57.149 7.73212 57.4639 7.73831 57.7763 7.76435L58.1953 7.79906L58.1581 7.3788C58.0974 6.71308 57.9883 6.05356 57.9275 5.3866L57.9201 5.29858L57.8718 5.22544C57.6486 4.88328 57.2407 4.61303 56.8192 4.72584C56.5725 4.79279 56.3928 4.97502 56.2936 5.20561L56.2552 5.29362L56.2651 5.38908C56.3494 6.05852 56.4362 6.72548 56.5217 7.39368L56.5552 7.67509L56.8391 7.70236Z" fill="#DBBF8C"/>
<path fill-rule="evenodd" clip-rule="evenodd" d="M56.8713 7.34913C56.7796 6.61895 56.7089 6.0772 56.6172 5.34577C56.8019 4.91808 57.2879 4.97758 57.5742 5.41892C57.6424 6.16026 57.7379 6.66977 57.8048 7.41111C57.4267 7.38012 57.1626 7.37764 56.8713 7.34913Z" fill="#0E0F13"/>
<path fill-rule="evenodd" clip-rule="evenodd" d="M51.7898 52.7679C51.072 51.3757 49.3352 50.1881 48.0335 49.3835C46.076 48.1748 43.9796 47.1446 41.9527 46.0549C40.0064 45.0074 37.9956 43.8743 36.265 42.492C34.7811 41.3056 33.369 39.8143 32.8013 37.9597C32.6277 37.387 32.5372 36.7969 32.5372 36.1981C32.5372 33.4125 33.5054 30.9083 34.5443 28.3731C35.3179 26.4825 36.4237 24.0688 36.1943 21.9911C35.9588 19.8749 34.4798 18.4208 32.7728 17.3174L32.469 17.1216L38.1778 9.77386L38.3018 9.75154C47.4496 8.192 56.7362 7.98993 65.8715 9.75278L65.9918 9.77634L71.6956 17.1216L71.3919 17.3174C69.6848 18.4208 68.2084 19.8749 67.9728 21.9911C67.741 24.0688 68.848 26.4825 69.6204 28.3731C70.6605 30.9083 71.6275 33.4112 71.6275 36.1981C71.6275 36.7969 71.5382 37.387 71.3634 37.9597C70.7956 39.8143 69.3861 41.3056 67.8997 42.492C66.1691 43.8743 64.1595 45.0074 62.2107 46.0549C60.1863 47.1446 58.0887 48.1748 56.1324 49.3835C54.8307 50.1881 53.0952 51.3757 52.3749 52.7679L52.0823 53.3357L51.7898 52.7679Z" fill="#0E0F13"/>
<path fill-rule="evenodd" clip-rule="evenodd" d="M52.0823 52.618C49.3389 47.2996 32.867 44.1756 32.867 36.1981C32.867 28.2219 41.1866 22.3593 32.9513 17.0423L38.3564 10.0751C48.0508 8.42262 57.1899 8.41271 65.8071 10.0751L71.2146 17.0423C62.9781 22.3593 71.2977 28.2219 71.2977 36.1981C71.2977 44.1756 54.8283 47.2996 52.0823 52.618Z" fill="white"/>
<path fill-rule="evenodd" clip-rule="evenodd" d="M51.853 50.1944C50.9753 49.3403 49.9377 48.6299 48.9013 47.9877C46.9078 46.7555 44.7979 45.7191 42.735 44.6096C39.9977 43.1368 35.3377 40.6165 34.3769 37.4813C34.2505 37.0647 34.186 36.6346 34.186 36.1982C34.186 33.6642 35.1245 31.3026 36.0691 28.993C36.9791 26.7703 38.075 24.2648 37.801 21.8102C37.5791 19.8106 36.508 18.2498 34.998 16.9766L34.7563 16.7733L39.0791 11.2864L39.2043 11.2666C47.7422 9.87065 56.4263 9.68966 64.9554 11.2517L65.0781 11.274L69.4109 16.7733L69.1667 16.9766C67.658 18.2498 66.5856 19.8106 66.3625 21.8102C66.0897 24.2648 67.1856 26.7703 68.0956 28.993C69.0427 31.3026 69.9812 33.6642 69.9812 36.1982C69.9812 40.0834 64.4013 43.0128 61.4309 44.6096C59.3681 45.7191 57.2593 46.7555 55.2659 47.9877C54.2258 48.6299 53.1906 49.3403 52.3129 50.1944L52.0824 50.4175L51.853 50.1944Z" fill="#0E0F13"/>
<path fill-rule="evenodd" clip-rule="evenodd" d="M52.0823 49.959C52.991 49.0751 54.0832 48.3312 55.0923 47.7089C57.0833 46.4779 59.2106 45.4304 61.2722 44.3208C64.0603 42.822 69.6514 39.9112 69.6514 36.1983C69.6514 33.7139 68.7179 31.3808 67.7906 29.1171C66.8546 26.8324 65.755 24.2959 66.0352 21.7744C66.2707 19.6532 67.4162 18.0243 68.9547 16.7263L64.8946 11.5754C56.3965 10.0183 47.7682 10.1993 39.2576 11.5902L35.21 16.7263C36.751 18.0243 37.894 19.6532 38.1295 21.7744C38.4084 24.2959 37.3088 26.8324 36.3741 29.1171C35.4468 31.3808 34.5145 33.7139 34.5145 36.1983C34.5145 36.6024 34.574 36.9991 34.6918 37.3847C35.6166 40.4083 40.2841 42.9187 42.8912 44.3208C44.9541 45.4304 47.0814 46.4779 49.0748 47.7089C50.0827 48.3312 51.1736 49.0751 52.0823 49.959Z" fill="#0F9848"/>
<path fill-rule="evenodd" clip-rule="evenodd" d="M58.5449 41.2711L58.2114 42.3546L57.1292 42.3521L58.0056 43.0203L57.6697 44.1026L58.5449 43.4319L59.4177 44.1026L59.0817 43.0203L59.9594 42.3521L58.8772 42.3546L58.5449 41.2711ZM52.0117 43.9488L51.6794 45.0323L50.596 45.0298L51.4724 45.698L51.1377 46.7803L52.0117 46.1096L52.8869 46.7803L52.551 45.698L53.4274 45.0298L52.3452 45.0323L52.0117 43.9488ZM45.4165 41.2711L45.7487 42.3546L46.8322 42.3521L45.9557 43.0203L46.2917 44.1026L45.4165 43.4319L44.5425 44.1026L44.8784 43.0203L44.0007 42.3521L45.0842 42.3546L45.4165 41.2711ZM40.2221 37.7528L40.5556 38.8363L41.6379 38.8338L40.7614 39.502L41.0974 40.5843L40.2221 39.9136L39.3481 40.5843L39.6853 39.502L38.8064 38.8338L39.8899 38.8363L40.2221 37.7528ZM37.9126 32.4642L37.5779 33.549L36.4956 33.5465L37.3745 34.2135L37.0361 35.2957L37.9126 34.625L38.7878 35.2957L38.4494 34.2135L39.3283 33.5465L38.2448 33.549L37.9126 32.4642ZM39.0928 25.8653L38.7605 26.9488L37.677 26.9463L38.5535 27.6145L38.2175 28.6968L39.0928 28.0261L39.9668 28.6968L39.6296 27.6145L40.5085 26.9463L39.4238 26.9488L39.0928 25.8653ZM40.0039 18.5002L39.6717 19.5837L38.5882 19.5813L39.4647 20.2482L39.13 21.3305L40.0039 20.6598L40.8792 21.3305L40.542 20.2482L41.4197 19.5813L40.3374 19.5837L40.0039 18.5002Z" fill="white"/>
<path fill-rule="evenodd" clip-rule="evenodd" d="M65.5653 41.8451L37.3336 13.6133L37.6274 13.2749L65.9199 41.5661L65.5653 41.8451Z" fill="#0E0F13"/>
<path fill-rule="evenodd" clip-rule="evenodd" d="M52.0811 14.0024C54.356 14.0024 56.4696 14.6669 58.2697 16.0641C66.6377 22.5589 64.5513 42.0209 52.0811 42.0209C49.7567 42.0209 47.5996 41.3354 45.776 39.8874C37.5121 33.3294 39.7225 14.0024 52.0811 14.0024Z" fill="#0E0F13"/>
<path fill-rule="evenodd" clip-rule="evenodd" d="M62.6905 28.528H41.4606C41.2883 21.6514 44.8363 14.5925 52.0774 14.5925C59.316 14.5925 62.8665 21.6514 62.6905 28.528Z" fill="#75CEE0"/>
<path fill-rule="evenodd" clip-rule="evenodd" d="M41.4594 27.8115H47.431V28.0694H41.4532V28.0111H41.4569C41.4569 27.9454 41.4581 27.8785 41.4581 27.8115H41.4594Z" fill="#C59F28"/>
<path fill-rule="evenodd" clip-rule="evenodd" d="M41.5077 26.6376L47.4607 27.819L47.4099 28.0707L41.4903 26.8967C41.4978 26.8099 41.5015 26.7244 41.5077 26.6376Z" fill="#FFC927"/>
<path fill-rule="evenodd" clip-rule="evenodd" d="M41.6391 25.4153L47.4868 27.8315L47.3876 28.0682L41.6056 25.6793C41.6168 25.5913 41.6267 25.5033 41.6391 25.4153Z" fill="#FFC927"/>
<path fill-rule="evenodd" clip-rule="evenodd" d="M41.8747 24.095L47.5103 27.8475L47.369 28.062L41.8189 24.3652C41.8362 24.2747 41.8573 24.1855 41.8747 24.095Z" fill="#FFC927"/>
<path fill-rule="evenodd" clip-rule="evenodd" d="M42.2664 22.6246L47.5302 27.8698L47.3479 28.0508L42.1796 22.9036C42.2081 22.8106 42.2366 22.7176 42.2664 22.6246Z" fill="#FFC927"/>
<path fill-rule="evenodd" clip-rule="evenodd" d="M42.8924 20.967L47.545 27.8945L47.3318 28.0371L42.7709 21.2472C42.8106 21.153 42.8515 21.06 42.8924 20.967Z" fill="#FFC927"/>
<path fill-rule="evenodd" clip-rule="evenodd" d="M43.8867 19.1361L47.5574 27.9219L47.3194 28.021L43.7193 19.4002C43.7751 19.3121 43.8297 19.2229 43.8867 19.1361Z" fill="#FFC927"/>
<path fill-rule="evenodd" clip-rule="evenodd" d="M45.4004 17.2766L47.5599 27.9504L47.3083 28.0013L45.1822 17.4973C45.2553 17.4217 45.326 17.3485 45.4004 17.2766Z" fill="#FFC927"/>
<path fill-rule="evenodd" clip-rule="evenodd" d="M47.5128 15.7072L47.5599 27.9802L47.3033 27.9814L47.2562 15.8522C47.3417 15.8026 47.426 15.7543 47.5128 15.7072Z" fill="#FFC927"/>
<path fill-rule="evenodd" clip-rule="evenodd" d="M50.1249 14.7762L47.5537 28.0088L47.3021 27.9605L49.8534 14.832C49.9426 14.8122 50.0344 14.7936 50.1249 14.7762Z" fill="#FFC927"/>
<path fill-rule="evenodd" clip-rule="evenodd" d="M53.0183 14.6336L47.5426 28.036L47.3045 27.9381L52.7468 14.6138C52.8373 14.6187 52.9278 14.6262 53.0183 14.6336Z" fill="#FFC927"/>
<path fill-rule="evenodd" clip-rule="evenodd" d="M55.9167 15.3551L47.524 28.0595L47.3095 27.9182L55.675 15.2546C55.7556 15.2869 55.8362 15.3203 55.9167 15.3551Z" fill="#FFC927"/>
<path fill-rule="evenodd" clip-rule="evenodd" d="M58.4569 16.9977L47.5041 28.0794L47.3194 27.8996L58.2647 16.8279C58.328 16.8837 58.3924 16.9407 58.4569 16.9977Z" fill="#FFC927"/>
<path fill-rule="evenodd" clip-rule="evenodd" d="M60.3995 19.3445L47.4781 28.0956L47.333 27.8823L60.2619 19.1276C60.3065 19.1995 60.3549 19.2714 60.3995 19.3445Z" fill="#FFC927"/>
<path fill-rule="evenodd" clip-rule="evenodd" d="M61.7086 22.0866L47.4508 28.1053L47.3504 27.8686L61.6193 21.8448C61.6503 21.9254 61.6801 22.006 61.7086 22.0866Z" fill="#FFC927"/>
<path fill-rule="evenodd" clip-rule="evenodd" d="M62.4524 25.0074L47.4223 28.1104L47.3702 27.8587L62.4091 24.7545C62.4239 24.8388 62.4388 24.9231 62.4524 25.0074Z" fill="#FFC927"/>
<path fill-rule="evenodd" clip-rule="evenodd" d="M62.6991 27.9915L47.3913 28.1093L47.3901 27.8526L62.6979 27.7349C62.6991 27.8204 62.6991 27.9059 62.7004 27.9915H62.6991Z" fill="#C59F28"/>
<path fill-rule="evenodd" clip-rule="evenodd" d="M47.431 24.079C49.5955 24.079 51.3522 25.8294 51.3522 27.9878H43.511C43.511 25.8294 45.2665 24.079 47.431 24.079Z" fill="#FFC927"/>
<path fill-rule="evenodd" clip-rule="evenodd" d="M47.431 24.4148C49.4195 24.4148 51.0311 25.9756 51.0311 27.9008H43.8321C43.8321 25.9756 45.4437 24.4148 47.431 24.4148Z" fill="#FFC927"/>
<path fill-rule="evenodd" clip-rule="evenodd" d="M41.4594 27.7348C44.84 27.7361 48.2207 27.7299 51.6026 27.7299H53.4287L51.6856 28.2778C50.772 28.5642 49.6091 29.0712 49.3352 30.0915C49.1306 30.8626 49.4591 31.7837 49.7654 32.4866C50.2141 33.5143 50.7955 34.4986 51.2964 35.504C52.2125 37.3413 53.0022 39.4463 52.0712 41.4298C44.8723 41.4273 41.3478 34.5346 41.4594 27.7348Z" fill="#0E0F13"/>
<path fill-rule="evenodd" clip-rule="evenodd" d="M51.6026 28.0098C44.5288 30.2325 54.3522 36.2934 51.765 41.4209C44.871 41.2262 41.4445 34.6199 41.4531 28.011C44.4421 28.011 48.4289 28.0098 51.6026 28.0098Z" fill="#75CEE0"/>
<path fill-rule="evenodd" clip-rule="evenodd" d="M57.4478 24.7496C58.9478 24.5897 58.7346 21.54 61.4074 21.5115C61.4347 21.5103 61.4644 21.5115 61.4917 21.5127C62.3235 23.5917 62.7252 25.9422 62.6954 28.284H51.5741L51.6968 27.9146C51.92 27.2526 52.4257 26.5063 52.8596 25.9633C53.2068 25.5294 53.6146 25.0905 54.056 24.7508C54.3919 24.4942 54.863 24.2066 55.3056 24.2785C55.6093 24.3269 55.9143 24.4099 56.2106 24.4893C56.4734 24.5587 57.1961 24.7756 57.4478 24.7496Z" fill="#0E0F13"/>
<path fill-rule="evenodd" clip-rule="evenodd" d="M57.4763 25.0285C57.066 25.0719 55.9701 24.6702 55.2597 24.555C54.289 24.3975 52.3774 26.7629 51.9621 28.0026H62.6992C62.6954 25.8641 62.3285 23.7281 61.6045 21.8065C61.54 21.7966 61.4768 21.7904 61.4111 21.7917C58.9019 21.8177 59.2094 24.8426 57.4763 25.0285Z" fill="#0F9848"/>
<path fill-rule="evenodd" clip-rule="evenodd" d="M45.5169 35.7855C44.3541 33.4127 44.3565 31.0932 46.8397 29.6923L47.7074 29.2014L47.2227 30.0729C47.0405 30.399 46.9351 30.751 46.9735 31.1267C47.0876 32.2684 48.5851 33.4362 49.4195 34.097L49.8881 34.4689L49.3029 34.5916C48.1475 34.8309 46.8992 35.1966 45.9297 35.8908L45.6619 36.083L45.5169 35.7855Z" fill="#0E0F13"/>
<path fill-rule="evenodd" clip-rule="evenodd" d="M45.7685 35.6625C44.4247 32.9227 45.0111 31.0446 46.976 29.9363C46.0822 31.538 47.3591 32.8223 49.2459 34.3161C47.9132 34.5926 46.7033 34.993 45.7685 35.6625Z" fill="white"/>
<path fill-rule="evenodd" clip-rule="evenodd" d="M48.7909 35.7221H48.1798C48.1822 35.7109 48.1835 35.6985 48.1835 35.6861V35.3502C48.1835 35.2721 48.1215 35.2089 48.0434 35.2089H47.705C47.6269 35.2089 47.5624 35.2721 47.5624 35.3502V35.6861C47.5624 35.6985 47.5661 35.7109 47.5686 35.7221H45.1289V35.5101H44.6516V35.7221H44.1185C43.9784 35.8312 43.9784 35.9676 44.1185 36.1287C45.6198 36.3804 47.1768 36.3804 48.7909 36.1287C48.931 35.9936 48.931 35.8572 48.7909 35.7221Z" fill="#0E0F13"/>
<path fill-rule="evenodd" clip-rule="evenodd" d="M59.8268 37.5469C57.5098 36.3457 54.3002 36.0891 52.5076 34.1923C50.6889 32.2646 50.3505 30.1125 51.7761 27.8612L51.8592 27.7285L62.6967 27.8574C62.7301 31.4042 61.7756 34.9634 59.8268 37.5469Z" fill="#0E0F13"/>
<path fill-rule="evenodd" clip-rule="evenodd" d="M52.0253 28.0225C51.2753 28.2766 50.4001 28.7514 50.0393 29.0663C48.8108 30.1386 49.4009 31.7453 50.7993 34.159C52.0501 36.3185 53.2191 38.9033 52.0885 41.4435C60.5904 41.4435 62.7091 32.9379 62.7091 28.1502L52.0253 28.0225Z" fill="#FECF9E"/>
<path fill-rule="evenodd" clip-rule="evenodd" d="M62.6991 28.0608H56.0667L56.8924 27.5439C57.6312 27.0802 58.1804 26.5286 58.7693 25.8963C59.1511 25.486 59.6396 24.9157 60.2135 24.8054C60.3338 24.7831 60.4553 24.7794 60.578 24.793C60.8954 24.8314 61.214 24.8947 61.5264 24.9566C61.7979 25.0099 62.0694 25.0657 62.3433 25.1116C62.3818 25.1178 62.4252 25.1252 62.4723 25.1327C62.6223 26.0959 62.7004 27.0778 62.6991 28.0608Z" fill="#0E0F13"/>
<path fill-rule="evenodd" clip-rule="evenodd" d="M62.5157 25.4214C61.969 25.3495 61.1309 25.1412 60.5445 25.0718C59.5119 24.9479 58.9441 26.5867 57.0399 27.7806H62.6954C62.6843 26.9896 62.6248 26.1987 62.5157 25.4214Z" fill="#0F9848"/>
<path d="M46.6686 20.754H48.0905V21.5078H46.6686V20.754Z" fill="#FFC927"/>
<path fill-rule="evenodd" clip-rule="evenodd" d="M47.3715 19.2155C47.6467 19.2155 47.8698 19.4374 47.8698 19.7113C47.8698 19.9865 47.6467 20.2085 47.3715 20.2085C47.095 20.2085 46.8719 19.9865 46.8719 19.7113C46.8719 19.4374 47.095 19.2155 47.3715 19.2155Z" fill="#0E0F13"/>
<path fill-rule="evenodd" clip-rule="evenodd" d="M47.3715 19.4919C47.493 19.4919 47.5921 19.5899 47.5921 19.7114C47.5921 19.8329 47.493 19.932 47.3715 19.932C47.25 19.932 47.1496 19.8329 47.1496 19.7114C47.1496 19.5899 47.25 19.4919 47.3715 19.4919Z" fill="white"/>
<path fill-rule="evenodd" clip-rule="evenodd" d="M46.4578 25.3656L46.6723 21.7891H48.1079L48.326 25.3656H46.4578Z" fill="#0E0F13"/>
<path fill-rule="evenodd" clip-rule="evenodd" d="M46.7516 25.0879L46.9351 22.0656H47.8463L48.031 25.0879H46.7516Z" fill="white"/>
<path d="M46.3202 21.2301H48.4389V22.3024H46.3202V21.2301Z" fill="#0E0F13"/>
<path d="M46.5979 21.5078H48.1612V22.026H46.5979V21.5078Z" fill="white"/>
<path fill-rule="evenodd" clip-rule="evenodd" d="M46.464 22.8739H49.1814V27.9815H45.5999V22.8739H46.464Z" fill="#0E0F13"/>
<path fill-rule="evenodd" clip-rule="evenodd" d="M46.3103 23.5818H46.7417V23.1516H47.1731V23.5818H47.607V23.1516H48.0372V23.5818H48.4698V23.1516H48.9037V27.705H45.8776V23.1516H46.3103V23.5818Z" fill="white"/>
<path fill-rule="evenodd" clip-rule="evenodd" d="M47.374 26.2855C47.6095 26.2855 47.7818 26.5173 47.7818 26.774C47.7818 27.0579 47.7818 27.4905 47.7818 27.7756H46.9686V26.774C46.9686 26.5173 47.1397 26.2855 47.374 26.2855Z" fill="#0E0F13"/>
<path d="M47.0144 24.7161H47.7645V25.4524H47.0144V24.7161Z" fill="#0E0F13"/>
<path d="M45.7326 24.0925H49.0475V24.3814H45.7326V24.0925Z" fill="#0E0F13"/>
<path d="M45.7326 25.7067H49.0475V25.9955H45.7326V25.7067Z" fill="#0E0F13"/>
<path d="M47.2351 20.6697H47.524V21.4383H47.2351V20.6697Z" fill="#0E0F13"/>
<path fill-rule="evenodd" clip-rule="evenodd" d="M47.3789 19.7151C47.8525 19.7151 48.3856 20.0176 48.3856 20.5382V20.8891H46.376V20.5382C46.376 20.0176 46.9066 19.7151 47.3789 19.7151Z" fill="#0E0F13"/>
<path fill-rule="evenodd" clip-rule="evenodd" d="M47.3789 19.9915C47.7806 19.9915 48.1054 20.2382 48.1054 20.5382V20.6113H46.6537V20.5382C46.6537 20.2382 46.9797 19.9915 47.3789 19.9915Z" fill="white"/>
<path d="M46.5806 20.6624H46.8706V21.4384H46.5806V20.6624Z" fill="#0E0F13"/>
<path d="M47.8884 20.6697H48.1773V21.4383H47.8884V20.6697Z" fill="#0E0F13"/>
<path fill-rule="evenodd" clip-rule="evenodd" d="M52.6117 18.8128C53.5638 18.7942 54.5047 18.8834 55.4048 19.2119C56.1771 19.4946 56.8515 19.9297 57.4465 20.495L57.8817 20.9091L55.8312 21.1421L55.7333 21.0331C54.8469 20.0363 53.7212 19.8615 52.5113 19.5082C52.3005 19.4475 51.8952 19.3905 51.9373 19.0768C51.9807 18.7619 52.3935 18.8165 52.6117 18.8128Z" fill="#0E0F13"/>
<path fill-rule="evenodd" clip-rule="evenodd" d="M52.6191 19.0927C53.5402 19.0754 54.444 19.1585 55.3081 19.4746C55.9824 19.7213 56.6321 20.1081 57.2519 20.6982L55.9428 20.8469C54.9944 19.7808 53.8105 19.5948 52.5881 19.239C52.0774 19.0903 52.096 19.1027 52.6191 19.0927Z" fill="white"/>
<path fill-rule="evenodd" clip-rule="evenodd" d="M58.8623 19.7113C59.0383 19.8142 59.1709 20.025 59.1846 20.2221C59.3371 20.4403 59.3408 20.8035 59.1003 20.9609C58.7036 21.2176 58.2883 21.2448 57.8854 21.3725C58.0862 22.0159 58.4246 22.6407 58.4023 23.33C58.3986 23.4639 58.3862 23.5965 58.3676 23.7292C58.2337 24.6862 57.7651 25.5317 57.599 26.4603C57.568 26.645 57.6027 27.0144 57.294 27.0243C56.9841 27.0355 56.9977 26.6685 56.9643 26.4863C56.8502 25.833 56.8019 25.1524 56.7275 24.4928C56.6593 23.878 56.5316 22.6878 56.1882 22.1436C55.9589 22.0035 55.7159 21.8907 55.463 21.8027L55.4506 21.7977C55.2832 21.7308 55.0576 21.701 54.8729 21.6849C54.6956 21.7296 54.4799 21.7531 54.3039 21.8027L53.8787 21.9192L53.9543 21.4853C53.9877 21.2808 54.0634 21.0787 54.1464 20.8878C54.3125 20.5134 54.6051 20.258 55.0266 20.289L56.3134 20.0212L56.3519 20.0237C56.5775 20.0398 56.8192 19.9791 57.0312 19.906C57.268 19.8241 57.4949 19.7163 57.7217 19.6084C57.8916 19.5266 58.1147 19.4126 58.3007 19.3766C58.5288 19.332 58.773 19.5006 58.8623 19.7113Z" fill="#0E0F13"/>
<path fill-rule="evenodd" clip-rule="evenodd" d="M56.3308 20.304C57.0944 20.3573 57.9895 19.7214 58.354 19.6519C58.4779 19.6271 58.6974 19.8354 58.5895 19.9395C58.5213 20.0065 58.1073 20.1615 57.9895 20.2234C57.9102 20.2643 58.5734 19.9172 58.6602 19.9296C58.8437 19.9581 58.9577 20.2631 58.8771 20.3276C58.8771 20.3276 58.287 20.4875 58.111 20.5693C57.9474 20.6437 58.6007 20.3412 58.8771 20.3276C58.9751 20.3226 59.0879 20.635 58.9466 20.7255C58.5325 20.9958 57.9821 21.0069 57.5445 21.2016C57.7118 21.8698 58.1445 22.6309 58.1234 23.3214C58.0874 24.3975 57.5035 25.4041 57.325 26.412C57.2531 26.8062 57.3201 26.893 57.2395 26.4368C57.0089 25.124 56.9953 22.802 56.3878 21.9379C56.1399 21.7793 55.8622 21.6454 55.556 21.5388C55.3923 21.4731 55.1593 21.4272 54.8493 21.4012C54.6832 21.447 54.3683 21.514 54.201 21.5598C54.2543 21.2474 54.4551 20.4987 55.0415 20.573L56.3308 20.304Z" fill="white"/>
<path fill-rule="evenodd" clip-rule="evenodd" d="M54.9845 21.0814C55.0539 21.0863 55.1171 21.0305 55.1221 20.9562C55.1258 20.8805 55.0737 20.8161 55.0031 20.8099C54.9324 20.8049 54.8704 20.8607 54.8655 20.9363C54.8593 21.0107 54.9126 21.0752 54.9845 21.0814Z" fill="#0E0F13"/>
<path fill-rule="evenodd" clip-rule="evenodd" d="M57.3709 22.9397L57.9399 24.8972L57.7664 25.0844L57.1564 23.0029L57.3709 22.9397Z" fill="#0E0F13"/>
<path fill-rule="evenodd" clip-rule="evenodd" d="M57.6238 22.5193L58.2164 23.7602L58.1023 24.0243L57.423 22.616L57.6238 22.5193Z" fill="#0E0F13"/>
<path fill-rule="evenodd" clip-rule="evenodd" d="M58.8685 19.9259L57.9362 20.3722L57.8407 20.1701L58.6428 19.7908L58.8685 19.9259Z" fill="#0E0F13"/>
<path fill-rule="evenodd" clip-rule="evenodd" d="M59.073 20.4751L58.0664 20.7143L58.0156 20.4961L58.9714 20.2631L59.073 20.4751Z" fill="#0E0F13"/>
<path fill-rule="evenodd" clip-rule="evenodd" d="M58.6528 31.7378L58.6205 31.7465L58.5908 31.7391C58.3193 31.6473 58.0317 31.6014 57.7416 31.5928L58.349 31.4886L58.3118 31.268L57.5978 31.3895C57.811 31.2605 58.0403 31.1552 58.23 31.0783L58.2908 31.0498L58.3738 31.0609L59.4077 31.2258L58.6528 31.7378ZM59.6135 33.0668L59.4077 33.0234L59.171 32.6056L59.6135 33.0668ZM58.6366 32.8635L58.6354 32.861L58.6267 32.8498C58.3912 32.5225 58.1184 32.2622 57.7974 32.0614L58.2437 32.2077L58.3118 31.9944L57.7763 31.8184C58.0255 31.8296 58.2722 31.8692 58.5077 31.9473L58.5573 31.9709L58.5846 32.018L59.1164 32.9626L58.6366 32.8635ZM58.3912 33.0407L58.2957 34.0263L57.8085 33.5131L57.7565 33.4771L57.7354 33.3953C57.6337 33.0135 57.5519 32.6812 57.3907 32.3564L57.8098 32.7916L57.9709 32.6366L57.5023 32.1494C57.8457 32.3304 58.1358 32.5771 58.3837 32.8982L58.4023 32.9639L58.3912 33.0407ZM57.5445 33.5602L57.3436 34.0313C57.3288 33.5949 57.3164 33.1598 57.304 32.7234C57.3969 32.9713 57.4602 33.2304 57.5345 33.5168L57.5445 33.5329V33.5602ZM56.4449 37.578L56.4572 37.2359L57.2358 37.821L57.242 38.1781L56.4449 37.578ZM56.461 38.2921L56.4225 38.2636L56.4337 37.9214L56.9259 38.2921H56.461ZM55.9527 33.4226L55.9514 33.4263L55.9316 33.4734L55.8969 33.5131L55.4109 34.0263L55.313 33.0407L55.3118 32.9676L55.3242 32.9069C55.5572 32.6168 55.8176 32.3825 56.1188 32.2027L55.706 32.6155L55.8634 32.7742L56.3829 32.256C56.1721 32.623 56.0618 32.9825 55.9527 33.4226ZM56.342 33.9817L56.161 33.5602L56.1572 33.5131C56.1672 33.4895 56.1709 33.466 56.1783 33.4412C56.2378 33.1994 56.2998 32.9837 56.3816 32.7754L56.342 33.9817ZM55.1122 32.8151L55.0899 32.8399L55.07 32.8622L54.5903 32.9626L55.1221 32.018L55.1568 31.9746L55.199 31.9486C55.4407 31.8729 55.6924 31.8296 55.9477 31.8172L55.3874 32.0068L55.4568 32.2188L55.9143 32.0651C55.6105 32.261 55.3477 32.5114 55.1122 32.8151ZM54.2989 33.0234L54.0919 33.0668L54.5345 32.6056L54.2989 33.0234ZM54.2853 31.2159L55.2634 31.0609L55.3242 31.0498L55.3824 31.0671L56.0122 31.3758L55.3837 31.268L55.3465 31.4886L55.9539 31.5928C55.6676 31.6052 55.3849 31.6535 55.1147 31.7403L55.0849 31.744L55.0539 31.7378L54.2853 31.2159ZM54.7427 29.7555L54.9386 29.8361L55.0452 30.2415L54.7427 29.7555ZM55.375 29.7716L55.127 29.67L55.0998 29.5683L55.375 29.7716ZM56.0345 30.2836L56.0878 30.3084L56.1176 30.3493C56.28 30.5923 56.4027 30.844 56.4944 31.1068L55.8833 30.4758L55.7209 30.6308L56.5279 31.4638L56.5217 31.4626C56.2118 31.1961 55.7977 30.9928 55.4667 30.8613L55.4271 30.808L55.199 29.9415L56.0345 30.2836ZM56.7994 29.2225L57.3077 30.213L57.3114 30.2452L57.3015 30.2712C57.1589 30.4894 57.0486 30.7138 56.9606 30.9469V30.1312H56.7362V31.1229C56.637 30.8142 56.4994 30.5204 56.3134 30.239L56.3035 30.1807L56.7994 29.2225ZM57.2159 37.1045L57.2259 37.4628L56.4696 36.8925L56.4808 36.5491L57.2159 37.1045ZM57.1961 36.3855L57.206 36.745L56.492 36.2057L56.5031 35.8635L57.1961 36.3855ZM57.1726 35.6652L57.1837 36.0247L56.5143 35.5201L56.5254 35.178L57.1726 35.6652ZM57.1478 34.9437L57.1589 35.3044L56.5378 34.8346L56.5502 34.4924L57.1478 34.9437ZM57.1242 34.2234L57.1354 34.5829L56.5614 34.149L56.5725 33.8069L57.1242 34.2234ZM57.1019 33.5031L57.113 33.8627L56.5825 33.4635L56.5949 33.1213L57.1019 33.5031ZM56.6308 32.0924L56.6407 31.7787L56.6544 31.7601L57.0635 32.0688L57.0709 32.4258L56.6308 32.0924ZM57.0808 32.7854L57.092 33.1436L56.606 32.7779L56.6172 32.4358L57.0808 32.7854ZM57.4974 30.3816L57.5296 30.3357L57.5804 30.3146L58.4284 29.9675L58.2077 30.808L58.2027 30.844L58.1693 30.8613C57.8717 30.9791 57.5098 31.1539 57.2147 31.3808L57.9176 30.5713L57.749 30.4237L57.1316 31.1353C57.2209 30.8737 57.3399 30.6233 57.4974 30.3816ZM58.53 29.5869L58.5015 29.696L58.2375 29.8039L58.53 29.5869ZM58.6899 29.8609L58.8734 29.7865L58.5883 30.2415L58.6899 29.8609ZM60.1999 31.9411L60.1912 31.718L59.4226 31.744L60.1615 31.5035L60.0921 31.2903L59.3594 31.5295L59.7325 31.2766H59.7338L59.735 31.2754L60.0102 31.0894L59.8838 30.9035L59.6805 31.0411L59.1325 30.9543L59.8441 30.8762L59.8193 30.6543L59.0123 30.7423L59.74 30.4262L59.652 30.2204L58.9181 30.539L59.523 30.0171L59.3767 29.8473L58.7742 30.3667L59.2044 29.6774L59.0135 29.5597L59.0048 29.5733L58.9751 29.5026L58.7606 29.5894L58.7928 29.4729L58.7135 29.4518L58.8598 29.3427L58.7247 29.163L58.0267 29.6811L58.5449 29.0055L58.3651 28.8691L57.8023 29.6068L58.111 28.7439L57.9003 28.6671L57.6387 29.3935L57.7081 28.6262L57.485 28.6063L57.4093 29.453L57.242 28.6113L57.0238 28.6547L57.1874 29.489L56.9234 28.9782L57.0226 28.7886L56.823 28.6857L56.7994 28.7328L56.7895 28.7179L56.5911 28.8208L56.6717 28.9782L56.4263 29.458L56.5911 28.6224L56.3692 28.5791L56.2043 29.4208L56.1287 28.5741L55.9056 28.5939L55.9725 29.3625L55.7122 28.6361L55.5014 28.7117L55.8114 29.5745L55.2461 28.8369L55.07 28.9733L55.5857 29.6489L54.8865 29.1307L54.7527 29.3105L54.9374 29.4468L54.8444 29.4729L54.868 29.5646L54.6374 29.4704L54.594 29.5758L54.4316 29.6774L54.8593 30.3667L54.2593 29.8473L54.113 30.0171L54.7155 30.539L53.984 30.2204L53.8935 30.4262L54.6213 30.7423L53.8154 30.6543L53.7907 30.8762L54.501 30.9543L54.0126 31.0324L53.8229 30.9035L53.6964 31.0894L53.8935 31.2221L53.9022 31.2766L53.9593 31.268L54.3448 31.5295L53.6146 31.2903L53.5452 31.5023L54.2816 31.744L53.513 31.718L53.5068 31.9411L54.196 31.9659L53.5229 32.1172L53.5725 32.3353L54.3869 32.1519L53.6568 32.5783L53.7708 32.7717L54.4353 32.3825L53.8935 32.9515L54.0262 33.0804L53.9617 33.094L54.0088 33.3135L54.2493 33.2639L54.3795 33.337L54.444 33.223L54.6213 33.1858L54.0919 33.5255L54.2134 33.7139L54.7787 33.3519L54.3696 33.9383L54.5543 34.0672L54.9213 33.5391L54.7527 34.1664L54.9708 34.2234L55.1407 33.58L55.2051 34.242L55.132 34.3201L55.2944 34.4738L55.7283 34.0176L55.4952 34.63L55.7047 34.7094L55.9242 34.1317L55.9316 34.7441L56.1548 34.7416L56.1486 34.097L56.3246 34.5085L56.1907 38.5165H57.475L57.4701 38.2872C57.4453 37.0437 57.3994 35.8016 57.3585 34.5581L57.5581 34.097L57.5507 34.7416L57.7751 34.7441L57.7812 34.1317L58.0007 34.7094L58.2089 34.63L57.9796 34.0176L58.4123 34.4738L58.5747 34.3201L58.499 34.242L58.5635 33.58L58.7346 34.2247L58.9528 34.1664L58.7854 33.5391L59.1524 34.0672L59.3371 33.9395L58.9292 33.3519L59.4908 33.7139L59.6135 33.5255L59.0842 33.1858L59.2615 33.223L59.3272 33.337L59.4586 33.2639L59.6978 33.3135L59.7425 33.094L59.6792 33.0804L59.8144 32.9515L59.2701 32.3837L59.9358 32.7717L60.0487 32.5783L59.3172 32.1519L60.1342 32.3353L60.1838 32.1172L59.5119 31.9659L60.1999 31.9411Z" fill="#0E0F13"/>
</svg>
