<svg width="104" height="45" viewBox="0 0 104 45" fill="none" xmlns="http://www.w3.org/2000/svg">
<path fill-rule="evenodd" clip-rule="evenodd" d="M12.9076 35.3764L12.9188 23.4921C12.3363 23.5111 11.13 23.829 10.6486 24.0018C10.2553 24.1417 9.59406 24.4182 9.40862 24.7949C9.28312 25.0454 9.35055 25.1249 9.52475 25.2372C10.0755 25.5897 10.613 25.9543 11.1544 26.3258L12.784 27.4402C12.6229 27.5318 11.5833 27.7564 11.2761 27.8653C10.5475 28.1245 9.99491 28.5012 9.5491 29.0472C8.92723 29.8074 9.66898 29.4446 7.67036 30.0528L10.4932 27.1914C10.422 27.0307 10.0623 26.6523 9.91624 26.483L8.13115 24.375C8.20795 24.3059 11.7444 22.343 12.2108 22.0735C12.119 21.9335 11.8793 21.7434 11.7388 21.5879L11.3023 21.054C10.7404 21.0938 10.8828 21.092 10.3246 21.0437L11.1768 20.9123C11.115 20.7465 11.0944 20.8 10.8697 20.8415C10.392 20.9313 9.95183 20.8726 9.49478 20.7827C9.9256 20.7275 10.6112 20.7914 10.9671 20.5028C10.8228 20.4234 10.6955 20.5322 10.3283 20.6013C10.068 20.6497 9.8282 20.667 9.54723 20.6566C8.99841 20.6359 8.73804 20.4994 8.26602 20.3076C8.83732 20.451 9.63527 20.4769 10.2122 20.2782C10.4744 20.1866 10.57 20.1503 10.7104 19.9845C10.4857 20.0242 10.3021 20.1331 10.0492 20.197C9.11454 20.4424 8.59194 20.2402 7.82958 19.9395C7.9813 19.9292 8.67623 20.0847 8.99653 20.038L10.0361 19.7391C9.24566 19.8566 8.11804 20.2022 7.1871 19.4868C5.77477 19.5715 5.38516 21.6052 5.32522 22.6748C5.17537 21.7054 5.17162 20.9417 4.55536 20.1849C4.08334 19.6061 3.46146 19.4609 2.70847 19.5577C2.45372 19.5871 2.22333 19.6855 1.98357 19.708C2.18025 18.9685 2.31699 18.4277 1.71384 17.6916C1.01329 16.8397 0.226583 16.7672 0.136673 16.5978C0.827855 16.3784 1.40478 16.2073 1.84683 15.5888C2.19523 15.1015 2.22895 14.5762 2.10158 13.9767C2.07161 13.8332 1.9742 13.6207 1.96297 13.5032C2.49681 13.6414 2.87143 13.7762 3.4521 13.7054C3.88479 13.6553 4.26878 13.4013 4.5179 13.1248C5.2428 12.3196 5.15289 11.3036 5.33646 10.7248L6.17187 13.1404C6.4341 13.4065 6.78063 13.6622 7.25266 13.7106C8.05061 13.79 8.47206 13.5015 8.69871 13.5136C8.51514 14.3274 8.22106 14.9183 8.83545 15.6147C9.47418 16.3369 10.4388 16.3715 10.7985 16.5166C11.4653 16.3784 12.3813 16.1918 12.9226 15.9378L12.9132 14.6972C12.503 14.6903 12.3532 15.0116 12.0048 15.2121L11.0307 15.632L11.8493 14.222C11.5683 14.0008 11.042 14.2376 10.7929 14.3499C10.4519 14.5019 10.4538 14.4294 9.83382 14.1702L11.4784 13.289C11.602 13.4946 11.8549 13.7693 12.222 13.5499L12.2914 12.8086L12.9226 12.3991L12.9132 10.1736L12.6042 10.1926C13.9697 9.45308 15.7641 10.2444 16.4703 11.5248C16.7775 12.0812 16.7681 12.425 16.8505 13.0471C17.2364 10.9788 14.6496 8.81204 12.4318 9.98181C11.7594 10.3378 11.5215 10.7905 11.1169 11.3589C11.4803 10.4 11.7369 9.94552 12.9188 9.479L12.9114 7.39173L25.8284 7.37617L25.819 19.4471L25.8284 7.39L0.0317784 7.36926C0.00180847 10.6902 0.0186664 14.0458 0.0205399 17.365C0.0205399 20.7879 0.161024 23.1257 1.5565 25.9042C3.24043 29.258 6.20371 31.601 9.52101 33.5275C10.0755 33.8507 10.6205 34.16 11.1918 34.471C11.4859 34.6282 12.6866 35.309 12.9076 35.3764Z" fill="#DA251C"/>
<path fill-rule="evenodd" clip-rule="evenodd" d="M12.9189 9.47917C13.9117 9.2459 14.6946 9.27873 15.5731 9.65368L17.2589 11.0135C16.9199 9.95606 15.7698 9.37377 14.689 9.26145L13.2785 9.16988C14.3949 8.8986 15.6743 8.93834 16.579 9.41869C17.0135 9.65022 17.3245 9.91977 17.5774 10.3241L17.9089 11.8895C18.0756 11.4386 17.8134 10.4485 17.5699 9.9647C17.2852 9.39796 16.9686 9.06448 16.564 8.5824C17.1484 8.89342 17.5418 9.20443 17.907 9.68997C18.394 10.3396 18.394 10.7301 18.5514 11.5094L18.04 9.05411C18.6694 9.28219 19.1564 10.0666 19.1789 10.8286C19.2051 11.6701 18.8361 12.3284 18.5046 13.0801C18.8417 12.8399 19.1264 12.5099 19.3437 12.0502L19.4149 10.5055C19.9356 11.0619 19.8495 12.014 19.4917 12.6982L19.1208 13.3565C19.3493 13.258 19.5591 12.9781 19.6902 12.7328C19.8401 12.4546 19.8869 12.1729 19.9581 11.8723C20.1735 12.2818 19.8626 13.1094 19.6696 13.3738L18.6169 14.2896C19.5235 14.1116 19.7202 13.5017 20.0967 12.8554C20.2278 13.6485 19.5273 14.3621 18.8323 14.7198L18.1524 15.0792C18.1955 15.0844 18.1768 15.0861 18.2348 15.0844C18.5607 15.0757 19.1189 14.8874 19.3231 14.6973L20.0555 13.8369C19.7108 15.1224 19.1639 15.2831 18.0232 15.6719C18.7986 15.7427 19.1845 15.3971 19.7558 15.0326C19.5554 15.4697 18.9522 15.9103 18.4521 16.0105L17.7422 16.1177C17.7553 16.3544 17.7291 16.1436 17.9763 16.4149C18.2873 16.757 18.2517 17.1146 18.336 17.69C17.9595 17.2442 18.4596 17.5414 17.4987 16.6498C17.3282 16.8416 17.169 17.1872 16.8543 17.5311C16.579 17.83 16.7476 18.1185 16.9012 18.7129C16.6539 18.4935 16.6352 18.3328 16.4629 18.1652C16.2343 18.8702 16.3973 18.5712 15.9009 19.2451L16.0695 18.433C15.8185 18.6386 15.0767 19.3885 14.586 19.8084C15.1292 20.408 16.0058 21.0248 16.9855 21.3859C17.6654 21.6348 17.6598 21.6088 18.5027 21.2425C18.9991 21.0265 19.4299 20.8244 19.8813 20.579C22.7565 19.0291 24.624 16.4909 24.152 13.2407C24.1108 12.9608 24.079 12.6999 23.8785 12.5444C23.6519 12.3647 23.326 12.4096 23.0825 12.5427C22.6928 12.7535 22.3913 13.1872 22.2115 13.6727C22.1197 13.9233 22.0616 14.16 22.0148 14.4433C21.9436 14.8736 22.0316 14.8045 22.2396 15.1138C22.5205 15.5302 22.6685 16.0624 22.543 16.6481C22.3557 17.5311 21.6064 18.3483 21.007 19.0222C20.949 18.554 21.6476 16.6982 21.3573 15.8187C21.1569 15.2123 20.9265 15.7444 21.3835 14.6991C21.4959 14.4433 21.6345 14.2032 21.6739 13.9043C21.8481 12.6256 23.0918 11.6079 24.0265 11.9345C24.5828 12.1297 24.6896 12.7604 24.7065 13.4204C24.8057 17.5656 22.7022 19.9656 18.7574 21.697C18.5645 21.7816 18.5963 21.7989 18.527 21.9959C18.4802 22.1289 18.4315 22.2568 18.3847 22.414C17.9108 24.0279 18.4727 25.2737 20.2953 25.6348L21.3049 25.7989C21.4266 25.9786 21.4116 26.5955 21.421 26.8581L21.2262 27.7981C21.0351 27.5735 20.9602 27.0603 20.4076 27.2711C20.0892 27.392 19.8101 27.7272 19.6284 27.9778L18.9916 30.1342L18.1768 30.1255L19.1246 26.1998L16.4572 23.1829C16.1107 23.1242 13.1793 23.3816 12.9189 23.4922L12.9077 35.3765C13.095 35.3212 13.3254 35.1727 13.5146 35.0793C13.7262 34.9722 13.9042 34.8755 14.1196 34.7614C14.5148 34.5541 14.9231 34.3329 15.3165 34.1117C17.0154 33.1597 17.7197 32.6811 19.1882 31.6253C20.0986 30.9705 21.0483 30.0944 21.8181 29.3031L22.455 28.5756C23.2735 27.57 24.0134 26.5074 24.5416 25.2806C25.3208 23.4698 25.7704 21.6434 25.8191 19.4473L25.8285 7.37634L12.9114 7.39189L12.9189 9.47917Z" fill="#0C2649"/>
<path fill-rule="evenodd" clip-rule="evenodd" d="M19.3774 5.08347L19.7015 5.30118L18.7406 5.27872C18.7443 4.98844 18.9766 5.26489 19.1527 4.86748C19.3418 4.44588 19.6902 3.49728 19.8794 3.02557L20.0386 3.02384C20.2166 3.21391 20.683 4.64977 20.7935 4.83984L21.1756 5.30464L20.1698 5.27872L20.3889 5.06101L20.2035 4.41651L19.5572 4.41478C19.4786 4.55819 19.3175 4.8934 19.3774 5.08347ZM5.71676 3.12579L7.4419 3.10332C7.49248 3.45063 7.43254 3.47309 7.29393 3.65279C7.0935 3.28994 7.43066 3.31758 6.43604 3.28648L6.44353 4.01737C6.56154 4.02947 6.80504 4.04156 6.91556 4.01391C7.07852 3.97245 6.94178 3.99145 7.21338 3.76683C7.30142 3.91543 7.29018 4.35258 7.21338 4.50981L7.03356 4.26964H6.43604C6.43042 4.69815 6.31054 5.04373 6.81815 5.05755L7.56927 4.56683C7.57677 4.57547 7.58613 4.57893 7.58801 4.59794C7.59175 4.62904 7.61798 4.61521 7.62547 4.73271C7.63296 4.87612 7.53743 5.09556 7.48873 5.23034L5.71676 5.20615C5.72425 4.91241 6.01458 5.21306 6.08014 4.85884C6.10824 4.70334 6.08764 4.35949 6.08764 4.18497C6.08764 3.988 6.10637 3.68216 6.08202 3.49728C6.03332 3.12751 5.69803 3.41261 5.71676 3.12579ZM22.706 4.53228C23.0562 4.59102 22.7809 4.6636 23.0787 4.95733C23.4852 5.36166 24.0808 4.91932 23.7605 4.5461C23.6613 4.43552 23.459 4.33357 23.3035 4.24027C23.0188 4.06921 22.6198 3.69253 23.0225 3.28648L24.1445 3.16726C24.1314 3.5111 24.1689 3.50419 24.0359 3.69253C23.8467 3.59577 23.9628 3.30549 23.6687 3.23983C23.3896 3.1759 23.1593 3.36251 23.2473 3.62687C23.3391 3.90506 23.9928 4.08303 24.1632 4.35949C24.5716 5.02472 23.5245 5.55345 22.9045 5.1906C22.7397 5.09211 22.7284 4.72234 22.706 4.53228ZM15.7623 3.62514L15.7511 3.03767C15.8841 3.00829 17.4781 2.97373 17.7403 3.06531L17.7422 3.62341L16.9667 3.25019C16.918 3.52838 16.9517 4.06057 16.9517 4.3664C16.9517 5.41522 16.9124 4.9366 17.2851 5.24243C17.1484 5.38757 16.3973 5.2649 16.1838 5.24243C16.2137 5.1785 16.3842 5.12148 16.4928 5.06792L16.5022 3.25019C15.6087 3.2381 16.0601 3.53011 15.7623 3.62514ZM1.67269 3.12579L2.73662 3.09641L2.46315 3.30549L2.97826 4.62558C3.17681 4.39405 3.39784 3.65106 3.50086 3.34004L3.18055 3.12579L4.15083 3.10505C4.16394 3.41953 3.99536 3.08777 3.75186 3.50938C3.55705 3.84285 3.06629 5.18541 2.92394 5.2217C2.75348 5.2649 2.65795 4.85884 2.60925 4.7448C2.5156 4.53055 2.44067 4.34739 2.35076 4.1435C2.2646 3.94998 2.18967 3.7651 2.09976 3.56985C2.05293 3.46618 2.00611 3.37978 1.93118 3.32622C1.71577 3.17417 1.6858 3.35732 1.67269 3.12579ZM12.9845 3.0895C13.168 2.98928 13.9173 3.07395 14.1346 3.0895C14.1177 3.2381 14.2451 3.14998 13.7749 3.29166L13.7768 5.03682C14.0521 5.15086 13.8686 5.00053 14.1327 5.24243L12.9901 5.27699C12.9807 5.04545 12.9639 5.15604 13.1886 5.09384C13.4771 5.0109 13.3797 4.67396 13.3797 4.18497C13.3797 3.73573 13.4752 3.34177 13.2167 3.24674C12.9901 3.1638 13.0238 3.28648 12.9845 3.0895ZM9.23448 3.06186C9.75708 3.06013 11.0458 2.88734 10.8959 3.70462C10.866 3.86359 10.7686 3.95344 10.658 4.03983L10.5269 4.14696C10.8678 4.80182 11.0814 4.94351 11.6283 5.19751C11.5628 5.27526 11.6339 5.23207 11.5234 5.25626C11.4185 5.28045 11.1113 5.23898 11.0121 5.20615C10.6974 5.10247 10.4052 4.534 10.3621 4.49081L9.90131 4.25754C9.96125 5.25107 9.82638 4.95042 10.3321 5.20615C10.2104 5.296 9.65406 5.2528 9.46862 5.2528L9.27943 5.24243C9.26819 5.23898 9.25696 5.23552 9.24759 5.23207L9.18952 5.20615C9.34687 4.91068 9.6091 5.47051 9.58101 4.40269L9.52294 3.26056C9.15019 3.1638 9.20263 3.26402 9.23448 3.06186ZM0.0205994 0.350821L0.0243454 6.32754L0.168576 6.33445L25.8022 6.32408L25.8041 0.195312H22.0953L22.0878 1.80396L18.4109 1.80569L18.409 0.195312H14.7246L14.719 1.80569L11.0383 1.78841L11.0345 0.195312H7.35199L7.34825 1.80396L3.66756 1.79532L3.66382 0.195312L0.0224724 0.209135L0.0205994 0.350821Z" fill="#0C2649"/>
<path fill-rule="evenodd" clip-rule="evenodd" d="M12.9189 9.47929C11.737 9.94581 11.4804 10.4002 11.117 11.3592C11.5216 10.7907 11.7594 10.338 12.4319 9.9821C14.6497 8.81233 17.2365 10.9791 16.8506 13.0473C16.7682 12.4253 16.7775 12.0815 16.4703 11.5251C15.7642 10.2447 13.9697 9.45337 12.6042 10.1929L12.9133 10.1739C14.3668 10.046 15.2884 10.6646 15.7773 11.4733C16.0414 11.9104 16.2081 12.472 16.1594 13.094C16.1388 13.3549 16.0433 13.6711 15.9665 13.9009C15.8803 14.1653 15.7773 14.3761 15.4064 14.3277L14.157 12.8953C13.9941 12.7087 13.9604 12.7294 14.0746 12.4875C14.1421 12.3424 14.2039 12.1765 14.2526 12.0279C14.3481 11.7307 14.4699 11.2728 14.4436 10.9376L12.9227 12.3994L12.2914 12.8089L12.2221 13.5502C11.855 13.7696 11.6021 13.4949 11.4785 13.2892L9.83388 14.1705C10.4539 14.4296 10.452 14.5022 10.7929 14.3502C11.042 14.2379 11.5684 14.0011 11.8494 14.2223L11.0308 15.6322L12.0048 15.2124C12.3532 15.0119 12.5031 14.6906 12.9133 14.6975C13.3085 14.6992 13.6794 14.8875 13.5689 15.3039C13.4827 15.6288 13.1793 15.7705 12.9227 15.9381C12.3813 16.1921 11.4654 16.3787 10.7985 16.5169C10.4595 16.5999 9.05654 16.8936 8.8711 16.999L8.29231 19.0949L9.2963 19.4699L7.18716 19.4871C8.1181 20.2025 9.24572 19.8569 10.0362 19.7394L8.9966 20.0383C8.67629 20.085 7.98137 19.9295 7.82964 19.9398C8.592 20.2405 9.1146 20.4426 10.0493 20.1973C10.3022 20.1334 10.4857 20.0245 10.7105 19.9848C10.57 20.1506 10.4745 20.1869 10.2123 20.2785C9.63533 20.4772 8.83738 20.4513 8.26608 20.3079C8.73811 20.4997 8.99847 20.6362 9.5473 20.6569C9.82826 20.6673 10.068 20.65 10.3284 20.6016C10.6955 20.5325 10.8229 20.4236 10.9671 20.5031C10.6112 20.7917 9.92567 20.7277 9.49485 20.783C9.95189 20.8729 10.3921 20.9316 10.8697 20.8418C11.0945 20.8003 11.1151 20.7468 11.1769 20.9126L10.3246 21.0439C10.8828 21.0923 10.7405 21.0941 11.3024 21.0543L11.7388 21.5882C11.8793 21.7437 12.1191 21.9338 12.2109 22.0738C11.7445 22.3433 8.20801 24.3062 8.13122 24.3753L9.9163 26.4833C10.0624 26.6526 10.422 27.031 10.4932 27.1917L7.67043 30.0531C9.66905 29.4449 8.92729 29.8077 9.54917 29.0475C9.99497 28.5015 10.5475 28.1248 11.2762 27.8656C11.5834 27.7567 12.623 27.5321 12.784 27.4405L11.1544 26.3261C10.6131 25.9546 10.0755 25.59 9.52482 25.2375C9.35062 25.1252 9.28319 25.0457 9.40868 24.7952C9.59412 24.4185 10.2553 24.142 10.6487 24.0021C11.1301 23.8293 12.3364 23.5114 12.9189 23.4923C13.1793 23.3818 16.1107 23.1243 16.4572 23.1831L19.1246 26.1999L18.1768 30.1257L18.9916 30.1343L19.6284 27.9779C19.8101 27.7256 20.0892 27.3922 20.4076 27.2695C20.9602 27.0604 21.0351 27.5736 21.2262 27.7982L21.421 26.8582C21.4116 26.5956 21.4266 25.9788 21.3049 25.7991L20.2953 25.6349C18.4727 25.2738 17.9108 24.028 18.3847 22.4142C18.4315 22.2569 18.4802 22.1291 18.527 21.996C18.5963 21.799 18.5645 21.7817 18.7574 21.6971C22.7022 19.9658 24.8057 17.5657 24.7065 13.4206C24.6896 12.7605 24.5828 12.1298 24.0265 11.9346C23.0918 11.608 21.8481 12.6257 21.6739 13.9044C21.6345 14.2033 21.4959 14.4435 21.3835 14.6992C20.9265 15.7446 21.1569 15.2124 21.3573 15.8189C21.6477 16.6983 20.949 18.5541 21.007 19.0223C21.6064 18.3485 22.3557 17.5312 22.543 16.6465C22.6685 16.0625 22.5205 15.5303 22.2396 15.1139C22.0316 14.8046 21.9436 14.8737 22.0148 14.4435C22.0616 14.1601 22.1197 13.9234 22.2115 13.6728C22.3913 13.1873 22.6929 12.7536 23.0825 12.5428C23.326 12.4098 23.6519 12.3648 23.8785 12.5445C24.079 12.7 24.1108 12.9592 24.152 13.2409C24.624 16.491 22.7565 19.0275 19.8813 20.5792C19.4299 20.8228 18.9991 21.0267 18.5027 21.2427C17.6598 21.609 17.6654 21.6349 16.9855 21.3861C16.0058 21.0249 15.1292 20.4081 14.586 19.8085C15.0767 19.3886 15.8185 18.6387 16.0695 18.4331L15.9009 19.2452C16.3973 18.5714 16.2343 18.8703 16.4629 18.1653C16.6352 18.3329 16.6539 18.4936 16.9012 18.713C16.7476 18.1187 16.579 17.8301 16.8543 17.5312C17.169 17.1873 17.3282 16.8418 17.4987 16.65C18.4596 17.5415 17.9595 17.2444 18.336 17.6901C18.2517 17.1148 18.2873 16.7571 17.9763 16.415C17.7291 16.1437 17.7553 16.3545 17.7422 16.1178L18.4521 16.0107C18.9522 15.9104 19.5554 15.4698 19.7558 15.0327C19.1845 15.3973 18.7986 15.7428 18.0232 15.672C19.1639 15.2832 19.7108 15.1225 20.0555 13.837L19.3231 14.6975C19.1189 14.8875 18.5607 15.0759 18.2348 15.0845C18.1768 15.0862 18.1955 15.0845 18.1524 15.0793L18.8324 14.7199C19.5273 14.3623 20.2278 13.6486 20.0967 12.8556C19.7202 13.5018 19.5235 14.11 18.6169 14.2897L19.6696 13.3739C19.8626 13.1095 20.1735 12.2819 19.9581 11.8724C19.8869 12.173 19.8401 12.4547 19.6902 12.7329C19.5591 12.9782 19.3493 13.2581 19.1208 13.3566L19.4917 12.6983C19.8495 12.0141 19.9356 11.062 19.4149 10.5056L19.3437 12.0504C19.1264 12.51 18.8417 12.8383 18.5046 13.0802C18.8361 12.3286 19.2051 11.6702 19.1789 10.8288C19.1564 10.0668 18.6694 9.28231 18.04 9.05423L18.5514 11.5095C18.394 10.7303 18.394 10.338 17.907 9.69009C17.5418 9.20455 17.1484 8.89354 16.564 8.58252C16.9686 9.0646 17.2852 9.39808 17.5699 9.96482C17.8134 10.4469 18.0756 11.4387 17.9089 11.8897L17.5774 10.3242C17.3245 9.91989 17.0136 9.65035 16.579 9.41881C15.6743 8.93846 14.3949 8.89872 13.2786 9.17L14.689 9.26157C15.7698 9.37389 16.9199 9.95618 17.2589 11.0119L15.5731 9.6538C14.6946 9.27885 13.9117 9.24602 12.9189 9.47929Z" fill="#FEF201"/>
<path fill-rule="evenodd" clip-rule="evenodd" d="M51.4659 12.8L52.4174 14.9547L50.6436 14.9478L51.4659 12.8ZM51.3628 10.2963C50.7503 12.0242 50.1097 13.6484 49.4635 15.3383C49.1451 16.1711 48.8285 17.016 48.4895 17.8333C48.2834 18.3258 48.171 18.5919 47.6878 18.8113C47.2663 18.9996 46.7456 19.1551 46.2324 19.0135C45.6554 18.8545 45.4775 18.68 45.3408 18.1219C45.0841 17.0748 44.805 11.6942 44.6927 10.2428C44.6009 9.05054 45.1947 8.55982 46.3354 8.3974V7.79956H43.1885L42.1302 10.1063C41.8362 10.7369 38.8598 16.7586 38.7605 16.8519C37.3931 14.013 35.9864 11.1655 34.6321 8.31965C34.5535 8.15723 34.4898 7.87386 34.3268 7.79956H31.0395L31.0376 8.43196L32.6635 8.85875C33.1149 9.19223 33.07 9.69677 33.0194 10.3516C32.8995 11.9275 32.4499 15.7011 32.154 17.1871C31.8805 18.559 31.7382 18.9754 30.1928 19.1742L30.1685 19.7668H35.5706C35.5724 19.6891 35.6118 19.2467 35.5312 19.2001L34.3924 18.9461C33.0887 18.5936 33.3622 17.4325 33.4371 16.0813C33.4745 15.4419 33.7742 11.6907 33.9297 11.3262L36.9941 17.6052C37.1665 17.9698 37.3369 18.3068 37.5055 18.6679C37.6216 18.9184 37.8783 19.5076 38.015 19.6873H38.3465L42.8083 10.8925L43.1773 15.9465C43.2148 16.4597 43.404 18.1132 43.2522 18.4796C42.99 19.1068 41.8212 18.9754 41.1525 19.207V19.753L50.8496 19.7668L50.8047 19.0688C50.7616 19.0428 50.2146 18.9772 50.121 18.9668C49.6021 18.8908 49.2612 18.832 49.3698 18.2808C49.4598 17.8281 49.9692 16.5616 50.1734 16.102L52.8089 16.0951L53.4551 17.8281C53.53 18.0718 53.7005 18.5711 53.5019 18.7681C53.3783 18.8856 52.807 19.0636 52.6047 19.1085L52.6085 19.7685L56.9485 19.7668L56.9522 19.0653L55.6654 18.6005C55.538 18.5124 53.4888 13.2285 53.2622 12.6739C52.94 11.8843 52.6534 11.067 52.3331 10.2877L51.3628 10.2963Z" fill="#0C2649"/>
<path fill-rule="evenodd" clip-rule="evenodd" d="M69.2511 11.2468L70.8227 11.7376C71.1767 11.9916 71.5026 12.4253 71.5363 13.0559C71.6038 14.3536 70.0079 14.865 69.2511 14.827V11.2468ZM76.7961 19.767C77.3955 19.767 80.4449 19.8016 80.7727 19.7532L80.7746 19.0638C79.321 18.7441 79.2012 18.8944 79.1244 17.8041C79.0888 17.3082 79.0888 12.7294 79.1262 12.2507C79.1824 11.5129 79.2274 11.278 80.1527 11.1155C80.9188 10.9808 80.7746 11.2278 80.7746 10.3069H75.8202L75.8183 11.0395C76.7961 11.2106 77.3337 11.1553 77.4348 11.8879C77.5341 12.5946 77.4872 15.5907 77.4872 16.5255C77.4872 18.3484 77.6802 18.7804 76.3428 18.9877C74.8649 19.2158 73.4357 17.4551 72.7764 16.4702C72.6153 16.2352 71.8997 15.2106 71.8379 15.0223L73.3814 13.227C73.5837 12.2127 73.0311 11.411 72.4542 11.0015C71.7461 10.4987 70.6653 10.4002 69.592 10.4054C68.4457 10.4071 67.2806 10.395 66.1361 10.4192L66.138 11.2624L67.6103 12.5065C67.6477 13.3531 67.629 14.2171 67.629 15.0637C67.629 15.9207 67.6515 16.802 67.629 17.6573C67.6028 18.5471 67.5335 18.9065 66.3028 19.005L66.02 18.5799L64.3024 17.8387C64.3923 15.5112 64.499 12.7294 64.514 10.4572L60.7341 10.6905L60.7247 11.3073L62.6128 12.192C62.7008 12.8123 62.7196 16.7553 62.6784 17.4776C62.6652 17.7195 62.506 17.7678 62.3524 17.8802C61.5414 18.4745 60.6179 18.7475 59.5521 18.5212C58.1829 18.2309 58.1173 16.9056 58.1566 15.7946C58.2166 14.0546 58.166 12.2058 58.1604 10.4555L54.9873 10.6922L55.0023 11.2866C56.055 11.3868 56.3753 11.2693 56.4896 12.0348C56.6787 13.2978 56.2723 16.6706 56.6713 18.1843C56.8455 18.8478 57.0833 19.1985 57.5685 19.475C58.0761 19.767 58.8197 19.8067 59.4978 19.7411C60.3613 19.6564 61.311 19.2901 62.004 18.8702C62.2194 18.7406 62.4517 18.5817 62.6521 18.4745L62.6072 19.9415L65.9938 19.1778L66.005 19.7514H71.0418L71.04 19.081C69.5827 18.7717 69.3223 18.8771 69.2624 18.1583C69.2006 17.405 69.2436 16.4305 69.2511 15.6581C70.1783 15.6875 70.3525 15.5493 70.6691 16.1903C71.1111 17.0836 72.4673 18.9463 73.2315 19.3765C74.1756 19.907 75.601 19.767 76.7961 19.767Z" fill="#0C2649"/>
<path fill-rule="evenodd" clip-rule="evenodd" d="M67.9193 26.8684L68.8746 29.0144L67.097 29.0127L67.9193 26.8684ZM60.4999 22.4087L61.9778 23.4783C62.152 24.1954 62.1127 24.9971 62.1239 25.7626C62.1426 27.0083 62.2307 29.3634 62.1876 30.4727L61.0431 29.3755C60.5074 28.8192 59.9249 28.2628 59.3592 27.7168C58.9845 27.3574 57.9468 26.2792 57.6977 26.0718L56.01 24.4165C55.8265 24.2247 55.6317 24.0641 55.4481 23.8774L54.8656 23.3193C54.652 23.112 53.944 22.3811 53.7567 22.2239C53.5544 22.0545 53.4401 21.8005 53.0468 21.8005L51.3516 21.8092L51.3497 22.623L52.9812 24.5565V25.944C52.9849 26.9496 53.0805 28.7068 53.0486 29.4498L52.8538 31.9743C52.6759 32.8624 52.2863 33.0749 51.3197 33.2235L51.316 33.8214H55.7647L55.7628 33.2235L54.328 32.3578C54.1407 31.8585 54.0882 30.9946 54.0489 30.4226C53.9496 28.9539 54.0376 26.8287 54.0433 25.1543L54.3785 25.4826C54.8262 25.9837 55.9145 27.0412 56.4371 27.5284C56.5607 27.6442 56.6563 27.7496 56.7761 27.8723L59.5221 30.5591C60.6741 31.7134 60.9925 32.1177 62.0715 33.4291C62.4611 33.8991 62.2644 33.8214 63.0605 33.8248H67.2993L67.3087 33.1354C65.8982 32.8797 65.6116 32.9868 65.9039 32.0382C66.0912 31.4317 66.3796 30.7302 66.6325 30.1531H69.268C70.4331 33.2753 70.2832 32.6447 69.0825 33.1734L69.0694 33.8248H73.3982C73.4094 33.7142 73.4263 33.1734 73.3926 33.1112L71.6131 31.4905L69.7194 26.7388C69.4553 26.0632 69.047 24.9418 68.7922 24.344L67.8219 24.3422C67.245 25.9906 66.6419 27.5682 65.9938 29.1976C65.7709 29.7557 64.8793 32.3976 64.4503 32.7017C64.2705 32.8296 63.5025 33.1544 63.2009 33.1233C63.1691 30.7647 62.9912 26.2723 63.2927 24.0399C63.4763 22.699 63.8135 22.6282 64.8736 22.3967V21.8161L60.4999 21.8005V22.4087Z" fill="#0C2649"/>
<path fill-rule="evenodd" clip-rule="evenodd" d="M84.9816 24.9954C84.6557 24.7155 83.6124 24.4304 83.0504 24.3975C82.2618 24.3543 81.58 24.5617 81.0256 24.8796C79.8549 25.5535 79.2742 26.8718 79.8905 28.0934C80.3494 29.004 81.7636 29.5604 82.6964 30.2118C83.1684 30.5418 83.6648 30.8719 83.6161 31.7151C83.5243 33.2857 80.6247 33.5553 79.898 31.0775C79.7987 30.7354 79.8717 30.744 79.7069 30.6697C79.529 30.5885 79.3641 30.6421 79.2836 30.4762C79.2236 30.3535 79.1974 30.1824 79.1244 30.0356C78.9483 29.6814 78.7741 29.5846 78.5774 29.3755C78.4238 29.2131 78.1016 29.004 77.8787 28.852C77.2063 28.3889 76.1798 27.9207 75.6272 27.385C75.174 26.9479 75.0204 26.2187 75.5055 25.7021C75.8614 25.3237 76.8392 25.1699 77.3749 25.5552C77.8188 25.8731 77.9949 26.547 78.1054 27.2261L78.8565 27.2312L78.9726 24.9954L76.4027 24.4165C75.9831 24.4632 75.528 24.6066 75.2058 24.7707C74.1306 25.3202 73.3945 26.3466 73.7054 27.6252C74.1737 29.5483 77.3655 29.8248 77.5865 31.3505C77.8225 32.9868 75.8708 33.2166 74.9117 32.5756C74.3835 32.2213 73.9677 31.5457 73.7822 30.6956L72.9131 30.4485L73.3439 32.8537C73.3926 33.1319 73.4376 33.1112 73.6698 33.2425C75.6347 34.3604 78.3264 33.8075 79.1937 31.9777L79.381 32.9764C79.4709 33.2546 80.3644 33.5743 80.6978 33.6641C81.6643 33.9233 82.6196 33.8645 83.4962 33.5138C85.3768 32.757 85.9032 30.8995 84.8655 29.6364C84.6782 29.4084 84.2361 29.087 83.9851 28.9142C83.1085 28.3094 81.5163 27.6477 81.2785 26.8096C81.0031 25.8334 81.831 25.1837 82.8687 25.3461C83.7547 25.4861 83.987 26.3604 84.1219 27.2261L84.8711 27.2295L84.9816 24.9954Z" fill="#0C2649"/>
<path fill-rule="evenodd" clip-rule="evenodd" d="M33.6918 25.4344C33.7593 25.3169 33.8791 25.3324 34.1713 25.2892C35.3758 25.113 36.5333 25.2685 37.483 25.9527C39.787 27.6097 39.4667 32.3165 35.8291 32.8832C35.4844 32.9368 33.8529 32.9731 33.6918 32.7363V25.4344ZM30.2902 33.7834L34.2463 33.818C35.4919 33.8284 36.6851 33.7904 37.7734 33.4344C39.6128 32.8314 41.0064 31.3972 41.0607 29.1579C41.1169 26.9117 39.7682 25.2166 37.9457 24.6862C36.8443 24.3665 35.5912 24.3285 34.3661 24.3285C33.0625 24.3268 31.7026 24.2853 30.4082 24.3147L30.4214 24.9955C30.7716 25.1285 31.2287 25.0922 31.5696 25.3117C31.9236 25.5432 31.9105 25.8732 31.9573 26.3432C32.0079 26.8391 32.0116 31.3178 31.9686 31.8292C31.9236 32.3389 31.9142 32.6102 31.5227 32.8141C31.2043 32.9783 30.6948 33.0214 30.2884 33.0629L30.2902 33.7834Z" fill="#0C2649"/>
<path fill-rule="evenodd" clip-rule="evenodd" d="M92.6014 25.1664L94.1093 25.8852C94.3041 26.991 93.9089 30.4468 94.2891 32.0433C94.5926 33.3202 95.4767 33.7902 97.0951 33.6382C98.0129 33.5518 98.8614 33.2045 99.605 32.7811C99.8186 32.6619 100.092 32.4494 100.277 32.3803L100.234 33.8317L103.983 32.9885L103.66 32.484L101.93 31.7479C102.008 29.3185 102.109 26.7612 102.141 24.3491L98.3725 24.5841L98.3538 25.2027L100.249 26.1461C100.313 26.6558 100.373 31.169 100.296 31.4507C100.251 31.6183 99.7249 31.9708 99.5207 32.0814C98.6048 32.5894 97.0707 32.7449 96.2465 31.8792C95.7783 31.3885 95.7539 30.4986 95.7839 29.7038C95.8494 27.9673 95.7951 26.1064 95.7876 24.3578L92.6014 24.6031V25.1664Z" fill="#0C2649"/>
<path fill-rule="evenodd" clip-rule="evenodd" d="M95.649 15.0636C95.4748 13.016 96.6343 11.0998 98.8033 11.143C101.381 11.1931 103.083 15.1344 101.298 17.7314C99.7193 20.0278 95.9918 19.1051 95.649 15.0636ZM97.9923 10.3862C95.2032 10.7387 93.2664 12.8433 93.7422 15.8618C94.1355 18.3621 96.505 20.1228 99.6875 19.7167C102.462 19.3625 104.387 17.2632 103.934 14.2722C103.49 11.3314 100.969 10.0078 97.9923 10.3862Z" fill="#0C2649"/>
<path fill-rule="evenodd" clip-rule="evenodd" d="M47.832 24.3424H40.0024L39.9986 25.0595C41.4522 25.3843 41.5777 25.2271 41.6619 26.3156C41.6975 26.7822 41.6975 31.4353 41.6601 31.8794C41.6132 32.4064 41.6282 32.65 41.2218 32.8556C40.8378 33.0492 40.4407 33.0232 40.0005 33.1166V33.8146L48.0025 33.825L48.5681 30.8081L47.8283 30.8047L47.034 32.5204C46.5152 32.9334 45.6854 32.9991 44.8537 32.9662C43.9752 32.9317 43.3477 32.7554 43.3047 31.9347C43.2653 31.1779 43.2916 30.288 43.3047 29.5243L45.3295 29.5554C45.6536 29.59 45.8559 29.6936 45.987 29.9027C46.1256 30.1239 46.0825 30.39 46.1743 30.6388L46.9292 30.6371L46.8973 27.2712H46.1031C45.9645 27.9381 46.06 28.2871 45.2883 28.3874C44.6964 28.4634 43.9209 28.4271 43.3047 28.4271L43.3028 25.1925L45.9214 25.291C46.2867 25.3705 46.562 25.5744 46.695 25.8146C46.9142 26.2137 46.7999 26.4971 46.9123 26.8565L47.6709 26.853L47.832 24.3424Z" fill="#0C2649"/>
<path fill-rule="evenodd" clip-rule="evenodd" d="M4.88718 14.6161C6.21522 14.3397 7.26417 15.2278 7.49082 16.1937C7.7849 17.4412 6.82961 18.4036 5.79003 18.6127C4.44512 18.884 3.4018 18.0235 3.16953 17.0455C2.91666 15.9898 3.60784 14.8822 4.88718 14.6161ZM7.18737 19.487L9.29651 19.4697L8.29251 19.0948L8.87131 16.9989C9.05675 16.8935 10.4597 16.5997 10.7987 16.5168C10.4391 16.3717 9.47445 16.3371 8.83572 15.6149C8.22134 14.9185 8.51542 14.3276 8.69898 13.5138C8.47233 13.5017 8.05088 13.7902 7.25293 13.7107C6.78091 13.6624 6.43438 13.4066 6.17214 13.1405L5.33673 10.725C5.15316 11.3038 5.24307 12.3198 4.51818 13.125C4.26905 13.4015 3.88506 13.6555 3.45237 13.7056C2.8717 13.7764 2.49708 13.6416 1.96324 13.5034C1.97448 13.6209 2.07188 13.8334 2.10185 13.9768C2.22922 14.5764 2.19551 15.1017 1.84711 15.5889C1.40505 16.2075 0.828129 16.3786 0.136948 16.598C0.226857 16.7674 1.01357 16.8399 1.71412 17.6918C2.31726 18.4278 2.18052 18.9687 1.98384 19.7082C2.2236 19.6857 2.454 19.5872 2.70874 19.5579C3.46174 19.4611 4.08361 19.6062 4.55564 20.1851C5.1719 20.9419 5.17564 21.7056 5.32549 22.675C5.38543 21.6054 5.77504 19.5717 7.18737 19.487Z" fill="#0D2547"/>
<path fill-rule="evenodd" clip-rule="evenodd" d="M89.0069 26.8564C89.1849 27.1449 89.3478 27.5924 89.4902 27.9259C89.6363 28.2663 89.8461 28.6758 89.9472 29.0197L88.1809 29.0162L89.0069 26.8564ZM88.3944 33.1234C86.9896 32.9471 86.7086 32.973 86.9933 32.0262C87.0832 31.7272 87.5983 30.3899 87.7238 30.1531H90.3593C91.5488 33.3825 91.324 32.6223 90.1458 33.1821L90.1495 33.8145L94.4839 33.8249L94.4896 33.113L92.7026 31.4992C92.3898 30.7112 92.0732 29.9147 91.7567 29.1216C91.1254 27.5406 90.4642 25.9631 89.8817 24.3527L88.9077 24.3406L86.1336 31.6374C85.9725 32.0452 85.8076 32.5031 85.5117 32.7087C85.3375 32.8296 85.1539 32.9108 84.9048 32.9886C84.1986 33.2098 84.238 32.9592 84.2736 33.8249H88.3869L88.3944 33.1234Z" fill="#0C2649"/>
<path fill-rule="evenodd" clip-rule="evenodd" d="M30.5618 35.7877H103.658L103.675 35.354L30.5525 35.3557L30.5618 35.7877Z" fill="#0C2649"/>
<path fill-rule="evenodd" clip-rule="evenodd" d="M30.5412 6.21508L103.791 6.22717L103.79 5.79175L30.5431 5.80384L30.5412 6.21508Z" fill="#0D2547"/>
<path fill-rule="evenodd" clip-rule="evenodd" d="M89.0744 16.7069L88.4712 16.3354C88.3045 16.567 88.1022 17.113 87.9524 17.3981C87.293 18.6542 86.3415 19.278 84.7549 18.8218C83.2152 18.3812 81.9584 17.132 81.7992 15.3868C81.6212 13.4551 82.6589 11.9086 84.09 11.3885C84.9423 11.0775 86.0961 11.0067 86.8229 11.4732L87.9299 13.5587H88.6735L88.6698 11.195C87.3155 10.0529 84.0506 10.0753 82.2618 11.0879C78.5156 13.2045 78.9988 18.9445 84.326 19.6944C85.5229 19.862 86.8266 19.7463 87.8475 19.3454C88.4038 19.1242 88.3008 19.1467 88.6791 18.2482C88.8346 17.875 89.0481 17.1337 89.0744 16.7069Z" fill="#0C2649"/>
<path fill-rule="evenodd" clip-rule="evenodd" d="M90.8388 12.2957C90.8726 12.7726 90.8726 17.3877 90.8351 17.8335C90.7546 18.7752 90.5729 18.9255 89.1867 19.0499L89.1811 19.7687L94.1262 19.767L94.1337 19.0499C92.7176 18.7545 92.5677 18.9169 92.4834 17.7972C92.4479 17.3307 92.4479 12.7104 92.4853 12.2542C92.5602 11.335 92.7269 11.1674 94.1224 11.0395L94.1374 10.3069H89.1774L89.183 11.0395C90.6272 11.3402 90.7602 11.1777 90.8388 12.2957Z" fill="#0D2547"/>
<path fill-rule="evenodd" clip-rule="evenodd" d="M91.6049 0.61329C92.3467 0.49925 92.9592 0.509617 93.4593 0.896661C94.4053 1.62582 94.3959 3.18955 93.4406 3.91007C92.9143 4.30576 92.3654 4.28329 91.6012 4.17962L91.6049 0.61329ZM90.1364 0.423223C90.8594 0.789533 90.8744 0.0914715 90.8744 2.393C90.8744 2.80942 90.8969 3.28804 90.8669 3.69409L90.0784 4.31958V4.56321C90.4773 4.62887 91.4195 4.58913 91.8747 4.59258C92.4928 4.59777 92.9948 4.58913 93.5511 4.41461C94.4109 4.14506 95.0477 3.447 95.074 2.43274C95.1021 1.37874 94.4877 0.627113 93.641 0.364476L90.1308 0.188232L90.1364 0.423223Z" fill="#0C2649"/>
<path fill-rule="evenodd" clip-rule="evenodd" d="M73.9639 4.20396V0.656635C75.4568 0.264407 76.517 1.1318 76.5132 2.43116C76.5114 3.73225 75.4661 4.58237 73.9639 4.20396ZM72.4429 4.36638L72.4523 4.61001C73.4806 4.61347 74.996 4.73442 75.897 4.45105C76.7661 4.17631 77.4086 3.50417 77.4348 2.46917C77.461 1.43418 76.8541 0.66009 76.0262 0.404365L72.4954 0.219482C72.4935 0.478663 72.4954 0.454473 72.6003 0.49767C72.8044 0.57888 73.1266 0.475208 73.2053 0.955557C73.2559 1.27003 73.2521 3.32274 73.2315 3.70806C73.1866 4.47178 72.8588 4.1504 72.4429 4.36638Z" fill="#0C2649"/>
<path fill-rule="evenodd" clip-rule="evenodd" d="M14.8389 40.2578C15.3671 41.3948 15.796 42.3969 16.2886 43.5321C16.4273 43.8483 16.6614 44.308 16.7438 44.6121L17.5343 44.6103L17.5361 39.6012L16.9499 39.5874L17.0042 43.8138C16.8712 43.6566 16.8094 43.4544 16.7307 43.2712L16.0339 41.685C15.8784 41.3308 15.7248 40.9749 15.5675 40.6172C15.0131 39.3645 15.3184 39.5891 14.2994 39.5891V44.6103L14.8857 44.6052L14.8389 40.2578Z" fill="#0C2649"/>
<path fill-rule="evenodd" clip-rule="evenodd" d="M94.7518 40.0798C95.7202 40.085 96.7448 39.9105 96.7279 40.9852C96.7129 41.996 95.7183 41.8941 94.7518 41.8941V40.0798ZM96.3852 42.0893C97.6308 41.7956 97.4603 40.4893 97.0876 40.0505C96.5706 39.4353 95.1732 39.5891 94.158 39.5891V44.6017L94.7331 44.6138L94.7537 42.3814C95.6078 42.4263 96.5181 42.2742 96.7111 43.2798C96.7804 43.6392 96.6923 44.0315 96.8553 44.612L97.5914 44.6138C97.4884 44.0816 97.3086 42.6906 97.0183 42.3779C96.816 42.1602 96.6418 42.2155 96.3833 42.0893H96.3852Z" fill="#0C2649"/>
<path fill-rule="evenodd" clip-rule="evenodd" d="M51.3722 44.1333L51.3741 40.0763C53.0224 40.0659 53.4195 40.0625 53.4439 42.0824C53.4701 44.2923 52.8107 44.142 51.3722 44.1333ZM50.7616 44.5981C51.1137 44.6482 51.9098 44.6206 52.2956 44.6102C52.8445 44.5981 53.1217 44.5325 53.4233 44.2543C53.9665 43.7601 54.092 42.967 54.1069 42.0824C54.1313 40.6949 53.8316 39.608 52.2563 39.589C51.8517 39.5856 51.1362 39.5545 50.7634 39.6011L50.7616 44.5981Z" fill="#0C2649"/>
<path fill-rule="evenodd" clip-rule="evenodd" d="M19.2913 44.1264L19.2932 40.0797C21.1925 39.9536 21.3442 40.4391 21.3648 42.0823C21.3873 43.9709 20.9921 44.2352 19.2913 44.1264ZM18.6844 44.6102C19.5722 44.6326 20.8516 44.7363 21.3629 44.256C22.2227 43.4473 22.3051 40.6378 21.3498 39.9207C20.7336 39.4594 19.606 39.5855 18.6844 39.589V44.6102Z" fill="#0C2649"/>
<path fill-rule="evenodd" clip-rule="evenodd" d="M12.9226 12.3993L14.4436 10.9375C14.4698 11.2727 14.3481 11.7306 14.2526 12.0278C14.2039 12.1764 14.1421 12.3423 14.0746 12.4874C13.9604 12.7293 13.9941 12.7086 14.157 12.8952L15.4064 14.3276C15.7773 14.376 15.8803 14.1652 15.9665 13.9008C16.0433 13.671 16.1388 13.3548 16.1594 13.0939C16.2081 12.4718 16.0414 11.9103 15.7773 11.4731C15.2884 10.6645 14.3668 10.0459 12.9133 10.1738L12.9226 12.3993Z" fill="#0C2647"/>
<path fill-rule="evenodd" clip-rule="evenodd" d="M99.4402 0.554594C99.9778 0.609886 100.159 0.630621 100.193 1.11615L100.195 3.67514L99.4383 4.26607L99.4346 4.56153L103.08 4.55808L103.321 3.21725H103.012C102.885 3.99479 102.553 4.2557 101.611 4.20732C100.723 4.15894 100.909 3.73561 100.916 2.59176C101.173 2.58139 101.576 2.57275 101.827 2.6004L102.285 3.09802H102.583L102.557 1.59305L102.229 1.61205C102.16 2.20817 102.025 2.10623 100.907 2.12178L100.905 0.608158C101.225 0.594335 101.819 0.58224 102.119 0.6479L102.598 1.37533L102.911 1.36497L102.975 0.250488H99.4365L99.4402 0.554594Z" fill="#0C2649"/>
<path fill-rule="evenodd" clip-rule="evenodd" d="M24.5173 39.9882C25.7479 39.7756 25.806 40.9748 25.8284 41.8992C25.8528 42.8063 25.879 44.0798 24.935 44.2214C23.6931 44.4081 23.6369 43.2435 23.6107 42.3018C23.5976 41.8318 23.6144 41.2737 23.7156 40.8365C23.8242 40.3648 24.0134 40.078 24.5173 39.9882ZM22.9813 42.4469C23.0487 43.7722 23.4234 44.9592 25.0979 44.7052C26.4054 44.5048 26.5065 43.0292 26.4597 41.754C26.4091 40.427 25.997 39.2072 24.3225 39.5026C22.9644 39.7428 22.9289 41.4136 22.9813 42.4469Z" fill="#0C2649"/>
<path fill-rule="evenodd" clip-rule="evenodd" d="M91.1442 39.9966C92.3748 39.7478 92.4516 40.9573 92.4741 41.8627C92.4965 42.7387 92.549 44.0571 91.6162 44.2178C90.3724 44.4303 90.2844 43.3003 90.2582 42.3379C90.2469 41.8627 90.2544 41.3167 90.3556 40.8623C90.4661 40.3646 90.6384 40.0968 91.1442 39.9966ZM89.6457 42.7387C89.7018 43.34 89.8405 43.969 90.2038 44.318C90.5841 44.6826 91.2809 44.8658 92.0002 44.6429C92.5696 44.4666 92.8412 44.0364 92.9836 43.4351C93.1952 42.54 93.2439 40.5564 92.5265 39.8757C91.9121 39.2934 89.2654 38.6696 89.6457 42.7387Z" fill="#0C2649"/>
<path fill-rule="evenodd" clip-rule="evenodd" d="M76.3802 42.1792L78.4032 42.1636L78.4126 44.6103L79.0344 44.6138V39.5891H78.4126L78.4107 41.6574L76.3915 41.6608L76.3802 39.5908L75.7583 39.5891V44.612H76.3802V42.1792Z" fill="#0D2547"/>
<path fill-rule="evenodd" clip-rule="evenodd" d="M83.6067 1.14385L84.1162 2.29634L83.1665 2.28943L83.6067 1.14385ZM81.3121 4.32832L81.3253 4.60824L83.2677 4.60478C83.3351 4.2212 83.2433 4.32141 82.8893 4.26094C82.2937 4.16072 82.5671 3.84798 82.9586 2.80088L84.2754 2.80434L84.6707 4.15208L84.2024 4.33869L84.2174 4.60824L86.2815 4.60133L86.2703 4.31796C85.5829 4.19528 85.6409 4.10024 85.4162 3.53523L84.0188 0L83.588 0.00863926C83.3351 0.606484 82.9624 1.68986 82.6851 2.38792C82.5297 2.78015 82.3836 3.16374 82.2262 3.57152C82.0202 4.1037 81.9322 4.18664 81.3121 4.32832Z" fill="#0C2649"/>
<path fill-rule="evenodd" clip-rule="evenodd" d="M37.7827 40.0902L39.195 40.1472C39.9031 40.2595 40.0398 41.5675 39.1445 41.8181C38.8523 41.901 38.1068 41.9217 37.7827 41.882V40.0902ZM39.4198 42.1135C39.697 41.9563 40.1391 41.92 40.3189 41.3325C40.6074 40.3943 40.1354 39.6427 38.8785 39.5926C38.5151 39.5787 37.5036 39.5528 37.1889 39.6047V44.5948L37.7808 44.6155L37.7827 42.3934L38.8935 42.4021C40.1578 42.4781 39.5041 43.9935 39.9068 44.5982L40.6242 44.6138C40.3751 43.8207 40.2796 42.2829 39.4198 42.1135Z" fill="#0C2649"/>
<path fill-rule="evenodd" clip-rule="evenodd" d="M40.6617 1.14212C40.761 1.28035 40.7404 1.26308 40.8059 1.42031C40.849 1.52226 40.8902 1.61556 40.9296 1.70714C41.0101 1.89893 41.1131 2.10282 41.1693 2.29634L40.2253 2.28943L40.6617 1.14212ZM38.3671 4.32832L38.3802 4.60824L40.3358 4.60478L40.3189 4.31623C39.4067 4.16763 39.4329 4.31105 40.0136 2.80088C41.4241 2.80088 41.3267 2.69376 41.469 3.07216C41.6488 3.55078 41.6338 3.64063 41.7275 4.15899L41.2592 4.34042L41.2723 4.60824L43.3384 4.60133L43.3253 4.31796C42.6229 4.19009 42.6997 4.1037 42.473 3.53177L41.0719 0L40.6448 0.010367C40.48 0.387044 40.3526 0.817284 40.2009 1.20606C40.0436 1.60692 39.8993 1.99051 39.742 2.38792C39.5865 2.77842 39.4423 3.16028 39.2831 3.57152C39.0752 4.10716 38.9927 4.18318 38.3671 4.33178V4.32832Z" fill="#0C2649"/>
<path fill-rule="evenodd" clip-rule="evenodd" d="M5.11924 15.1622C6.05205 15.036 6.79943 15.6788 6.90245 16.4149C7.02607 17.2995 6.33115 17.9717 5.53507 18.0702C3.48026 18.3224 3.01947 15.4421 5.11924 15.1622ZM4.88697 14.6162C3.60763 14.8822 2.91645 15.9898 3.16932 17.0455C3.40159 18.0235 4.44491 18.884 5.78981 18.6127C6.8294 18.4037 7.78469 17.4412 7.49061 16.1937C7.26396 15.2278 6.21501 14.3397 4.88697 14.6162Z" fill="#FCFCFD"/>
<path fill-rule="evenodd" clip-rule="evenodd" d="M65.3869 39.5909C65.3794 40.6829 65.3719 41.7922 65.3869 42.8842C65.3925 43.4146 65.3756 43.9071 65.6903 44.2561C65.9507 44.5412 66.3853 44.7347 66.9809 44.7261C68.3633 44.7088 68.5712 43.857 68.5806 42.8842C68.5843 42.4228 68.6143 39.8466 68.56 39.5995L68.0018 39.5874L67.9868 42.3745C67.9868 43.2747 68.0598 44.2095 66.979 44.225C65.8533 44.2406 65.9938 43.2799 65.9938 42.3745C65.9938 41.4449 65.9994 40.517 65.9938 39.5909H65.3869Z" fill="#0C2649"/>
<path fill-rule="evenodd" clip-rule="evenodd" d="M31.0151 0.545955C31.9198 0.708375 31.7775 0.630621 31.7775 2.39305C31.7775 2.80601 31.7962 3.26217 31.7719 3.66822L31.0151 4.27298L31.0114 4.55981L33.3603 4.56153V4.32827C33.1411 4.0881 32.5754 4.31618 32.5024 3.89285L32.4911 2.67988C32.8021 2.67815 33.1917 2.66087 33.4933 2.69197L33.8904 3.24317L34.2125 3.24662L34.1582 1.58959L33.8548 1.59132C33.8473 2.29975 33.7199 2.18225 32.4874 2.21335L32.4911 0.604702C32.8133 0.601247 33.3809 0.578785 33.6712 0.66345L34.1039 1.39434L34.3867 1.38397L34.4729 0.250488L31.0133 0.259128L31.0151 0.545955Z" fill="#0C2649"/>
<path fill-rule="evenodd" clip-rule="evenodd" d="M34.5085 40.0798L35.2484 42.6509L33.8005 42.6526L34.5085 40.0798ZM33.66 43.171L35.3982 43.1658L35.7616 44.4825C35.8253 44.6414 35.6829 44.6138 36.4078 44.6138L34.9131 39.5943L34.1264 39.5891L32.6504 44.6103L33.2666 44.5982L33.66 43.171Z" fill="#0C2649"/>
<path fill-rule="evenodd" clip-rule="evenodd" d="M4.50485 40.0798L5.24473 42.6526H3.79494L4.50485 40.0798ZM3.65445 43.1693L5.39458 43.1658L5.79543 44.6069L6.40419 44.6138L4.90944 39.596L4.12273 39.5891L2.64671 44.6103H3.26484L3.65445 43.1693Z" fill="#0C2649"/>
<path fill-rule="evenodd" clip-rule="evenodd" d="M55.5324 0.561506C56.1074 0.58224 56.2573 0.865611 56.4315 1.28203C56.8511 2.27728 57.413 3.60602 57.9169 4.56499L58.1529 4.55808C58.314 4.35592 59.5221 1.44272 59.6458 1.28721L60.5617 0.554594L60.5542 0.250488L58.5893 0.253944L58.5949 0.53386L59.2917 0.756755C59.3554 1.10233 58.3964 2.95807 58.1922 3.39176C58.093 3.28636 57.1789 1.17663 57.1395 1.06432L57.7127 0.556322L57.7052 0.250488H55.5343L55.5324 0.561506Z" fill="#0C2649"/>
<path fill-rule="evenodd" clip-rule="evenodd" d="M61.1967 43.0207C61.1443 44.3201 61.9179 44.9352 63.1916 44.6846C63.7029 44.5862 64.0738 44.2786 64.2368 43.8604C64.4129 43.4095 64.3848 42.7425 64.1207 42.3831C63.8771 42.0514 63.3377 41.9062 62.8713 41.7473C62.3749 41.5745 61.9291 41.4518 61.856 40.9369C61.7736 40.3477 62.1052 39.9693 62.7046 39.952C63.3639 39.9313 63.5943 40.3114 63.6149 40.8833H64.175C64.0757 40.2786 63.7797 39.5874 63.0642 39.4872C62.6952 39.4354 62.2812 39.4855 61.9853 39.6289C61.5938 39.8172 61.3166 40.1749 61.2829 40.7313C61.1967 42.1274 62.2775 42.0617 63.2178 42.4868C64.2686 42.9637 63.761 44.5499 62.4049 44.1836C61.8804 44.0419 61.7811 43.6013 61.7736 43.0207H61.1967Z" fill="#0C2649"/>
<path fill-rule="evenodd" clip-rule="evenodd" d="M81.8423 43.0467C81.8291 43.6394 81.9378 44.073 82.2881 44.391C82.805 44.8627 84.4478 44.9819 84.8898 43.8536C85.0678 43.3992 85.0322 42.7685 84.7718 42.3918C84.2867 41.6886 82.6365 41.8735 82.5053 40.9404C82.4229 40.3529 82.7563 39.9676 83.3651 39.9521C84.0263 39.9348 84.2324 40.3201 84.268 40.8817H84.8261C84.6351 40.1801 84.4403 39.5391 83.5768 39.4717C83.2452 39.4475 82.8931 39.4976 82.6402 39.6238C81.6343 40.1197 81.7767 41.6005 82.4941 41.9737C83.2715 42.3797 84.8524 42.4488 84.3335 43.705C84.1705 44.099 83.6817 44.3581 83.0654 44.1854C82.5259 44.0333 82.4285 43.6083 82.4248 43.0208L81.8423 43.0467Z" fill="#0C2649"/>
<path fill-rule="evenodd" clip-rule="evenodd" d="M101.143 42.6558C101.141 42.4312 101.399 41.6519 101.476 41.372C101.562 41.0576 101.707 40.3111 101.849 40.102L102.57 42.6524L101.143 42.6558ZM100.98 43.169L102.72 43.1656L103.121 44.6083L103.73 44.6135C103.28 43.0757 102.731 41.3668 102.315 39.8636C102.218 39.5128 102.31 39.5889 101.45 39.5889L99.9722 44.6083L100.59 44.6101L100.98 43.169Z" fill="#0C2649"/>
<path fill-rule="evenodd" clip-rule="evenodd" d="M56.6507 40.066C56.7687 40.2405 57.3025 42.2915 57.3793 42.6474L57.2032 42.6595L56.1355 42.6578L55.9389 42.6509L56.6507 40.066ZM55.3826 44.6051C55.5024 44.4168 55.731 43.4336 55.7928 43.1675H57.5198L57.7408 43.9226C57.9712 44.733 57.8064 44.6155 58.5463 44.6103L57.0496 39.5908H56.2929C56.1112 40.1852 54.9012 44.0781 54.7963 44.6051H55.3826Z" fill="#0C2649"/>
<path fill-rule="evenodd" clip-rule="evenodd" d="M30.1029 40.0867L31.4666 40.1558C32.0734 40.2646 32.2533 41.6366 31.4179 41.9199C31.1444 42.0115 30.4326 42.015 30.1048 41.9873L30.1029 40.0867ZM30.116 42.5074C30.8878 42.4538 32.7871 42.7839 32.5923 40.764C32.4574 39.3558 30.9009 39.5752 29.496 39.5908V44.612L30.1029 44.6137L30.116 42.5074Z" fill="#0D2547"/>
<path fill-rule="evenodd" clip-rule="evenodd" d="M71.0962 40.066C71.2048 40.2267 71.7611 42.3226 71.8248 42.6544L70.3862 42.6509L71.0962 40.066ZM69.7906 44.6138C69.9105 44.5412 69.9873 44.104 70.0472 43.8898C70.109 43.6686 70.1521 43.3541 70.2645 43.1744L71.9803 43.1658L72.3849 44.6086L72.9918 44.6138L71.4951 39.5926L70.7796 39.5891L69.6089 43.3403C69.4946 43.7412 69.3279 44.2043 69.2418 44.6051L69.7906 44.6138Z" fill="#0C2649"/>
<path fill-rule="evenodd" clip-rule="evenodd" d="M45.6461 40.1127L47.7458 40.1109L47.7477 39.5891H45.0467V44.612H47.7683V44.085H45.6536L45.6461 42.2345L47.6128 42.2328L47.6091 41.7351L45.6461 41.723V40.1109V40.1127Z" fill="#0D2547"/>
<path fill-rule="evenodd" clip-rule="evenodd" d="M11.1694 40.1127L13.2692 40.1109L13.2711 39.5908L10.5681 39.5891V44.612H13.2917V44.0868L11.175 44.085L11.1694 42.2328H13.1343L13.1324 41.7386L11.1694 41.723V40.1127Z" fill="#0D2547"/>
<path fill-rule="evenodd" clip-rule="evenodd" d="M51.6213 3.19837L51.3759 3.05323C51.065 3.77202 50.7335 4.52192 49.6096 4.21436C47.7721 3.71673 47.7589 1.22341 49.3005 0.654938C49.7107 0.504613 50.2745 0.480423 50.6098 0.699863C50.9901 0.948677 51.0238 1.25969 51.1624 1.68648L51.4378 1.67438C51.4733 1.45149 51.4546 1.02989 51.4527 0.786257C51.4527 0.542626 51.3797 0.49079 50.9245 0.338737C49.4691 -0.148523 47.3263 0.552994 47.3113 2.43119C47.2963 4.23855 49.3717 4.96944 50.9395 4.46836C51.3516 4.33531 51.2729 4.34568 51.4303 3.97073C51.522 3.75129 51.6269 3.46101 51.6213 3.19837Z" fill="#0C2649"/>
<path fill-rule="evenodd" clip-rule="evenodd" d="M9.05278 40.1109L7.26395 43.3697C6.96238 43.9105 6.8631 43.895 6.86685 44.5982L9.73459 44.6138L9.73647 44.0729H7.55054L9.30378 40.8332C9.699 40.1265 9.71774 40.244 9.7065 39.5908L6.99235 39.5891V40.1109H9.05278Z" fill="#0C2649"/>
<path fill-rule="evenodd" clip-rule="evenodd" d="M64.4072 0.552866C65.3475 0.656539 65.1659 0.820687 65.1659 2.43107C65.1659 2.84403 65.1883 3.30537 65.1602 3.70969C65.1246 4.23842 64.9598 4.12265 64.3997 4.32827L64.4016 4.56153L68.0954 4.55808L68.455 3.38312L68.2078 3.30364C67.968 3.56628 67.8182 4.00343 67.4923 4.14512L65.932 4.12784C65.8233 3.82373 65.872 2.44489 65.872 2.0302C65.872 1.714 65.8439 1.24402 65.8889 0.945094L66.6344 0.53386L66.6194 0.250488L64.4035 0.253944L64.4091 0.552866H64.4072Z" fill="#0C2649"/>
<path fill-rule="evenodd" clip-rule="evenodd" d="M0.621876 40.123L2.51185 40.0798L2.51747 39.6219L0.0018731 39.5908L0 44.6103L0.621876 44.6137L0.623749 42.25L2.38448 42.2327L2.38636 41.7144L0.623749 41.6971L0.621876 40.123Z" fill="#0C2649"/>
<path fill-rule="evenodd" clip-rule="evenodd" d="M6.56529 16.8174C6.71326 16.1349 6.16819 15.5768 5.5819 15.4731C4.83265 15.3401 4.20516 15.8256 4.09464 16.3872C3.95228 17.099 4.46739 17.6451 5.0874 17.7539C5.86661 17.8921 6.44166 17.3928 6.56529 16.8174Z" fill="white"/>
<path fill-rule="evenodd" clip-rule="evenodd" d="M40.967 40.1023L42.3513 40.1075L42.3531 44.612L42.9731 44.6138L42.975 40.1265L44.2693 40.1057L44.2806 39.5891H40.9614L40.967 40.1023Z" fill="#0D2547"/>
<path fill-rule="evenodd" clip-rule="evenodd" d="M85.6503 40.1057L87.0383 40.1075L87.0364 44.612L87.6583 44.6138V40.1248L88.9526 40.1023L88.9657 39.5908L85.6447 39.5891L85.6503 40.1057Z" fill="#0D2547"/>
<path fill-rule="evenodd" clip-rule="evenodd" d="M80.1864 44.612H80.8064L80.8083 44.4548V39.5891H80.1864V44.612Z" fill="#0D2547"/>
<path fill-rule="evenodd" clip-rule="evenodd" d="M98.5692 44.6068L99.193 44.612V39.5977L98.5692 39.5942V44.6068Z" fill="#0D2547"/>
<path fill-rule="evenodd" clip-rule="evenodd" d="M77.1257 9.62422L77.5921 10.172L80.1452 8.9538L79.5664 7.92053C79.1618 8.19008 78.7628 8.46827 78.347 8.7551C78.1316 8.90542 77.2306 9.49463 77.1257 9.62422Z" fill="#0C2649"/>
<path fill-rule="evenodd" clip-rule="evenodd" d="M6.56528 16.8175C6.44166 17.3928 5.86661 17.8922 5.08739 17.754C4.46739 17.6451 3.95228 17.0991 4.09464 16.3872C4.20515 15.8257 4.83265 15.3401 5.5819 15.4732C6.16818 15.5768 6.71326 16.1349 6.56528 16.8175ZM5.11924 15.1622C3.01947 15.4421 3.48026 18.3224 5.53507 18.0702C6.33115 17.9717 7.02607 17.2995 6.90245 16.4149C6.79942 15.6788 6.05205 15.036 5.11924 15.1622Z" fill="#0C2647"/>
<path fill-rule="evenodd" clip-rule="evenodd" d="M9.89944 3.19127C10.7142 3.24483 10.7761 4.05693 9.90132 4.13123L9.89944 3.92907V3.19127ZM10.8959 3.70445C11.0458 2.88716 9.75709 3.05995 9.23448 3.06168C9.20264 3.26384 9.15019 3.16362 9.52294 3.26038L9.58101 4.40251C9.60911 5.47034 9.34687 4.9105 9.18953 5.20597L9.2476 5.23189C9.25696 5.23362 9.2682 5.2388 9.27944 5.24226L9.46862 5.25262C9.65406 5.25262 10.2104 5.29582 10.3321 5.20597C9.82639 4.95025 9.96126 5.2509 9.90132 4.25737L10.3621 4.49063C10.4052 4.53383 10.6974 5.1023 11.0121 5.20597C11.1114 5.2388 11.4185 5.28027 11.5234 5.25608C11.634 5.23189 11.5628 5.27509 11.6283 5.19733C11.0814 4.94333 10.8678 4.80165 10.5269 4.14678L10.6581 4.03966C10.7686 3.95326 10.866 3.86341 10.8959 3.70445Z" fill="#FCFCFD"/>
<path fill-rule="evenodd" clip-rule="evenodd" d="M19.3774 5.08355C19.3175 4.89349 19.4786 4.55828 19.5573 4.41487L20.2035 4.41659L20.3889 5.06109L20.1698 5.28053L21.1756 5.30472L20.7935 4.83992C20.683 4.64986 20.2166 3.21399 20.0386 3.02393L19.8794 3.02738C19.6902 3.49736 19.3418 4.44597 19.1527 4.86757C18.9766 5.26498 18.7443 4.98852 18.7406 5.28053L19.7015 5.30126L19.3774 5.08355Z" fill="#E3ECF5"/>
<path fill-rule="evenodd" clip-rule="evenodd" d="M7.29393 3.65274C7.43254 3.47304 7.49248 3.45057 7.4419 3.10327L5.71676 3.12573C5.69803 3.41256 6.03332 3.12746 6.08202 3.49723C6.10637 3.68211 6.08764 3.98794 6.08764 4.18492C6.08764 4.35944 6.10824 4.70328 6.08014 4.85879C6.01459 5.21301 5.72425 4.91236 5.71676 5.20609L7.48873 5.23028C7.53743 5.09551 7.63296 4.87607 7.62547 4.73093C7.61798 4.61516 7.59175 4.62898 7.58801 4.59788C7.58613 4.57888 7.57677 4.57542 7.56928 4.56678L6.81815 5.0575C6.31054 5.04367 6.43042 4.6981 6.43604 4.26959H7.03356L7.21338 4.50976C7.29018 4.35252 7.30142 3.91537 7.21338 3.76678C6.94178 3.9914 7.07852 3.97239 6.91556 4.01386C6.80504 4.04151 6.56154 4.02941 6.44353 4.01732L6.43604 3.28643C7.43066 3.31753 7.0935 3.28988 7.29393 3.65274Z" fill="#FCFCFD"/>
<path fill-rule="evenodd" clip-rule="evenodd" d="M15.7623 3.62515C16.0601 3.53012 15.6087 3.23811 16.5022 3.2502L16.4928 5.06793C16.3842 5.12149 16.2137 5.17851 16.1838 5.24244C16.3973 5.2649 17.1484 5.38758 17.2852 5.24244C16.9124 4.93661 16.9517 5.41523 16.9517 4.36641C16.9517 4.06058 16.918 3.52839 16.9667 3.2502L17.7422 3.62342L17.7403 3.06532C17.4781 2.97374 15.8841 3.0083 15.7511 3.03767L15.7623 3.62515Z" fill="#FCFCFD"/>
<path fill-rule="evenodd" clip-rule="evenodd" d="M1.6727 3.12581C1.68581 3.35734 1.71578 3.17419 1.93119 3.32624C2.00611 3.37981 2.05294 3.4662 2.09977 3.56987C2.18968 3.76512 2.26461 3.95001 2.35077 4.14353C2.44068 4.34742 2.5156 4.53057 2.60926 4.74483C2.65796 4.85887 2.75349 5.26492 2.92394 5.22172C3.0663 5.18544 3.55706 3.84288 3.75186 3.5094C3.99537 3.0878 4.16395 3.41955 4.15084 3.10507L3.18056 3.12581L3.50086 3.34007C3.39784 3.65108 3.17681 4.39407 2.97826 4.6256L2.46316 3.30551L2.73663 3.09644L1.6727 3.12581Z" fill="#FCFCFD"/>
<path fill-rule="evenodd" clip-rule="evenodd" d="M22.706 4.53214C22.7284 4.7222 22.7397 5.09197 22.9045 5.19045C23.5245 5.55331 24.5716 5.02458 24.1633 4.35935C23.9928 4.08289 23.3391 3.90492 23.2473 3.62673C23.1593 3.36236 23.3897 3.17575 23.6687 3.23969C23.9628 3.30534 23.8467 3.59563 24.0359 3.69239C24.1689 3.50405 24.1314 3.51096 24.1445 3.16711L23.0225 3.28634C22.6198 3.69239 23.0188 4.06906 23.3035 4.24012C23.459 4.33343 23.6613 4.43537 23.7605 4.54596C24.0808 4.91918 23.4852 5.36151 23.0787 4.95719C22.7809 4.66345 23.0562 4.59088 22.706 4.53214Z" fill="#FCFCFD"/>
<path fill-rule="evenodd" clip-rule="evenodd" d="M14.1346 3.08946C13.9173 3.07391 13.168 2.98925 12.9845 3.08946C13.0238 3.28644 12.9901 3.16376 13.2167 3.2467C13.4752 3.34173 13.3797 3.73569 13.3797 4.18493C13.3797 4.67392 13.4771 5.01086 13.1886 5.0938C12.9639 5.156 12.9807 5.04542 12.9901 5.27695L14.1327 5.24239C13.8686 5.00049 14.0521 5.15082 13.7768 5.03678L13.7749 3.29162C14.2451 3.14994 14.1177 3.23806 14.1346 3.08946Z" fill="#FCFCFD"/>
<path fill-rule="evenodd" clip-rule="evenodd" d="M12.9226 15.9379C13.1793 15.7703 13.4827 15.6286 13.5689 15.3037C13.6794 14.8873 13.3085 14.699 12.9133 14.6973L12.9226 15.9379Z" fill="#0E2545"/>
<path fill-rule="evenodd" clip-rule="evenodd" d="M9.89944 3.49033V3.92921L9.90132 4.13137C10.7761 4.05707 10.7143 3.24497 9.89944 3.19141V3.49033Z" fill="#0C2649"/>
<path fill-rule="evenodd" clip-rule="evenodd" d="M90.9681 39.1122C91.1442 39.1139 91.3165 39.1727 91.442 39.0724C91.6967 38.872 91.9665 38.4988 92.1425 38.2258L91.4645 38.1636C91.3802 38.288 90.9981 38.9999 90.9681 39.1122Z" fill="#0C2647"/>
</svg>
