<?xml version="1.0" encoding="UTF-8"?>
<svg xmlns="http://www.w3.org/2000/svg" xmlns:xlink="http://www.w3.org/1999/xlink" width="612.3pt" height="442pt" viewBox="0 0 612.3 442" version="1.1">
<defs>
<clipPath id="clip1">
  <path d="M 0 0 L 612.300781 0 L 612.300781 424 L 0 424 Z M 0 0 "/>
</clipPath>
<clipPath id="clip2">
  <path d="M 508 0 L 612.300781 0 L 612.300781 413 L 508 413 Z M 508 0 "/>
</clipPath>
</defs>
<g id="surface1">
<g clip-path="url(#clip1)" clip-rule="nonzero">
<path style=" stroke:none;fill-rule:evenodd;fill:rgb(31.762695%,90.625%,0%);fill-opacity:1;" d="M 306.246094 -0.0742188 C 475.328125 -0.0742188 612.394531 94.644531 612.394531 211.492188 C 612.394531 328.335938 475.328125 423.058594 306.246094 423.058594 C 137.164063 423.058594 0.0976563 328.335938 0.0976563 211.492188 C 0.0976563 94.644531 137.164063 -0.0742188 306.246094 -0.0742188 Z M 306.246094 -0.0742188 "/>
</g>
<path style=" stroke:none;fill-rule:evenodd;fill:rgb(10.594177%,9.812927%,9.423828%);fill-opacity:1;" d="M 107.6875 61.121094 L 164.273438 174.164063 L 219.984375 61.121094 L 234.753906 208.125 L 215.121094 209.890625 L 208.132813 120.621094 L 163.425781 209.890625 L 118.546875 120.824219 L 110.773438 209.890625 L 93.707031 208.125 Z M 251.816406 65.316406 L 313.007813 65.316406 L 317.609375 84.628906 L 270.601563 84.628906 L 270.601563 124.21875 L 308.144531 124.21875 L 308.144531 144.230469 L 270.601563 144.230469 L 270.601563 187.75 L 322.996094 187.75 L 316.328125 208.125 L 251.816406 208.125 Z M 403.492188 84.429688 L 391.320313 98.480469 C 388.117188 92.753906 384.445313 88.390625 380.3125 85.359375 C 376.144531 82.332031 371.71875 80.832031 367 80.832031 C 361.761719 80.832031 357.421875 82.730469 353.984375 86.492188 C 350.546875 90.253906 348.828125 95.050781 348.828125 100.84375 C 348.828125 110.332031 357.273438 119.023438 374.167969 126.882813 C 377.398438 128.378906 379.902344 129.546875 381.679688 130.378906 C 388.785156 133.90625 394.289063 138.933594 398.164063 145.460938 C 402.066406 151.988281 404.019531 159.480469 404.019531 167.9375 C 404.019531 180.355469 400.347656 190.710938 392.980469 198.96875 C 385.613281 207.226563 376.378906 211.355469 365.28125 211.355469 C 357.683594 211.355469 350.722656 209.359375 344.429688 205.394531 C 338.140625 201.433594 332.34375 195.375 326.984375 187.183594 L 341.140625 171.964844 C 344.285156 178.191406 347.898438 182.921875 351.972656 186.148438 C 356.078125 189.378906 360.507813 190.976563 365.28125 190.976563 C 371.019531 190.976563 375.738281 188.914063 379.378906 184.820313 C 383.019531 180.722656 384.824219 175.527344 384.824219 169.234375 C 384.824219 159.347656 376.84375 150.824219 360.855469 143.664063 C 360.449219 143.464844 360.15625 143.332031 359.925781 143.265625 C 349.179688 138.46875 341.546875 132.910156 337.035156 126.648438 C 332.546875 120.355469 330.304688 112.332031 330.304688 102.507813 C 330.304688 90.054688 333.769531 80.132813 340.703125 72.675781 C 347.664063 65.25 356.894531 61.519531 368.429688 61.519531 C 375.503906 61.519531 382.085938 63.519531 388.234375 67.515625 C 394.378906 71.511719 399.476563 77.171875 403.492188 84.429688 Z M 475.339844 99.078125 L 458.945313 135.640625 L 491.214844 135.640625 Z M 476.1875 60.054688 L 541.042969 207.160156 L 523.21875 212.320313 L 497.855469 153.585938 L 450.847656 153.585938 L 424.839844 212.320313 L 408.96875 207.160156 Z M 476.1875 60.054688 "/>
<path style=" stroke:none;fill-rule:evenodd;fill:rgb(10.594177%,9.812927%,9.423828%);fill-opacity:1;" d="M 103.058594 290.890625 L 103.058594 331.332031 L 113.878906 331.332031 C 120.820313 331.332031 126.078125 329.667969 129.652344 326.371094 C 133.25 323.074219 135.035156 318.230469 135.035156 311.839844 C 135.035156 305.160156 133.046875 300.023438 129.089844 296.375 C 125.132813 292.730469 119.496094 290.890625 112.167969 290.890625 Z M 103.058594 237.640625 L 103.058594 276.359375 L 111.121094 276.359375 C 119.289063 276.359375 125.289063 274.726563 129.140625 271.457031 C 132.96875 268.160156 134.882813 263.082031 134.882813 256.195313 C 134.882813 249.980469 133.125 245.34375 129.574219 242.25 C 126.054688 239.1875 120.769531 237.640625 113.75 237.640625 Z M 86.597656 221.910156 L 114.03125 221.910156 C 126.105469 221.910156 135.394531 224.710938 141.902344 230.34375 C 148.4375 235.945313 151.703125 243.941406 151.703125 254.300781 C 151.703125 261.15625 150.171875 267.023438 147.132813 271.925781 C 144.097656 276.824219 139.632813 280.5625 133.761719 283.101563 C 139.554688 285.171875 144.070313 288.730469 147.3125 293.808594 C 150.554688 298.886719 152.160156 304.984375 152.160156 312.191406 C 152.160156 323.132813 148.921875 331.683594 142.414063 337.839844 C 135.90625 343.996094 126.84375 347.058594 115.230469 347.058594 L 86.597656 347.058594 Z M 187.101563 238.484375 L 187.101563 278.226563 L 192.996094 278.226563 C 200.042969 278.226563 205.453125 276.445313 209.304688 272.859375 C 213.132813 269.269531 215.050781 264.25 215.050781 257.800781 C 215.050781 251.410156 213.210938 246.597656 209.5625 243.359375 C 205.886719 240.121094 200.5 238.484375 193.382813 238.484375 Z M 170.640625 221.910156 L 191.671875 221.910156 C 197.59375 221.910156 202.441406 222.289063 206.191406 223.078125 C 209.96875 223.835938 213.289063 225.0625 216.171875 226.785156 C 220.867188 229.644531 224.59375 233.90625 227.351563 239.566406 C 230.132813 245.226563 231.511719 251.558594 231.511719 258.5 C 231.511719 266.761719 229.164063 273.878906 224.492188 279.859375 C 219.796875 285.84375 213.59375 289.578125 205.859375 291.066406 L 239.292969 342.859375 L 223.804688 350.414063 L 187.101563 289.429688 L 187.101563 347.058594 L 170.640625 348.605469 Z M 303.203125 251.5 L 288.832031 283.539063 L 317.113281 283.539063 Z M 303.941406 217.300781 L 360.78125 346.214844 L 345.160156 350.738281 L 322.929688 299.265625 L 281.738281 299.265625 L 258.945313 350.738281 L 245.039063 346.214844 Z M 430.660156 238.660156 L 419.992188 250.972656 C 417.183594 245.957031 413.96875 242.132813 410.34375 239.476563 C 406.695313 236.824219 402.816406 235.507813 398.679688 235.507813 C 394.085938 235.507813 390.285156 237.171875 387.269531 240.46875 C 384.261719 243.765625 382.753906 247.96875 382.753906 253.046875 C 382.753906 261.363281 390.15625 268.976563 404.957031 275.863281 C 407.789063 277.175781 409.984375 278.199219 411.542969 278.925781 C 417.769531 282.019531 422.59375 286.425781 425.988281 292.144531 C 429.410156 297.863281 431.117188 304.429688 431.117188 311.839844 C 431.117188 322.726563 427.902344 331.800781 421.445313 339.035156 C 414.988281 346.273438 406.898438 349.890625 397.175781 349.890625 C 390.511719 349.890625 384.414063 348.140625 378.902344 344.667969 C 373.386719 341.195313 368.308594 335.886719 363.613281 328.707031 L 376.015625 315.371094 C 378.773438 320.828125 381.9375 324.972656 385.511719 327.800781 C 389.109375 330.632813 392.988281 332.03125 397.175781 332.03125 C 402.203125 332.03125 406.335938 330.222656 409.527344 326.632813 C 412.714844 323.046875 414.300781 318.492188 414.300781 312.980469 C 414.300781 304.3125 407.304688 296.84375 393.296875 290.570313 C 392.9375 290.394531 392.683594 290.277344 392.476563 290.21875 C 383.0625 286.019531 376.375 281.144531 372.417969 275.660156 C 368.488281 270.144531 366.523438 263.113281 366.523438 254.503906 C 366.523438 243.589844 369.558594 234.894531 375.632813 228.359375 C 381.734375 221.851563 389.824219 218.585938 399.929688 218.585938 C 406.132813 218.585938 411.902344 220.335938 417.285156 223.835938 C 422.671875 227.339844 427.136719 232.300781 430.660156 238.660156 Z M 464.527344 220.101563 L 464.527344 347.058594 L 448.296875 348.605469 L 448.296875 221.910156 Z M 504.265625 220.101563 L 504.265625 329.203125 L 552.652344 329.203125 L 546.527344 347.058594 L 487.800781 347.058594 L 487.800781 221.910156 Z M 504.265625 220.101563 "/>
<path style=" stroke:none;fill-rule:evenodd;fill:rgb(100%,100%,100%);fill-opacity:1;" d="M 579.613281 205.964844 L 561.574219 225.128906 L 554.8125 354.785156 C 560.125 377.585938 571.257813 386.8125 590.886719 376.207031 C 593.09375 249.507813 585.671875 128.59375 572.847656 10.921875 C 534.894531 56.015625 530.007813 122.160156 558.191406 209.347656 Z M 579.613281 205.964844 "/>
<g clip-path="url(#clip2)" clip-rule="nonzero">
<path style="fill:none;stroke-width:56.782;stroke-linecap:butt;stroke-linejoin:miter;stroke:rgb(10.594177%,9.812927%,9.423828%);stroke-opacity:1;stroke-miterlimit:4;" d="M 5796.132813 2360.351563 L 5615.742188 2168.710938 L 5548.125 872.148438 C 5601.25 644.140625 5712.578125 551.875 5908.867188 657.929688 C 5930.9375 1924.921875 5856.71875 3134.0625 5728.476563 4310.78125 C 5348.945313 3859.84375 5300.078125 3198.398438 5581.914063 2326.523438 Z M 5796.132813 2360.351563 " transform="matrix(0.1,0,0,-0.1,0,442)"/>
</g>
<path style=" stroke:none;fill-rule:evenodd;fill:rgb(10.594177%,9.812927%,9.423828%);fill-opacity:1;" d="M 571.886719 367.5 L 582.179688 356.3125 L 575.019531 290.988281 Z M 571.886719 367.5 "/>
<path style=" stroke:none;fill-rule:evenodd;fill:rgb(10.594177%,9.812927%,9.423828%);fill-opacity:1;" d="M 563.363281 57.59375 C 554.910156 87.492188 551.046875 120.738281 551.777344 157.328125 C 549.527344 144.167969 543.054688 128.074219 546.457031 100.246094 C 548.894531 84.65625 555.078125 70.675781 563.363281 57.59375 Z M 563.363281 57.59375 "/>
<path style="fill-rule:evenodd;fill:rgb(100%,100%,100%);fill-opacity:1;stroke-width:56.782;stroke-linecap:butt;stroke-linejoin:round;stroke:rgb(10.594177%,9.812927%,9.423828%);stroke-opacity:1;stroke-miterlimit:4;" d="M 66.328125 3007.070313 C 99.0625 2935.976563 155.820313 2877.34375 229.882813 2868.085938 C 252.421875 2865.273438 273.828125 2863.398438 294.257813 2862.304688 L 223.789063 764.257813 C 315.703125 544.023438 463.28125 534.6875 582.617188 718.125 L 478.984375 2879.726563 C 607.34375 2916.640625 669.101563 3002.851563 715.859375 3084.140625 C 775.078125 3420.78125 790.039063 3784.6875 800.273438 4140.976563 C 795.546875 4187.617188 737.773438 4156.71875 737.890625 4126.289063 C 706.679688 3450.351563 641.835938 3252.226563 561.71875 3271.289063 L 582.070313 4119.453125 C 561.71875 4179.335938 465.3125 4075.15625 470 4038.203125 L 477.34375 3285.9375 C 458.90625 3210.507813 350.742188 3204.140625 359.921875 3341.015625 L 352.578125 4170.3125 C 355.351563 4197.539063 282.695313 4168.046875 290.195313 4140.976563 L 286.523438 3285.9375 C 279.101563 3222.382813 231.132813 3179.726563 163.984375 3280.507813 C 148.671875 3303.515625 149.453125 3361.171875 151.835938 3404.21875 L 147.070313 4030.859375 C 138.554688 4172.929688 74.257813 4079.53125 73.671875 4016.210938 C 43.710938 3674.296875 47.382813 3339.140625 66.328125 3007.070313 Z M 66.328125 3007.070313 " transform="matrix(0.1,0,0,-0.1,0,442)"/>
<path style=" stroke:none;fill-rule:evenodd;fill:rgb(10.594177%,9.812927%,9.423828%);fill-opacity:1;" d="M 29.945313 219.035156 L 27.734375 351.929688 C 27.082031 362.613281 38.613281 367.511719 38.378906 349.738281 L 35.25 218.886719 Z M 29.945313 219.035156 "/>
<path style=" stroke:none;fill-rule:evenodd;fill:rgb(100%,100%,100%);fill-opacity:1;" d="M 104.367188 57.800781 L 160.953125 170.84375 L 216.667969 57.800781 L 231.433594 204.808594 L 211.804688 206.570313 L 204.8125 117.304688 L 160.109375 206.570313 L 115.230469 117.503906 L 107.453125 206.570313 L 90.386719 204.808594 Z M 248.5 62 L 309.6875 62 L 314.289063 81.308594 L 267.285156 81.308594 L 267.285156 120.898438 L 304.824219 120.898438 L 304.824219 140.910156 L 267.285156 140.910156 L 267.285156 184.429688 L 319.675781 184.429688 L 313.007813 204.808594 L 248.5 204.808594 Z M 400.175781 81.109375 L 388 95.160156 C 384.796875 89.433594 381.128906 85.074219 376.992188 82.042969 C 372.828125 79.011719 368.398438 77.515625 363.683594 77.515625 C 358.441406 77.515625 354.101563 79.410156 350.664063 83.175781 C 347.226563 86.9375 345.511719 91.730469 345.511719 97.527344 C 345.511719 107.015625 353.957031 115.707031 370.847656 123.5625 C 374.082031 125.0625 376.585938 126.226563 378.359375 127.058594 C 385.46875 130.589844 390.972656 135.617188 394.84375 142.144531 C 398.746094 148.667969 400.699219 156.160156 400.699219 164.617188 C 400.699219 177.039063 397.03125 187.394531 389.660156 195.652344 C 382.292969 203.90625 373.0625 208.035156 361.964844 208.035156 C 354.363281 208.035156 347.402344 206.039063 341.113281 202.078125 C 334.820313 198.113281 329.027344 192.054688 323.667969 183.863281 L 337.820313 168.648438 C 340.964844 174.875 344.578125 179.601563 348.65625 182.832031 C 352.761719 186.0625 357.1875 187.660156 361.964844 187.660156 C 367.703125 187.660156 372.421875 185.59375 376.0625 181.5 C 379.699219 177.402344 381.507813 172.210938 381.507813 165.917969 C 381.507813 156.027344 373.527344 147.503906 357.539063 140.34375 C 357.128906 140.144531 356.839844 140.011719 356.605469 139.945313 C 345.859375 135.152344 338.230469 129.589844 333.714844 123.332031 C 329.230469 117.035156 326.988281 109.011719 326.988281 99.191406 C 326.988281 86.738281 330.453125 76.816406 337.382813 69.355469 C 344.34375 61.933594 353.578125 58.203125 365.109375 58.203125 C 372.1875 58.203125 378.769531 60.199219 384.914063 64.195313 C 391.058594 68.191406 396.15625 73.851563 400.175781 81.109375 Z M 472.023438 95.761719 L 455.625 132.320313 L 487.894531 132.320313 Z M 472.867188 56.738281 L 537.726563 203.839844 L 519.902344 209.003906 L 494.535156 150.265625 L 447.527344 150.265625 L 421.523438 209.003906 L 405.648438 203.839844 Z M 472.867188 56.738281 "/>
<path style=" stroke:none;fill-rule:evenodd;fill:rgb(100%,100%,100%);fill-opacity:1;" d="M 99.738281 287.570313 L 99.738281 328.015625 L 110.558594 328.015625 C 117.503906 328.015625 122.761719 326.351563 126.332031 323.054688 C 129.929688 319.757813 131.71875 314.914063 131.71875 308.523438 C 131.71875 301.839844 129.726563 296.707031 125.773438 293.058594 C 121.816406 289.410156 116.175781 287.570313 108.851563 287.570313 Z M 99.738281 234.320313 L 99.738281 273.039063 L 107.804688 273.039063 C 115.972656 273.039063 121.96875 271.40625 125.824219 268.140625 C 129.652344 264.839844 131.566406 259.765625 131.566406 252.878906 C 131.566406 246.664063 129.804688 242.023438 126.257813 238.929688 C 122.734375 235.867188 117.453125 234.320313 110.433594 234.320313 Z M 83.277344 218.59375 L 110.714844 218.59375 C 122.785156 218.59375 132.074219 221.394531 138.582031 227.027344 C 145.117188 232.628906 148.382813 240.621094 148.382813 250.980469 C 148.382813 257.839844 146.851563 263.703125 143.816406 268.605469 C 140.777344 273.507813 136.3125 277.242188 130.441406 279.78125 C 136.234375 281.851563 140.753906 285.414063 143.992188 290.488281 C 147.234375 295.566406 148.84375 301.664063 148.84375 308.871094 C 148.84375 319.816406 145.601563 328.363281 139.09375 334.519531 C 132.585938 340.679688 123.527344 343.742188 111.914063 343.742188 L 83.277344 343.742188 Z M 183.785156 235.167969 L 183.785156 274.910156 L 189.679688 274.910156 C 196.722656 274.910156 202.132813 273.128906 205.988281 269.539063 C 209.816406 265.949219 211.730469 260.933594 211.730469 254.484375 C 211.730469 248.09375 209.894531 243.277344 206.242188 240.039063 C 202.566406 236.800781 197.183594 235.167969 190.0625 235.167969 Z M 167.324219 218.59375 L 188.351563 218.59375 C 194.273438 218.59375 199.121094 218.972656 202.875 219.757813 C 206.652344 220.519531 209.96875 221.742188 212.855469 223.464844 C 217.550781 226.324219 221.273438 230.585938 224.03125 236.246094 C 226.8125 241.90625 228.191406 248.238281 228.191406 255.183594 C 228.191406 263.441406 225.84375 270.558594 221.171875 276.542969 C 216.476563 282.523438 210.277344 286.257813 202.542969 287.746094 L 235.976563 339.539063 L 220.484375 347.097656 L 183.785156 286.113281 L 183.785156 343.742188 L 167.324219 345.289063 Z M 299.882813 248.179688 L 285.515625 280.21875 L 313.792969 280.21875 Z M 300.625 213.984375 L 357.460938 342.894531 L 341.839844 347.417969 L 319.613281 295.945313 L 278.417969 295.945313 L 255.628906 347.417969 L 241.71875 342.894531 Z M 427.339844 235.339844 L 416.671875 247.65625 C 413.863281 242.636719 410.648438 238.8125 407.023438 236.160156 C 403.375 233.503906 399.496094 232.191406 395.359375 232.191406 C 390.769531 232.191406 386.964844 233.855469 383.953125 237.152344 C 380.941406 240.449219 379.4375 244.648438 379.4375 249.726563 C 379.4375 258.042969 386.835938 265.660156 401.640625 272.546875 C 404.472656 273.859375 406.667969 274.878906 408.222656 275.609375 C 414.453125 278.703125 419.277344 283.109375 422.667969 288.828125 C 426.089844 294.546875 427.800781 301.109375 427.800781 308.523438 C 427.800781 319.40625 424.585938 328.480469 418.125 335.71875 C 411.667969 342.953125 403.578125 346.570313 393.855469 346.570313 C 387.195313 346.570313 381.09375 344.820313 375.582031 341.347656 C 370.070313 337.875 364.992188 332.566406 360.292969 325.386719 L 372.699219 312.054688 C 375.453125 317.511719 378.617188 321.652344 382.191406 324.484375 C 385.789063 327.3125 389.671875 328.714844 393.855469 328.714844 C 398.882813 328.714844 403.019531 326.90625 406.207031 323.316406 C 409.398438 319.726563 410.980469 315.175781 410.980469 309.660156 C 410.980469 300.996094 403.988281 293.523438 389.976563 287.25 C 389.617188 287.074219 389.363281 286.960938 389.160156 286.902344 C 379.742188 282.699219 373.054688 277.828125 369.097656 272.339844 C 365.167969 266.824219 363.203125 259.792969 363.203125 251.1875 C 363.203125 240.273438 366.242188 231.578125 372.316406 225.042969 C 378.414063 218.535156 386.503906 215.265625 396.613281 215.265625 C 402.8125 215.265625 408.582031 217.015625 413.96875 220.519531 C 419.351563 224.019531 423.820313 228.980469 427.339844 235.339844 Z M 461.207031 216.785156 L 461.207031 343.742188 L 444.976563 345.289063 L 444.976563 218.59375 Z M 500.945313 216.785156 L 500.945313 325.882813 L 549.335938 325.882813 L 543.210938 343.742188 L 484.484375 343.742188 L 484.484375 218.59375 Z M 500.945313 216.785156 "/>
<path style=" stroke:none;fill-rule:evenodd;fill:rgb(100%,79.6875%,0%);fill-opacity:1;" d="M 148.277344 441.953125 L 464.425781 441.953125 L 464.425781 371.894531 L 148.277344 371.894531 Z M 148.277344 441.953125 "/>
<path style=" stroke:none;fill-rule:evenodd;fill:rgb(10.594177%,9.812927%,9.423828%);fill-opacity:1;" d="M 162.316406 417.855469 L 178.804688 417.855469 C 179.257813 419.761719 180.078125 421.144531 181.277344 421.976563 C 182.476563 422.820313 184.25 423.238281 186.609375 423.238281 C 188.59375 423.238281 190.144531 422.894531 191.285156 422.210938 C 192.421875 421.535156 192.984375 420.59375 192.984375 419.394531 C 192.984375 417.488281 190.609375 415.933594 185.863281 414.734375 C 184.910156 414.503906 184.175781 414.320313 183.675781 414.195313 C 179.785156 413.195313 176.675781 412.289063 174.378906 411.457031 C 172.066406 410.636719 170.390625 409.867188 169.335938 409.144531 C 167.308594 407.6875 165.789063 405.941406 164.773438 403.910156 C 163.757813 401.878906 163.246094 399.566406 163.246094 396.960938 C 163.246094 391.726563 165.214844 387.613281 169.152344 384.628906 C 173.105469 381.644531 178.523438 380.152344 185.425781 380.152344 C 192.214844 380.152344 197.558594 381.582031 201.449219 384.433594 C 205.339844 387.296875 207.542969 391.382813 208.042969 396.714844 L 191.957031 396.714844 C 191.699219 395.164063 191.003906 394 189.902344 393.242188 C 188.789063 392.472656 187.199219 392.09375 185.144531 392.09375 C 183.332031 392.09375 181.988281 392.386719 181.09375 392.984375 C 180.210938 393.585938 179.773438 394.488281 179.773438 395.714844 C 179.773438 397.449219 182.085938 398.917969 186.722656 400.082031 C 187.136719 400.203125 187.441406 400.289063 187.652344 400.335938 C 188.324219 400.496094 189.339844 400.753906 190.695313 401.082031 C 196.835938 402.636719 200.851563 404.042969 202.734375 405.316406 C 205.082031 406.871094 206.78125 408.632813 207.859375 410.625 C 208.9375 412.605469 209.476563 414.945313 209.476563 417.648438 C 209.476563 423.46875 207.445313 427.949219 203.371094 431.078125 C 199.296875 434.210938 193.460938 435.777344 185.863281 435.777344 C 178.855469 435.777344 173.3125 434.210938 169.214844 431.078125 C 165.117188 427.949219 162.816406 423.542969 162.316406 417.855469 Z M 245.082031 434.308594 L 245.082031 381.523438 L 287.265625 381.523438 L 287.265625 394.171875 L 262.039063 394.171875 L 262.039063 401.207031 L 283.363281 401.207031 L 283.363281 413.316406 L 262.039063 413.316406 L 262.039063 421.476563 L 288.304688 421.476563 L 288.304688 434.308594 Z M 321.734375 417.855469 L 338.226563 417.855469 C 338.679688 419.761719 339.496094 421.144531 340.695313 421.976563 C 341.894531 422.820313 343.667969 423.238281 346.03125 423.238281 C 348.011719 423.238281 349.566406 422.894531 350.703125 422.210938 C 351.839844 421.535156 352.402344 420.59375 352.402344 419.394531 C 352.402344 417.488281 350.03125 415.933594 345.285156 414.734375 C 344.332031 414.503906 343.597656 414.320313 343.09375 414.195313 C 339.203125 413.195313 336.097656 412.289063 333.796875 411.457031 C 331.484375 410.636719 329.808594 409.867188 328.757813 409.144531 C 326.726563 407.6875 325.210938 405.941406 324.195313 403.910156 C 323.179688 401.878906 322.664063 399.566406 322.664063 396.960938 C 322.664063 391.726563 324.632813 387.613281 328.574219 384.628906 C 332.523438 381.644531 337.945313 380.152344 344.84375 380.152344 C 351.632813 380.152344 356.980469 381.582031 360.867188 384.433594 C 364.761719 387.296875 366.960938 391.382813 367.460938 396.714844 L 351.375 396.714844 C 351.121094 395.164063 350.421875 394 349.320313 393.242188 C 348.207031 392.472656 346.617188 392.09375 344.5625 392.09375 C 342.753906 392.09375 341.40625 392.386719 340.511719 392.984375 C 339.632813 393.585938 339.191406 394.488281 339.191406 395.714844 C 339.191406 397.449219 341.503906 398.917969 346.140625 400.082031 C 346.558594 400.203125 346.863281 400.289063 347.070313 400.335938 C 347.742188 400.496094 348.757813 400.753906 350.117188 401.082031 C 356.257813 402.636719 360.269531 404.042969 362.152344 405.316406 C 364.503906 406.871094 366.203125 408.632813 367.28125 410.625 C 368.355469 412.605469 368.894531 414.945313 368.894531 417.648438 C 368.894531 423.46875 366.863281 427.949219 362.789063 431.078125 C 358.714844 434.210938 352.882813 435.777344 345.285156 435.777344 C 338.273438 435.777344 332.734375 434.210938 328.636719 431.078125 C 324.535156 427.949219 322.238281 423.542969 321.734375 417.855469 Z M 438.730469 413.84375 L 454.792969 413.84375 C 454.316406 420.789063 451.871094 426.1875 447.441406 430.027344 C 443.027344 433.855469 437.042969 435.777344 429.496094 435.777344 C 421.03125 435.777344 414.375 433.292969 409.53125 428.339844 C 404.675781 423.382813 402.253906 416.59375 402.253906 407.957031 C 402.253906 399.359375 404.648438 392.582031 409.457031 387.601563 C 414.265625 382.636719 420.8125 380.152344 429.105469 380.152344 C 436.75 380.152344 442.757813 382 447.148438 385.695313 C 451.527344 389.375 453.988281 394.660156 454.511719 401.511719 L 438.28125 401.511719 C 438.035156 398.808594 437.167969 396.777344 435.660156 395.394531 C 434.15625 394.023438 432.039063 393.339844 429.3125 393.339844 C 425.984375 393.339844 423.5 394.550781 421.839844 396.972656 C 420.175781 399.40625 419.34375 403.066406 419.34375 407.957031 C 419.34375 412.765625 420.222656 416.398438 421.996094 418.859375 C 423.757813 421.316406 426.351563 422.550781 429.777344 422.550781 C 432.394531 422.550781 434.488281 421.792969 436.027344 420.289063 C 437.570313 418.785156 438.476563 416.644531 438.730469 413.84375 Z M 438.730469 413.84375 "/>
</g>
</svg>
