<svg width="104" height="52" viewBox="0 0 104 52" fill="none" xmlns="http://www.w3.org/2000/svg">
<path d="M51.9749 44.6359C49.0595 45.4905 47.8531 45.5407 46.1441 45.4905C42.726 45.3397 39.9614 43.3793 39.1571 40.0618H59.7159C59.7661 39.358 59.8164 38.9559 59.8164 38.2019V38.1014C59.8164 30.662 55.6946 23.6751 45.6917 23.6751C37.0962 23.6751 31.2151 29.9583 31.2151 37.5987C31.2151 45.6413 36.9957 51.3213 45.6414 51.3213C46.9483 51.3213 48.8584 51.271 51.9749 50.517V44.6359ZM45.8425 29.8075C49.5119 29.8075 51.8241 32.0695 52.3268 35.387H39.1571C39.8609 32.0192 42.2233 29.8075 45.8425 29.8075Z" fill="#0C4379"/>
<path d="M19.7043 31.8182C12.9686 30.3605 12.0136 29.707 12.0136 28.199C12.0136 26.7413 13.7226 25.4847 16.437 25.5349C18.4979 25.5852 19.7545 26.0879 20.3577 26.2889C22.0165 24.228 23.8261 22.2677 25.6859 20.3576C22.871 19.3522 19.8048 18.7993 16.4872 18.7993C8.49497 18.7993 2.91547 22.8206 2.91547 28.8022C2.91547 33.4267 5.32823 35.5378 9.55056 36.9453C9.80189 36.9955 10.4553 37.1966 10.8072 37.3474C12.2649 37.7495 13.8734 38.1517 15.683 38.5035C22.2678 39.911 22.8207 41.1173 22.8207 42.4243C22.8207 43.9825 20.9609 44.8873 17.8947 44.8873C14.3761 44.8873 11.1088 43.8317 7.74099 41.6703C5.98168 44.0328 4.17211 46.6466 3.21706 48.2048C7.48966 50.517 12.5162 51.9748 17.7439 51.9748C26.5404 51.9748 31.9691 48.1043 31.9691 41.7708C31.9691 35.6384 27.0933 33.4267 19.7043 31.8182Z" fill="#0C4379"/>
<path d="M73.4384 34.432C67.6076 33.2256 66.8033 32.7229 66.9039 31.4663C67.0044 30.2599 68.9648 29.1038 71.8802 29.1038C73.74 29.1038 76.2533 29.5562 78.465 30.6118V24.6804C76.3036 24.027 73.9914 23.5746 71.4278 23.5746C64.089 23.5746 59.1127 27.0932 58.7608 31.969C58.3084 37.3474 62.4805 38.5538 69.3669 39.9612C75.0972 41.1173 75.3988 42.0221 75.3988 43.329C75.3988 44.5354 73.8908 45.8926 70.4727 45.7418C67.0044 45.6413 62.9329 44.5857 59.8164 42.8264V49.562C63.0837 51.0197 67.2557 51.9245 70.4727 51.9245C78.2137 51.9245 83.5419 47.4006 83.5419 42.4745C83.5921 37.5987 79.8222 35.7389 73.4384 34.432Z" fill="#0C4379"/>
<path d="M103.95 45.2894C103.296 45.3899 102.593 45.4402 101.889 45.4402C96.1586 45.4402 91.5341 41.8211 91.5341 37.3977C91.5341 32.9743 96.1586 29.3551 101.889 29.3551C102.593 29.3551 103.296 29.4054 103.95 29.5059V23.8762C102.693 23.7254 101.386 23.6248 99.9788 23.6248C90.0764 23.6248 82.6371 29.5562 82.6371 37.4479C82.6371 43.0274 86.3065 47.1492 90.7299 49.3107C93.7961 50.8186 97.0634 51.271 99.7275 51.271C101.286 51.271 102.693 51.1705 104 50.9694V45.2894H103.95Z" fill="#0C4379"/>
<path d="M20.3074 26.2388C27.1938 17.4925 46.1943 0 72.0812 0C90.2774 0 104 10.3548 104 10.3548C93.796 5.37844 53.332 -2.71435 21.4635 26.7414L20.3074 26.2388Z" fill="#F8C000"/>
<path d="M11.0585 37.448C8.99758 39.8608 4.87579 45.4906 3.21701 48.2049C1.60851 47.2499 0.753987 46.6467 0 46.0938C2.51329 43.3794 6.28323 39.3581 9.39971 36.9454C9.39971 36.9454 10.8574 37.3475 11.0585 37.448Z" fill="#F8C000"/>
</svg>
